<?xml version="1.0" standalone="no"?>
<!DOCTYPE svg PUBLIC "-//W3C//DTD SVG 1.1//EN" "http://www.w3.org/Graphics/SVG/1.1/DTD/svg11.dtd" >
<svg xmlns="http://www.w3.org/2000/svg" xmlns:xlink="http://www.w3.org/1999/xlink" version="1.1">
<metadata>
Created by FontForge 20170924 at Fri Feb 17 13:55:46 2017
 By www-data
Copyright 2016 The Cabin Project Authors (impallari@gmail.com)
</metadata>
<defs>
<font id="Cabin-Medium" horiz-adv-x="0" >
  <font-face 
    font-family="Cabin Medium"
    font-weight="500"
    font-stretch="normal"
    units-per-em="1000"
    panose-1="0 0 6 0 0 0 0 0 0 0"
    ascent="800"
    descent="-200"
    x-height="494"
    cap-height="700"
    bbox="-212 -308 1267 1139"
    underline-thickness="50"
    underline-position="-100"
    unicode-range="U+000D-25CA"
  />
<missing-glyph horiz-adv-x="603" 
d="M50 700h503v-700h-503v700zM473 70v560h-343v-560h343z" />
    <glyph glyph-name=".notdef" horiz-adv-x="603" 
d="M50 700h503v-700h-503v700zM473 70v560h-343v-560h343z" />
    <glyph glyph-name="NULL" 
 />
    <glyph glyph-name="nonmarkingreturn" unicode="&#xd;" horiz-adv-x="225" 
 />
    <glyph glyph-name="space" unicode=" " horiz-adv-x="225" 
 />
    <glyph glyph-name="A" unicode="A" horiz-adv-x="620" 
d="M441 179h-263l-63 -179h-110l250 700h109l251 -700h-111zM407 276l-97 275l-97 -275h194z" />
    <glyph glyph-name="Aacute" unicode="&#xc1;" horiz-adv-x="620" 
d="M441 179h-263l-63 -179h-110l250 700h109l251 -700h-111zM407 276l-97 275l-97 -275h194zM215 825l191 95v-100l-191 -58v63z" />
    <glyph glyph-name="Abreve" unicode="&#x102;" horiz-adv-x="620" 
d="M441 179h-263l-63 -179h-110l250 700h109l251 -700h-111zM407 276l-97 275l-97 -275h194zM200.5 801q-39.5 36 -39.5 89h82q0 -29 18.5 -45t48.5 -16t48.5 16t18.5 45h82q0 -53 -39.5 -89t-109.5 -36t-109.5 36z" />
    <glyph glyph-name="uni1EAE" unicode="&#x1eae;" horiz-adv-x="620" 
d="M441 179h-263l-63 -179h-110l250 700h109l251 -700h-111zM407 276l-97 275l-97 -275h194zM215 997l191 95v-99l-191 -58v62zM200.5 801q-39.5 36 -39.5 89h82q0 -29 18.5 -45t48.5 -16t48.5 16t18.5 45h82q0 -53 -39.5 -89t-109.5 -36t-109.5 36z" />
    <glyph glyph-name="uni1EB6" unicode="&#x1eb6;" horiz-adv-x="620" 
d="M441 179h-263l-63 -179h-110l250 700h109l251 -700h-111zM407 276l-97 275l-97 -275h194zM200.5 825q-39.5 38 -39.5 94h82q0 -30 18.5 -46.5t48.5 -16.5t48.5 16.5t18.5 46.5h82q0 -56 -39.5 -94t-109.5 -38t-109.5 38zM260 -81h100v-93h-100v93z" />
    <glyph glyph-name="uni1EB0" unicode="&#x1eb0;" horiz-adv-x="620" 
d="M441 179h-263l-63 -179h-110l250 700h109l251 -700h-111zM407 276l-97 275l-97 -275h194zM214 992v99l191 -95v-62zM200.5 800q-39.5 36 -39.5 89h82q0 -29 18.5 -45t48.5 -16t48.5 16t18.5 45h82q0 -53 -39.5 -89t-109.5 -36t-109.5 36z" />
    <glyph glyph-name="uni1EB2" unicode="&#x1eb2;" horiz-adv-x="620" 
d="M441 179h-263l-63 -179h-110l250 700h109l251 -700h-111zM407 276l-97 275l-97 -275h194zM307 947q36 11 36 37q0 30 -39 30q-27 0 -62 -19l-17 55q36 19 80 19q43 0 71 -21t28 -58q0 -34 -21 -54.5t-66 -30.5zM200.5 801q-39.5 36 -39.5 89h82q0 -29 18.5 -45t48.5 -16
t48.5 16t18.5 45h82q0 -53 -39.5 -89t-109.5 -36t-109.5 36z" />
    <glyph glyph-name="uni1EB4" unicode="&#x1eb4;" horiz-adv-x="620" 
d="M441 179h-263l-63 -179h-110l250 700h109l251 -700h-111zM407 276l-97 275l-97 -275h194zM361 943.5q-18 5.5 -43 16.5q-44 19 -63 19q-16 0 -25 -9.5t-9 -26.5h-70q0 50 19 76.5t55 26.5q16 0 32.5 -5.5t44.5 -17.5q5 -2 26.5 -10.5t36.5 -8.5q16 0 25 9.5t9 26.5h70
q0 -50 -19 -76t-55 -26q-16 0 -34 5.5zM200.5 801q-39.5 36 -39.5 89h82q0 -29 18.5 -45t48.5 -16t48.5 16t18.5 45h82q0 -53 -39.5 -89t-109.5 -36t-109.5 36z" />
    <glyph glyph-name="Acircumflex" unicode="&#xc2;" horiz-adv-x="620" 
d="M441 179h-263l-63 -179h-110l250 700h109l251 -700h-111zM407 276l-97 275l-97 -275h194zM181 816l129 91l129 -91v-66l-129 68l-129 -68v66z" />
    <glyph glyph-name="uni1EA4" unicode="&#x1ea4;" horiz-adv-x="620" 
d="M441 179h-263l-63 -179h-110l250 700h109l251 -700h-111zM407 276l-97 275l-97 -275h194zM451 1019h106l-100 -121h-72zM181 816l129 91l129 -91v-66l-129 68l-129 -68v66z" />
    <glyph glyph-name="uni1EAC" unicode="&#x1eac;" horiz-adv-x="620" 
d="M441 179h-263l-63 -179h-110l250 700h109l251 -700h-111zM407 276l-97 275l-97 -275h194zM181 834l129 111l129 -111v-68l-129 81l-129 -81v68zM260 -81h100v-93h-100v93z" />
    <glyph glyph-name="uni1EA6" unicode="&#x1ea6;" horiz-adv-x="620" 
d="M441 179h-263l-63 -179h-110l250 700h109l251 -700h-111zM407 276l-97 275l-97 -275h194zM318 1019h100l54 -121h-69zM181 816l129 91l129 -91v-66l-129 68l-129 -68v66z" />
    <glyph glyph-name="uni1EA8" unicode="&#x1ea8;" horiz-adv-x="620" 
d="M441 179h-263l-63 -179h-110l250 700h109l251 -700h-111zM407 276l-97 275l-97 -275h194zM396 914q36 11 36 37q0 30 -39 30q-27 0 -62 -19l-17 55q35 19 80 19q43 0 71 -21t28 -58q0 -34 -21 -54.5t-66 -30.5zM181 816l129 91l129 -91v-66l-129 68l-129 -68v66z" />
    <glyph glyph-name="uni1EAA" unicode="&#x1eaa;" horiz-adv-x="620" 
d="M441 179h-263l-63 -179h-110l250 700h109l251 -700h-111zM407 276l-97 275l-97 -275h194zM362.5 951.5q-16.5 5.5 -44.5 17.5q-5 2 -26.5 10.5t-36.5 8.5q-16 0 -25 -9.5t-9 -26.5h-70q0 50 19 76t55 26q16 0 34 -5.5t43 -16.5q44 -19 63 -19q16 0 25 9t9 26h70
q0 -50 -19 -76t-55 -26q-16 0 -32.5 5.5zM181 816l129 91l129 -91v-66l-129 68l-129 -68v66z" />
    <glyph glyph-name="uni0200" unicode="&#x200;" horiz-adv-x="620" 
d="M441 179h-263l-63 -179h-110l250 700h109l251 -700h-111zM407 276l-97 275l-97 -275h194zM203 788l-97 151h105l63 -151h-71zM346 788l-91 151h105l57 -151h-71z" />
    <glyph glyph-name="Adieresis" unicode="&#xc4;" horiz-adv-x="620" 
d="M441 179h-263l-63 -179h-110l250 700h109l251 -700h-111zM407 276l-97 275l-97 -275h194zM167 869h90v-79h-90v79zM363 869h90v-79h-90v79z" />
    <glyph glyph-name="uni1EA0" unicode="&#x1ea0;" horiz-adv-x="620" 
d="M441 179h-263l-63 -179h-110l250 700h109l251 -700h-111zM407 276l-97 275l-97 -275h194zM260 -81h100v-93h-100v93z" />
    <glyph glyph-name="Agrave" unicode="&#xc0;" horiz-adv-x="620" 
d="M441 179h-263l-63 -179h-110l250 700h109l251 -700h-111zM407 276l-97 275l-97 -275h194zM214 820v100l191 -95v-63z" />
    <glyph glyph-name="uni1EA2" unicode="&#x1ea2;" horiz-adv-x="620" 
d="M441 179h-263l-63 -179h-110l250 700h109l251 -700h-111zM407 276l-97 275l-97 -275h194zM297 802q36 11 36 37q0 30 -39 30q-27 0 -62 -19l-17 55q36 19 80 19q43 0 71 -21t28 -58q0 -34 -21 -54.5t-66 -30.5z" />
    <glyph glyph-name="uni0202" unicode="&#x202;" horiz-adv-x="620" 
d="M441 179h-263l-63 -179h-110l250 700h109l251 -700h-111zM407 276l-97 275l-97 -275h194zM419.5 869q39.5 -36 39.5 -89h-82q0 29 -18.5 44.5t-48.5 15.5t-48.5 -15.5t-18.5 -44.5h-82q0 53 39.5 89t109.5 36t109.5 -36z" />
    <glyph glyph-name="Amacron" unicode="&#x100;" horiz-adv-x="620" 
d="M441 179h-263l-63 -179h-110l250 700h109l251 -700h-111zM407 276l-97 275l-97 -275h194zM148 865h324v-72h-324v72z" />
    <glyph glyph-name="Aogonek" unicode="&#x104;" horiz-adv-x="620" 
d="M441 179h-263l-63 -179h-110l250 700h109l251 -700h-111zM407 276l-97 275l-97 -275h194zM590 0q-38 -29 -58 -54.5t-20 -50.5q0 -24 13 -36.5t35 -12.5q30 0 62 16l16 -52q-38 -19 -85 -19q-44 0 -72.5 23t-28.5 64q0 37 24 69.5t57 52.5h57z" />
    <glyph glyph-name="Aring" unicode="&#xc5;" horiz-adv-x="620" 
d="M441 179h-263l-63 -179h-110l250 700h109l251 -700h-111zM407 276l-97 275l-97 -275h194zM233.5 783.5q-28.5 28.5 -28.5 69.5q0 40 28.5 69t76.5 29q49 0 77 -28.5t28 -69.5t-28 -69.5t-77 -28.5q-48 0 -76.5 28.5zM346 817q15 14 15 36q0 21 -15 35.5t-36 14.5
t-36 -14.5t-15 -35.5q0 -22 15 -36t36 -14t36 14z" />
    <glyph glyph-name="Aringacute" unicode="&#x1fa;" horiz-adv-x="620" 
d="M441 179h-263l-63 -179h-110l250 700h109l251 -700h-111zM407 276l-97 275l-97 -275h194zM233.5 783.5q-28.5 28.5 -28.5 69.5q0 40 28.5 69t76.5 29q49 0 77 -28.5t28 -69.5t-28 -69.5t-77 -28.5q-48 0 -76.5 28.5zM346 817q15 14 15 36q0 21 -15 35.5t-36 14.5
t-36 -14.5t-15 -35.5q0 -22 15 -36t36 -14t36 14zM215 1044l191 95v-100l-191 -58v63z" />
    <glyph glyph-name="Atilde" unicode="&#xc3;" horiz-adv-x="620" 
d="M441 179h-263l-63 -179h-110l250 700h109l251 -700h-111zM407 276l-97 275l-97 -275h194zM361 789.5q-18 5.5 -43 16.5q-44 19 -63 19q-16 0 -25 -9.5t-9 -26.5h-70q0 50 19 76.5t55 26.5q16 0 32.5 -5.5t44.5 -17.5q5 -2 26.5 -10.5t36.5 -8.5q16 0 25 9.5t9 26.5h70
q0 -50 -19 -76t-55 -26q-16 0 -34 5.5z" />
    <glyph glyph-name="AE" unicode="&#xc6;" horiz-adv-x="866" 
d="M830 102v-102h-436v175h-207l-86 -175h-110l342 700h488v-103h-306v-180h236v-102h-236v-213h315zM394 281v314l-155 -314h155z" />
    <glyph glyph-name="AEacute" unicode="&#x1fc;" horiz-adv-x="866" 
d="M830 102v-102h-436v175h-207l-86 -175h-110l342 700h488v-103h-306v-180h236v-102h-236v-213h315zM394 281v314l-155 -314h155zM482 825l191 95v-100l-191 -58v63z" />
    <glyph glyph-name="B" unicode="B" horiz-adv-x="609" 
d="M545.5 318q34.5 -46 34.5 -118q0 -93 -60 -146.5t-165 -53.5h-276v700h239q98 0 149.5 -43t51.5 -127q0 -51 -19 -89t-55 -59q66 -18 100.5 -64zM188 416h115q52 0 79 21t27 72t-27 72.5t-79 21.5h-115v-187zM432 124.5q32 26.5 32 82.5q0 111 -122 111h-154v-220h154
q58 0 90 26.5z" />
    <glyph glyph-name="C" unicode="C" horiz-adv-x="613" 
d="M209 31q-81 45 -126.5 127.5t-45.5 191.5t46.5 191.5t128 127.5t185.5 45q52 0 99.5 -11t84.5 -30l-11 -102q-91 41 -174 41q-77 0 -130.5 -34t-81 -93t-27.5 -135t27 -135t80 -93t129 -34q49 0 91 10.5t86 30.5l11 -103q-89 -40 -188 -40q-103 0 -184 45z" />
    <glyph glyph-name="Cacute" unicode="&#x106;" horiz-adv-x="613" 
d="M209 31q-81 45 -126.5 127.5t-45.5 191.5t46.5 191.5t128 127.5t185.5 45q52 0 99.5 -11t84.5 -30l-11 -102q-91 41 -174 41q-77 0 -130.5 -34t-81 -93t-27.5 -135t27 -135t80 -93t129 -34q49 0 91 10.5t86 30.5l11 -103q-89 -40 -188 -40q-103 0 -184 45zM280 825
l191 95v-100l-191 -58v63z" />
    <glyph glyph-name="Ccaron" unicode="&#x10c;" horiz-adv-x="613" 
d="M209 31q-81 45 -126.5 127.5t-45.5 191.5t46.5 191.5t128 127.5t185.5 45q52 0 99.5 -11t84.5 -30l-11 -102q-91 41 -174 41q-77 0 -130.5 -34t-81 -93t-27.5 -135t27 -135t80 -93t129 -34q49 0 91 10.5t86 30.5l11 -103q-89 -40 -188 -40q-103 0 -184 45zM375 866
l129 68v-66l-129 -91l-129 91v66z" />
    <glyph glyph-name="Ccedilla" unicode="&#xc7;" horiz-adv-x="613" 
d="M404 -14l-13 -40h6q42 0 66 -22.5t24 -61.5q0 -44 -31 -69t-78 -25q-46 0 -80 19l17 54q31 -17 64 -17q22 0 34.5 9t12.5 27q0 37 -50 37q-23 0 -47 -7l24 98q-93 8 -164.5 55t-111.5 126t-40 181q0 109 46.5 191.5t128 127.5t185.5 45q52 0 99.5 -11t84.5 -30l-11 -102
q-91 41 -174 41q-77 0 -130.5 -34t-81 -93t-27.5 -135t27 -135t80 -93t129 -34q49 0 91 10.5t86 30.5l11 -103q-83 -37 -177 -40z" />
    <glyph glyph-name="uni1E08" unicode="&#x1e08;" horiz-adv-x="613" 
d="M471 820l-191 -58v63l191 95v-100zM404 -14l-13 -40h6q42 0 66 -22.5t24 -61.5q0 -44 -31 -69t-78 -25q-46 0 -80 19l17 54q31 -17 64 -17q22 0 34.5 9t12.5 27q0 37 -50 37q-23 0 -47 -7l24 98q-93 8 -164.5 55t-111.5 126t-40 181q0 109 46.5 191.5t128 127.5t185.5 45
q52 0 99.5 -11t84.5 -30l-11 -102q-91 41 -174 41q-77 0 -130.5 -34t-81 -93t-27.5 -135t27 -135t80 -93t129 -34q49 0 91 10.5t86 30.5l11 -103q-83 -37 -177 -40z" />
    <glyph glyph-name="Ccircumflex" unicode="&#x108;" horiz-adv-x="613" 
d="M209 31q-81 45 -126.5 127.5t-45.5 191.5t46.5 191.5t128 127.5t185.5 45q52 0 99.5 -11t84.5 -30l-11 -102q-91 41 -174 41q-77 0 -130.5 -34t-81 -93t-27.5 -135t27 -135t80 -93t129 -34q49 0 91 10.5t86 30.5l11 -103q-89 -40 -188 -40q-103 0 -184 45zM246 816
l129 91l129 -91v-66l-129 68l-129 -68v66z" />
    <glyph glyph-name="Cdotaccent" unicode="&#x10a;" horiz-adv-x="613" 
d="M209 31q-81 45 -126.5 127.5t-45.5 191.5t46.5 191.5t128 127.5t185.5 45q52 0 99.5 -11t84.5 -30l-11 -102q-91 41 -174 41q-77 0 -130.5 -34t-81 -93t-27.5 -135t27 -135t80 -93t129 -34q49 0 91 10.5t86 30.5l11 -103q-89 -40 -188 -40q-103 0 -184 45zM325 885h100
v-93h-100v93z" />
    <glyph glyph-name="D" unicode="D" horiz-adv-x="724" 
d="M79 700h260q101 0 180 -42t123 -121t44 -187t-44 -187t-123 -121t-180 -42h-260v700zM339 98q110 0 168.5 67.5t58.5 184.5t-58.5 184.5t-168.5 67.5h-151v-504h151z" />
    <glyph glyph-name="uni01C4" unicode="&#x1c4;" horiz-adv-x="1254" 
d="M79 700h260q101 0 180 -42t123 -121t44 -187t-44 -187t-123 -121t-180 -42h-260v700zM339 98q110 0 168.5 67.5t58.5 184.5t-58.5 184.5t-168.5 67.5h-151v-504h151zM886 98h356v-98h-528l359 602h-314v98h488zM1003 866l129 68v-66l-129 -91l-129 91v66z" />
    <glyph glyph-name="Eth" unicode="&#xd0;" horiz-adv-x="730" 
d="M88 311h-68v89h68v300h259q100 0 178.5 -42t122.5 -121t44 -187t-44 -187t-122.5 -121t-178.5 -42h-259v311zM347 102q110 0 168 66t58 182t-58 182t-168 66h-153v-198h128v-89h-128v-209h153z" />
    <glyph glyph-name="Dcaron" unicode="&#x10e;" horiz-adv-x="724" 
d="M79 700h260q101 0 180 -42t123 -121t44 -187t-44 -187t-123 -121t-180 -42h-260v700zM339 98q110 0 168.5 67.5t58.5 184.5t-58.5 184.5t-168.5 67.5h-151v-504h151zM362 866l129 68v-66l-129 -91l-129 91v66z" />
    <glyph glyph-name="Dcroat" unicode="&#x110;" horiz-adv-x="730" 
d="M88 311h-68v89h68v300h259q100 0 178.5 -42t122.5 -121t44 -187t-44 -187t-122.5 -121t-178.5 -42h-259v311zM347 102q110 0 168 66t58 182t-58 182t-168 66h-153v-198h128v-89h-128v-209h153z" />
    <glyph glyph-name="uni1E0C" unicode="&#x1e0c;" horiz-adv-x="724" 
d="M79 700h260q101 0 180 -42t123 -121t44 -187t-44 -187t-123 -121t-180 -42h-260v700zM339 98q110 0 168.5 67.5t58.5 184.5t-58.5 184.5t-168.5 67.5h-151v-504h151zM312 -81h100v-93h-100v93z" />
    <glyph glyph-name="uni1E0E" unicode="&#x1e0e;" horiz-adv-x="724" 
d="M79 700h260q101 0 180 -42t123 -121t44 -187t-44 -187t-123 -121t-180 -42h-260v700zM339 98q110 0 168.5 67.5t58.5 184.5t-58.5 184.5t-168.5 67.5h-151v-504h151zM200 -91h324v-75h-324v75z" />
    <glyph glyph-name="uni01C5" unicode="&#x1c5;" horiz-adv-x="1189" 
d="M79 700h260q101 0 180 -42t123 -121t44 -187t-44 -187t-123 -121t-180 -42h-260v700zM339 98q110 0 168.5 67.5t58.5 184.5t-58.5 184.5t-168.5 67.5h-151v-504h151zM907 90h259v-90h-428l261 404h-242v90h411zM831 675v69l129 -81l129 81v-69l-129 -111z" />
    <glyph glyph-name="E" unicode="E" horiz-adv-x="560" 
d="M79 700h436v-102h-326v-181h256v-102h-256v-213h335v-102h-445v700z" />
    <glyph glyph-name="Eacute" unicode="&#xc9;" horiz-adv-x="560" 
d="M79 700h436v-102h-326v-181h256v-102h-256v-213h335v-102h-445v700zM212 825l191 95v-100l-191 -58v63z" />
    <glyph glyph-name="Ebreve" unicode="&#x114;" horiz-adv-x="560" 
d="M79 700h436v-102h-326v-181h256v-102h-256v-213h335v-102h-445v700zM197.5 801q-39.5 36 -39.5 89h82q0 -29 18.5 -45t48.5 -16t48.5 16t18.5 45h82q0 -53 -39.5 -89t-109.5 -36t-109.5 36z" />
    <glyph glyph-name="Ecaron" unicode="&#x11a;" horiz-adv-x="560" 
d="M79 700h436v-102h-326v-181h256v-102h-256v-213h335v-102h-445v700zM307 866l129 68v-66l-129 -91l-129 91v66z" />
    <glyph glyph-name="uni1E1C" unicode="&#x1e1c;" horiz-adv-x="560" 
d="M79 700h436v-102h-326v-181h256v-102h-256v-213h335v-102h-445v700zM393 -76.5q24 -22.5 24 -61.5q0 -44 -31 -69t-78 -25q-46 0 -80 19l17 54q31 -17 64 -17q22 0 34.5 9t12.5 27q0 37 -50 37q-23 0 -47 -7l27 110h52l-17 -54h6q42 0 66 -22.5zM197.5 801
q-39.5 36 -39.5 89h82q0 -29 18.5 -45t48.5 -16t48.5 16t18.5 45h82q0 -53 -39.5 -89t-109.5 -36t-109.5 36z" />
    <glyph glyph-name="Ecircumflex" unicode="&#xca;" horiz-adv-x="560" 
d="M79 700h436v-102h-326v-181h256v-102h-256v-213h335v-102h-445v700zM178 816l129 91l129 -91v-66l-129 68l-129 -68v66z" />
    <glyph glyph-name="uni1EBE" unicode="&#x1ebe;" horiz-adv-x="560" 
d="M79 700h436v-102h-326v-181h256v-102h-256v-213h335v-102h-445v700zM448 1019h106l-100 -121h-72zM178 816l129 91l129 -91v-66l-129 68l-129 -68v66z" />
    <glyph glyph-name="uni1EC6" unicode="&#x1ec6;" horiz-adv-x="560" 
d="M79 700h436v-102h-326v-181h256v-102h-256v-213h335v-102h-445v700zM178 816l129 91l129 -91v-66l-129 68l-129 -68v66zM259 -81h100v-93h-100v93z" />
    <glyph glyph-name="uni1EC0" unicode="&#x1ec0;" horiz-adv-x="560" 
d="M79 700h436v-102h-326v-181h256v-102h-256v-213h335v-102h-445v700zM315 1019h100l54 -121h-69zM178 816l129 91l129 -91v-66l-129 68l-129 -68v66z" />
    <glyph glyph-name="uni1EC2" unicode="&#x1ec2;" horiz-adv-x="560" 
d="M79 700h436v-102h-326v-181h256v-102h-256v-213h335v-102h-445v700zM393 914q36 11 36 37q0 30 -39 30q-27 0 -62 -19l-17 55q35 19 80 19q43 0 71 -21t28 -58q0 -34 -21 -54.5t-66 -30.5zM178 816l129 91l129 -91v-66l-129 68l-129 -68v66z" />
    <glyph glyph-name="uni1EC4" unicode="&#x1ec4;" horiz-adv-x="560" 
d="M79 700h436v-102h-326v-181h256v-102h-256v-213h335v-102h-445v700zM359.5 951.5q-16.5 5.5 -44.5 17.5q-5 2 -26.5 10.5t-36.5 8.5q-16 0 -25 -9.5t-9 -26.5h-70q0 50 19 76t55 26q16 0 34 -5.5t43 -16.5q44 -19 63 -19q16 0 25 9t9 26h70q0 -50 -19 -76t-55 -26
q-16 0 -32.5 5.5zM178 816l129 91l129 -91v-66l-129 68l-129 -68v66z" />
    <glyph glyph-name="uni0204" unicode="&#x204;" horiz-adv-x="560" 
d="M79 700h436v-102h-326v-181h256v-102h-256v-213h335v-102h-445v700zM200 788l-97 151h105l63 -151h-71zM343 788l-91 151h105l57 -151h-71z" />
    <glyph glyph-name="Edieresis" unicode="&#xcb;" horiz-adv-x="560" 
d="M79 700h436v-102h-326v-181h256v-102h-256v-213h335v-102h-445v700zM164 869h90v-79h-90v79zM360 869h90v-79h-90v79z" />
    <glyph glyph-name="Edotaccent" unicode="&#x116;" horiz-adv-x="560" 
d="M79 700h436v-102h-326v-181h256v-102h-256v-213h335v-102h-445v700zM257 885h100v-93h-100v93z" />
    <glyph glyph-name="uni1EB8" unicode="&#x1eb8;" horiz-adv-x="560" 
d="M79 700h436v-102h-326v-181h256v-102h-256v-213h335v-102h-445v700zM259 -81h100v-93h-100v93z" />
    <glyph glyph-name="Egrave" unicode="&#xc8;" horiz-adv-x="560" 
d="M79 700h436v-102h-326v-181h256v-102h-256v-213h335v-102h-445v700zM211 820v100l191 -95v-63z" />
    <glyph glyph-name="uni1EBA" unicode="&#x1eba;" horiz-adv-x="560" 
d="M79 700h436v-102h-326v-181h256v-102h-256v-213h335v-102h-445v700zM294 802q36 11 36 37q0 30 -39 30q-27 0 -62 -19l-17 55q36 19 80 19q43 0 71 -21t28 -58q0 -34 -21 -54.5t-66 -30.5z" />
    <glyph glyph-name="uni0206" unicode="&#x206;" horiz-adv-x="560" 
d="M79 700h436v-102h-326v-181h256v-102h-256v-213h335v-102h-445v700zM416.5 869q39.5 -36 39.5 -89h-82q0 29 -18.5 44.5t-48.5 15.5t-48.5 -15.5t-18.5 -44.5h-82q0 53 39.5 89t109.5 36t109.5 -36z" />
    <glyph glyph-name="Emacron" unicode="&#x112;" horiz-adv-x="560" 
d="M79 700h436v-102h-326v-181h256v-102h-256v-213h335v-102h-445v700zM145 865h324v-72h-324v72z" />
    <glyph glyph-name="uni1E16" unicode="&#x1e16;" horiz-adv-x="560" 
d="M79 700h436v-102h-326v-181h256v-102h-256v-213h335v-102h-445v700zM145 865h324v-72h-324v72zM212 997l191 95v-100l-191 -58v63z" />
    <glyph glyph-name="uni1E14" unicode="&#x1e14;" horiz-adv-x="560" 
d="M79 700h436v-102h-326v-181h256v-102h-256v-213h335v-102h-445v700zM145 865h324v-72h-324v72zM211 992v100l191 -95v-63z" />
    <glyph glyph-name="Eogonek" unicode="&#x118;" horiz-adv-x="560" 
d="M79 700h436v-102h-326v-181h256v-102h-256v-213h335v-102h-445v700zM524 0q-38 -29 -58 -54.5t-20 -50.5q0 -24 13 -36.5t35 -12.5q30 0 62 16l16 -52q-38 -19 -85 -19q-44 0 -72.5 23t-28.5 64q0 37 24 69.5t57 52.5h57z" />
    <glyph glyph-name="uni1EBC" unicode="&#x1ebc;" horiz-adv-x="560" 
d="M79 700h436v-102h-326v-181h256v-102h-256v-213h335v-102h-445v700zM358 789.5q-18 5.5 -43 16.5q-44 19 -63 19q-16 0 -25 -9.5t-9 -26.5h-70q0 50 19 76.5t55 26.5q16 0 32.5 -5.5t44.5 -17.5q5 -2 26.5 -10.5t36.5 -8.5q16 0 25 9.5t9 26.5h70q0 -50 -19 -76t-55 -26
q-16 0 -34 5.5z" />
    <glyph glyph-name="F" unicode="F" horiz-adv-x="524" 
d="M79 700h428v-102h-319v-181h246v-102h-246v-315h-109v700z" />
    <glyph glyph-name="G" unicode="G" horiz-adv-x="669" 
d="M204 31q-79 45 -123 128t-44 192q0 108 46.5 190.5t129.5 127.5t188 45q53 0 104.5 -11t90.5 -29l-11 -100q-92 38 -182 38q-122 0 -184 -72t-62 -189q0 -120 62.5 -191.5t182.5 -71.5q60 0 108 15v154h-104v94h213v-312q-41 -24 -102.5 -38.5t-131.5 -14.5
q-102 0 -181 45z" />
    <glyph glyph-name="Gbreve" unicode="&#x11e;" horiz-adv-x="669" 
d="M204 31q-79 45 -123 128t-44 192q0 108 46.5 190.5t129.5 127.5t188 45q53 0 104.5 -11t90.5 -29l-11 -100q-92 38 -182 38q-122 0 -184 -72t-62 -189q0 -120 62.5 -191.5t182.5 -71.5q60 0 108 15v154h-104v94h213v-312q-41 -24 -102.5 -38.5t-131.5 -14.5
q-102 0 -181 45zM292.5 801q-39.5 36 -39.5 89h82q0 -29 18.5 -45t48.5 -16t48.5 16t18.5 45h82q0 -53 -39.5 -89t-109.5 -36t-109.5 36z" />
    <glyph glyph-name="Gcaron" unicode="&#x1e6;" horiz-adv-x="669" 
d="M204 31q-79 45 -123 128t-44 192q0 108 46.5 190.5t129.5 127.5t188 45q53 0 104.5 -11t90.5 -29l-11 -100q-92 38 -182 38q-122 0 -184 -72t-62 -189q0 -120 62.5 -191.5t182.5 -71.5q60 0 108 15v154h-104v94h213v-312q-41 -24 -102.5 -38.5t-131.5 -14.5
q-102 0 -181 45zM402 866l129 68v-66l-129 -91l-129 91v66z" />
    <glyph glyph-name="Gcircumflex" unicode="&#x11c;" horiz-adv-x="669" 
d="M204 31q-79 45 -123 128t-44 192q0 108 46.5 190.5t129.5 127.5t188 45q53 0 104.5 -11t90.5 -29l-11 -100q-92 38 -182 38q-122 0 -184 -72t-62 -189q0 -120 62.5 -191.5t182.5 -71.5q60 0 108 15v154h-104v94h213v-312q-41 -24 -102.5 -38.5t-131.5 -14.5
q-102 0 -181 45zM273 816l129 91l129 -91v-66l-129 68l-129 -68v66z" />
    <glyph glyph-name="Gcommaaccent" unicode="&#x122;" horiz-adv-x="669" 
d="M204 31q-79 45 -123 128t-44 192q0 108 46.5 190.5t129.5 127.5t188 45q53 0 104.5 -11t90.5 -29l-11 -100q-92 38 -182 38q-122 0 -184 -72t-62 -189q0 -120 62.5 -191.5t182.5 -71.5q60 0 108 15v154h-104v94h213v-312q-41 -24 -102.5 -38.5t-131.5 -14.5
q-102 0 -181 45zM341 -308l37 108h-40v109h114v-98l-56 -119h-55z" />
    <glyph glyph-name="Gdotaccent" unicode="&#x120;" horiz-adv-x="669" 
d="M204 31q-79 45 -123 128t-44 192q0 108 46.5 190.5t129.5 127.5t188 45q53 0 104.5 -11t90.5 -29l-11 -100q-92 38 -182 38q-122 0 -184 -72t-62 -189q0 -120 62.5 -191.5t182.5 -71.5q60 0 108 15v154h-104v94h213v-312q-41 -24 -102.5 -38.5t-131.5 -14.5
q-102 0 -181 45zM352 885h100v-93h-100v93z" />
    <glyph glyph-name="uni1E20" unicode="&#x1e20;" horiz-adv-x="669" 
d="M204 31q-79 45 -123 128t-44 192q0 108 46.5 190.5t129.5 127.5t188 45q53 0 104.5 -11t90.5 -29l-11 -100q-92 38 -182 38q-122 0 -184 -72t-62 -189q0 -120 62.5 -191.5t182.5 -71.5q60 0 108 15v154h-104v94h213v-312q-41 -24 -102.5 -38.5t-131.5 -14.5
q-102 0 -181 45zM240 865h324v-72h-324v72z" />
    <glyph glyph-name="H" unicode="H" horiz-adv-x="716" 
d="M79 700h109v-284h340v284h109v-700h-109v313h-340v-313h-109v700z" />
    <glyph glyph-name="Hbar" unicode="&#x126;" horiz-adv-x="743" 
d="M733 494h-68v-494h-109v313h-368v-313h-109v494h-68v77h68v129h109v-129h368v129h109v-129h68v-77zM556 494h-368v-76h368v76z" />
    <glyph glyph-name="uni1E2A" unicode="&#x1e2a;" horiz-adv-x="716" 
d="M79 700h109v-284h340v284h109v-700h-109v313h-340v-313h-109v700zM248.5 -185q-39.5 38 -39.5 94h82q0 -30 18.5 -46.5t48.5 -16.5t48.5 16.5t18.5 46.5h82q0 -56 -39.5 -94t-109.5 -38t-109.5 38z" />
    <glyph glyph-name="Hcircumflex" unicode="&#x124;" horiz-adv-x="716" 
d="M79 700h109v-284h340v284h109v-700h-109v313h-340v-313h-109v700zM229 816l129 91l129 -91v-66l-129 68l-129 -68v66z" />
    <glyph glyph-name="uni1E24" unicode="&#x1e24;" horiz-adv-x="716" 
d="M79 700h109v-284h340v284h109v-700h-109v313h-340v-313h-109v700zM308 -81h100v-93h-100v93z" />
    <glyph glyph-name="I" unicode="I" horiz-adv-x="266" 
d="M79 700h109v-700h-109v700z" />
    <glyph glyph-name="IJ" unicode="&#x132;" horiz-adv-x="690" 
d="M71 700h109v-373h-109v373zM231 128.5q37 -40.5 114 -40.5q96 0 130.5 63t34.5 176v373h109v-402q0 -147 -69 -229.5t-205 -82.5q-118 0 -186 63t-83 177l109 16q9 -73 46 -113.5z" />
    <glyph glyph-name="Iacute" unicode="&#xcd;" horiz-adv-x="266" 
d="M79 700h109v-700h-109v700zM39 825l191 95v-100l-191 -58v63z" />
    <glyph glyph-name="Ibreve" unicode="&#x12c;" horiz-adv-x="266" 
d="M79 700h109v-700h-109v700zM24.5 801q-39.5 36 -39.5 89h82q0 -29 18.5 -45t48.5 -16t48.5 16t18.5 45h82q0 -53 -39.5 -89t-109.5 -36t-109.5 36z" />
    <glyph glyph-name="Icircumflex" unicode="&#xce;" horiz-adv-x="266" 
d="M79 700h109v-700h-109v700zM5 816l129 91l129 -91v-66l-129 68l-129 -68v66z" />
    <glyph glyph-name="uni0208" unicode="&#x208;" horiz-adv-x="266" 
d="M79 700h109v-700h-109v700zM27 788l-97 151h105l63 -151h-71zM170 788l-91 151h105l57 -151h-71z" />
    <glyph glyph-name="Idieresis" unicode="&#xcf;" horiz-adv-x="266" 
d="M79 700h109v-700h-109v700zM-9 869h90v-79h-90v79zM187 869h90v-79h-90v79z" />
    <glyph glyph-name="uni1E2E" unicode="&#x1e2e;" horiz-adv-x="266" 
d="M79 700h109v-700h-109v700zM-9 869h90v-79h-90v79zM187 869h90v-79h-90v79zM39 981l191 95v-100l-191 -58v63z" />
    <glyph glyph-name="Idotaccent" unicode="&#x130;" horiz-adv-x="266" 
d="M79 700h109v-700h-109v700zM84 885h100v-93h-100v93z" />
    <glyph glyph-name="uni1ECA" unicode="&#x1eca;" horiz-adv-x="266" 
d="M79 700h109v-700h-109v700zM84 -81h100v-93h-100v93z" />
    <glyph glyph-name="Igrave" unicode="&#xcc;" horiz-adv-x="266" 
d="M79 700h109v-700h-109v700zM38 820v100l191 -95v-63z" />
    <glyph glyph-name="uni1EC8" unicode="&#x1ec8;" horiz-adv-x="266" 
d="M79 700h109v-700h-109v700zM121 802q36 11 36 37q0 30 -39 30q-27 0 -62 -19l-17 55q36 19 80 19q43 0 71 -21t28 -58q0 -34 -21 -54.5t-66 -30.5z" />
    <glyph glyph-name="uni020A" unicode="&#x20a;" horiz-adv-x="266" 
d="M79 700h109v-700h-109v700zM243.5 869q39.5 -36 39.5 -89h-82q0 29 -18.5 44.5t-48.5 15.5t-48.5 -15.5t-18.5 -44.5h-82q0 53 39.5 89t109.5 36t109.5 -36z" />
    <glyph glyph-name="Imacron" unicode="&#x12a;" horiz-adv-x="266" 
d="M79 700h109v-700h-109v700zM-28 865h324v-72h-324v72z" />
    <glyph glyph-name="Iogonek" unicode="&#x12e;" horiz-adv-x="266" 
d="M79 700h109v-700h-109v700zM188 0q-38 -29 -58 -54.5t-20 -50.5q0 -24 13 -36.5t35 -12.5q30 0 62 16l16 -52q-38 -19 -85 -19q-44 0 -72.5 23t-28.5 64q0 37 24 69.5t57 52.5h57z" />
    <glyph glyph-name="Itilde" unicode="&#x128;" horiz-adv-x="266" 
d="M79 700h109v-700h-109v700zM185 789.5q-18 5.5 -43 16.5q-44 19 -63 19q-16 0 -25 -9.5t-9 -26.5h-70q0 50 19 76.5t55 26.5q16 0 32.5 -5.5t44.5 -17.5q5 -2 26.5 -10.5t36.5 -8.5q16 0 25 9.5t9 26.5h70q0 -50 -19 -76t-55 -26q-16 0 -34 5.5z" />
    <glyph glyph-name="J" unicode="J" horiz-adv-x="266" 
d="M-13 -78q49 0 70.5 21.5t21.5 71.5v685h109v-710q0 -84 -40 -123t-119 -39h-30z" />
    <glyph glyph-name="Jcircumflex" unicode="&#x134;" horiz-adv-x="266" 
d="M-13 -78q49 0 70.5 21.5t21.5 71.5v685h109v-710q0 -84 -40 -123t-119 -39h-30zM5 816l129 91l129 -91v-66l-129 68l-129 -68v66z" />
    <glyph glyph-name="K" unicode="K" horiz-adv-x="592" 
d="M79 700h109v-700h-109v700zM198 371l259 329h130l-264 -328l265 -372h-131z" />
    <glyph glyph-name="Kcommaaccent" unicode="&#x136;" horiz-adv-x="592" 
d="M79 700h109v-700h-109v700zM198 371l259 329h130l-264 -328l265 -372h-131zM278 -308l37 108h-40v109h114v-98l-56 -119h-55z" />
    <glyph glyph-name="L" unicode="L" horiz-adv-x="501" 
d="M79 700h109v-602h307v-98h-416v700z" />
    <glyph glyph-name="uni01C7" unicode="&#x1c7;" horiz-adv-x="767" 
d="M79 700h109v-602h307v-98h-416v700zM488 -78q49 0 70.5 21.5t21.5 71.5v685h109v-710q0 -84 -40 -123t-119 -39h-30z" />
    <glyph glyph-name="Lacute" unicode="&#x139;" horiz-adv-x="501" 
d="M79 700h109v-602h307v-98h-416v700zM39 825l191 95v-100l-191 -58v63z" />
    <glyph glyph-name="Lcaron" unicode="&#x13d;" horiz-adv-x="501" 
d="M79 700h109v-602h307v-98h-416v700zM399 700h96l-28 -171h-68v171z" />
    <glyph glyph-name="Lcommaaccent" unicode="&#x13b;" horiz-adv-x="501" 
d="M79 700h109v-602h307v-98h-416v700zM234 -308l37 108h-40v109h114v-98l-56 -119h-55z" />
    <glyph glyph-name="Ldot" unicode="&#x13f;" horiz-adv-x="501" 
d="M79 700h109v-602h307v-98h-416v700zM328 444h112v-114h-112v114z" />
    <glyph glyph-name="uni1E36" unicode="&#x1e36;" horiz-adv-x="501" 
d="M79 700h109v-602h307v-98h-416v700zM237 -81h100v-93h-100v93z" />
    <glyph glyph-name="uni01C8" unicode="&#x1c8;" horiz-adv-x="725" 
d="M79 700h109v-602h307v-98h-416v700zM561 700h104v-110h-104v110zM493 -159q28 2 42 9.5t20 26.5t6 56v561h104v-603q0 -122 -128 -130l-33 -3z" />
    <glyph glyph-name="uni1E3A" unicode="&#x1e3a;" horiz-adv-x="501" 
d="M79 700h109v-602h307v-98h-416v700zM125 -91h324v-75h-324v75z" />
    <glyph glyph-name="Lslash" unicode="&#x141;" horiz-adv-x="501" 
d="M495 102v-102h-416v376l-68 -18v81l68 18v243h109v-214l208 55v-81l-208 -55v-303h307z" />
    <glyph glyph-name="M" unicode="M" horiz-adv-x="821" 
d="M661 0l-64 503l-185 -345l-188 344l-64 -502h-114l96 700h91l178 -335l177 335h92l95 -700h-114z" />
    <glyph glyph-name="uni1E42" unicode="&#x1e42;" horiz-adv-x="821" 
d="M661 0l-64 503l-185 -345l-188 344l-64 -502h-114l96 700h91l178 -335l177 335h92l95 -700h-114zM361 -81h100v-93h-100v93z" />
    <glyph glyph-name="N" unicode="N" horiz-adv-x="705" 
d="M79 700h112l326 -493v493h110v-700h-92l-347 522v-522h-109v700z" />
    <glyph glyph-name="uni01CA" unicode="&#x1ca;" horiz-adv-x="971" 
d="M79 700h112l326 -493v493h110v-700h-92l-347 522v-522h-109v700zM692 -78q49 0 70.5 21.5t21.5 71.5v685h109v-710q0 -84 -40 -123t-119 -39h-30z" />
    <glyph glyph-name="Nacute" unicode="&#x143;" horiz-adv-x="705" 
d="M79 700h112l326 -493v493h110v-700h-92l-347 522v-522h-109v700zM260 825l191 95v-100l-191 -58v63z" />
    <glyph glyph-name="Ncaron" unicode="&#x147;" horiz-adv-x="705" 
d="M79 700h112l326 -493v493h110v-700h-92l-347 522v-522h-109v700zM355 866l129 68v-66l-129 -91l-129 91v66z" />
    <glyph glyph-name="Ncommaaccent" unicode="&#x145;" horiz-adv-x="705" 
d="M79 700h112l326 -493v493h110v-700h-92l-347 522v-522h-109v700zM309 -308l37 108h-40v109h114v-98l-56 -119h-55z" />
    <glyph glyph-name="uni1E44" unicode="&#x1e44;" horiz-adv-x="705" 
d="M79 700h112l326 -493v493h110v-700h-92l-347 522v-522h-109v700zM305 885h100v-93h-100v93z" />
    <glyph glyph-name="uni1E46" unicode="&#x1e46;" horiz-adv-x="705" 
d="M79 700h112l326 -493v493h110v-700h-92l-347 522v-522h-109v700zM312 -81h100v-93h-100v93z" />
    <glyph glyph-name="Eng" unicode="&#x14a;" horiz-adv-x="714" 
d="M581 -131.5q-66 -61.5 -176 -61.5q-42 0 -83 11l13 98q38 -8 74 -8q60 0 94.5 34t34.5 99v387q0 89 -44 136.5t-129 47.5q-59 0 -104 -19t-73 -53v-540h-109v700h93l6 -67q40 39 95 60t117 21q126 0 191.5 -73t65.5 -199v-392q0 -120 -66 -181.5z" />
    <glyph glyph-name="uni01CB" unicode="&#x1cb;" horiz-adv-x="920" 
d="M79 700h112l326 -493v493h110v-700h-92l-347 522v-522h-109v700zM756 700h104v-110h-104v110zM688 -159q28 2 42 9.5t20 26.5t6 56v561h104v-603q0 -122 -128 -130l-33 -3z" />
    <glyph glyph-name="uni1E48" unicode="&#x1e48;" horiz-adv-x="705" 
d="M79 700h112l326 -493v493h110v-700h-92l-347 522v-522h-109v700zM200 -91h324v-75h-324v75z" />
    <glyph glyph-name="Ntilde" unicode="&#xd1;" horiz-adv-x="705" 
d="M79 700h112l326 -493v493h110v-700h-92l-347 522v-522h-109v700zM406 789.5q-18 5.5 -43 16.5q-44 19 -63 19q-16 0 -25 -9.5t-9 -26.5h-70q0 50 19 76.5t55 26.5q16 0 32.5 -5.5t44.5 -17.5q5 -2 26.5 -10.5t36.5 -8.5q16 0 25 9.5t9 26.5h70q0 -50 -19 -76t-55 -26
q-16 0 -34 5.5z" />
    <glyph glyph-name="O" unicode="O" horiz-adv-x="766" 
d="M205 31q-78 45 -122.5 127.5t-44.5 191.5t44.5 191.5t122.5 127.5t178 45t178 -45t122.5 -127.5t44.5 -191.5t-44.5 -191.5t-122.5 -127.5t-178 -45t-178 45zM508.5 125.5q51.5 33.5 77.5 92t26 132.5t-26 132.5t-77.5 92t-125.5 33.5t-125.5 -33.5t-78 -92t-26.5 -132.5
t26.5 -132.5t78 -92t125.5 -33.5t125.5 33.5z" />
    <glyph glyph-name="Oacute" unicode="&#xd3;" horiz-adv-x="766" 
d="M205 31q-78 45 -122.5 127.5t-44.5 191.5t44.5 191.5t122.5 127.5t178 45t178 -45t122.5 -127.5t44.5 -191.5t-44.5 -191.5t-122.5 -127.5t-178 -45t-178 45zM508.5 125.5q51.5 33.5 77.5 92t26 132.5t-26 132.5t-77.5 92t-125.5 33.5t-125.5 -33.5t-78 -92t-26.5 -132.5
t26.5 -132.5t78 -92t125.5 -33.5t125.5 33.5zM288 825l191 95v-100l-191 -58v63z" />
    <glyph glyph-name="Obreve" unicode="&#x14e;" horiz-adv-x="766" 
d="M205 31q-78 45 -122.5 127.5t-44.5 191.5t44.5 191.5t122.5 127.5t178 45t178 -45t122.5 -127.5t44.5 -191.5t-44.5 -191.5t-122.5 -127.5t-178 -45t-178 45zM508.5 125.5q51.5 33.5 77.5 92t26 132.5t-26 132.5t-77.5 92t-125.5 33.5t-125.5 -33.5t-78 -92t-26.5 -132.5
t26.5 -132.5t78 -92t125.5 -33.5t125.5 33.5zM273.5 801q-39.5 36 -39.5 89h82q0 -29 18.5 -45t48.5 -16t48.5 16t18.5 45h82q0 -53 -39.5 -89t-109.5 -36t-109.5 36z" />
    <glyph glyph-name="Ocircumflex" unicode="&#xd4;" horiz-adv-x="766" 
d="M205 31q-78 45 -122.5 127.5t-44.5 191.5t44.5 191.5t122.5 127.5t178 45t178 -45t122.5 -127.5t44.5 -191.5t-44.5 -191.5t-122.5 -127.5t-178 -45t-178 45zM508.5 125.5q51.5 33.5 77.5 92t26 132.5t-26 132.5t-77.5 92t-125.5 33.5t-125.5 -33.5t-78 -92t-26.5 -132.5
t26.5 -132.5t78 -92t125.5 -33.5t125.5 33.5zM254 816l129 91l129 -91v-66l-129 68l-129 -68v66z" />
    <glyph glyph-name="uni1ED0" unicode="&#x1ed0;" horiz-adv-x="766" 
d="M205 31q-78 45 -122.5 127.5t-44.5 191.5t44.5 191.5t122.5 127.5t178 45t178 -45t122.5 -127.5t44.5 -191.5t-44.5 -191.5t-122.5 -127.5t-178 -45t-178 45zM508.5 125.5q51.5 33.5 77.5 92t26 132.5t-26 132.5t-77.5 92t-125.5 33.5t-125.5 -33.5t-78 -92t-26.5 -132.5
t26.5 -132.5t78 -92t125.5 -33.5t125.5 33.5zM524 1019h106l-100 -121h-72zM254 816l129 91l129 -91v-66l-129 68l-129 -68v66z" />
    <glyph glyph-name="uni1ED8" unicode="&#x1ed8;" horiz-adv-x="766" 
d="M205 31q-78 45 -122.5 127.5t-44.5 191.5t44.5 191.5t122.5 127.5t178 45t178 -45t122.5 -127.5t44.5 -191.5t-44.5 -191.5t-122.5 -127.5t-178 -45t-178 45zM508.5 125.5q51.5 33.5 77.5 92t26 132.5t-26 132.5t-77.5 92t-125.5 33.5t-125.5 -33.5t-78 -92t-26.5 -132.5
t26.5 -132.5t78 -92t125.5 -33.5t125.5 33.5zM254 834l129 111l129 -111v-68l-129 81l-129 -81v68zM333 -81h100v-93h-100v93z" />
    <glyph glyph-name="uni1ED2" unicode="&#x1ed2;" horiz-adv-x="766" 
d="M205 31q-78 45 -122.5 127.5t-44.5 191.5t44.5 191.5t122.5 127.5t178 45t178 -45t122.5 -127.5t44.5 -191.5t-44.5 -191.5t-122.5 -127.5t-178 -45t-178 45zM508.5 125.5q51.5 33.5 77.5 92t26 132.5t-26 132.5t-77.5 92t-125.5 33.5t-125.5 -33.5t-78 -92t-26.5 -132.5
t26.5 -132.5t78 -92t125.5 -33.5t125.5 33.5zM391 1019h100l54 -121h-69zM254 816l129 91l129 -91v-66l-129 68l-129 -68v66z" />
    <glyph glyph-name="uni1ED4" unicode="&#x1ed4;" horiz-adv-x="766" 
d="M205 31q-78 45 -122.5 127.5t-44.5 191.5t44.5 191.5t122.5 127.5t178 45t178 -45t122.5 -127.5t44.5 -191.5t-44.5 -191.5t-122.5 -127.5t-178 -45t-178 45zM508.5 125.5q51.5 33.5 77.5 92t26 132.5t-26 132.5t-77.5 92t-125.5 33.5t-125.5 -33.5t-78 -92t-26.5 -132.5
t26.5 -132.5t78 -92t125.5 -33.5t125.5 33.5zM469 914q36 11 36 37q0 30 -39 30q-27 0 -62 -19l-17 55q35 19 80 19q43 0 71 -21t28 -58q0 -34 -21 -54.5t-66 -30.5zM254 816l129 91l129 -91v-66l-129 68l-129 -68v66z" />
    <glyph glyph-name="uni1ED6" unicode="&#x1ed6;" horiz-adv-x="766" 
d="M205 31q-78 45 -122.5 127.5t-44.5 191.5t44.5 191.5t122.5 127.5t178 45t178 -45t122.5 -127.5t44.5 -191.5t-44.5 -191.5t-122.5 -127.5t-178 -45t-178 45zM508.5 125.5q51.5 33.5 77.5 92t26 132.5t-26 132.5t-77.5 92t-125.5 33.5t-125.5 -33.5t-78 -92t-26.5 -132.5
t26.5 -132.5t78 -92t125.5 -33.5t125.5 33.5zM435.5 951.5q-16.5 5.5 -44.5 17.5q-5 2 -26.5 10.5t-36.5 8.5q-16 0 -25 -9.5t-9 -26.5h-70q0 50 19 76t55 26q16 0 34 -5.5t43 -16.5q44 -19 63 -19q16 0 25 9t9 26h70q0 -50 -19 -76t-55 -26q-16 0 -32.5 5.5zM254 816
l129 91l129 -91v-66l-129 68l-129 -68v66z" />
    <glyph glyph-name="uni020C" unicode="&#x20c;" horiz-adv-x="766" 
d="M205 31q-78 45 -122.5 127.5t-44.5 191.5t44.5 191.5t122.5 127.5t178 45t178 -45t122.5 -127.5t44.5 -191.5t-44.5 -191.5t-122.5 -127.5t-178 -45t-178 45zM508.5 125.5q51.5 33.5 77.5 92t26 132.5t-26 132.5t-77.5 92t-125.5 33.5t-125.5 -33.5t-78 -92t-26.5 -132.5
t26.5 -132.5t78 -92t125.5 -33.5t125.5 33.5zM276 788l-97 151h105l63 -151h-71zM419 788l-91 151h105l57 -151h-71z" />
    <glyph glyph-name="Odieresis" unicode="&#xd6;" horiz-adv-x="766" 
d="M205 31q-78 45 -122.5 127.5t-44.5 191.5t44.5 191.5t122.5 127.5t178 45t178 -45t122.5 -127.5t44.5 -191.5t-44.5 -191.5t-122.5 -127.5t-178 -45t-178 45zM508.5 125.5q51.5 33.5 77.5 92t26 132.5t-26 132.5t-77.5 92t-125.5 33.5t-125.5 -33.5t-78 -92t-26.5 -132.5
t26.5 -132.5t78 -92t125.5 -33.5t125.5 33.5zM240 869h90v-79h-90v79zM436 869h90v-79h-90v79z" />
    <glyph glyph-name="uni022A" unicode="&#x22a;" horiz-adv-x="766" 
d="M205 31q-78 45 -122.5 127.5t-44.5 191.5t44.5 191.5t122.5 127.5t178 45t178 -45t122.5 -127.5t44.5 -191.5t-44.5 -191.5t-122.5 -127.5t-178 -45t-178 45zM508.5 125.5q51.5 33.5 77.5 92t26 132.5t-26 132.5t-77.5 92t-125.5 33.5t-125.5 -33.5t-78 -92t-26.5 -132.5
t26.5 -132.5t78 -92t125.5 -33.5t125.5 33.5zM240 869h90v-79h-90v79zM436 869h90v-79h-90v79zM221 1021h324v-72h-324v72z" />
    <glyph glyph-name="uni0230" unicode="&#x230;" horiz-adv-x="766" 
d="M205 31q-78 45 -122.5 127.5t-44.5 191.5t44.5 191.5t122.5 127.5t178 45t178 -45t122.5 -127.5t44.5 -191.5t-44.5 -191.5t-122.5 -127.5t-178 -45t-178 45zM508.5 125.5q51.5 33.5 77.5 92t26 132.5t-26 132.5t-77.5 92t-125.5 33.5t-125.5 -33.5t-78 -92t-26.5 -132.5
t26.5 -132.5t78 -92t125.5 -33.5t125.5 33.5zM333 885h100v-93h-100v93zM221 1037h324v-72h-324v72z" />
    <glyph glyph-name="uni1ECC" unicode="&#x1ecc;" horiz-adv-x="766" 
d="M205 31q-78 45 -122.5 127.5t-44.5 191.5t44.5 191.5t122.5 127.5t178 45t178 -45t122.5 -127.5t44.5 -191.5t-44.5 -191.5t-122.5 -127.5t-178 -45t-178 45zM508.5 125.5q51.5 33.5 77.5 92t26 132.5t-26 132.5t-77.5 92t-125.5 33.5t-125.5 -33.5t-78 -92t-26.5 -132.5
t26.5 -132.5t78 -92t125.5 -33.5t125.5 33.5zM333 -81h100v-93h-100v93z" />
    <glyph glyph-name="Ograve" unicode="&#xd2;" horiz-adv-x="766" 
d="M205 31q-78 45 -122.5 127.5t-44.5 191.5t44.5 191.5t122.5 127.5t178 45t178 -45t122.5 -127.5t44.5 -191.5t-44.5 -191.5t-122.5 -127.5t-178 -45t-178 45zM508.5 125.5q51.5 33.5 77.5 92t26 132.5t-26 132.5t-77.5 92t-125.5 33.5t-125.5 -33.5t-78 -92t-26.5 -132.5
t26.5 -132.5t78 -92t125.5 -33.5t125.5 33.5zM287 820v100l191 -95v-63z" />
    <glyph glyph-name="uni1ECE" unicode="&#x1ece;" horiz-adv-x="766" 
d="M205 31q-78 45 -122.5 127.5t-44.5 191.5t44.5 191.5t122.5 127.5t178 45t178 -45t122.5 -127.5t44.5 -191.5t-44.5 -191.5t-122.5 -127.5t-178 -45t-178 45zM508.5 125.5q51.5 33.5 77.5 92t26 132.5t-26 132.5t-77.5 92t-125.5 33.5t-125.5 -33.5t-78 -92t-26.5 -132.5
t26.5 -132.5t78 -92t125.5 -33.5t125.5 33.5zM370 802q36 11 36 37q0 30 -39 30q-27 0 -62 -19l-17 55q36 19 80 19q43 0 71 -21t28 -58q0 -34 -21 -54.5t-66 -30.5z" />
    <glyph glyph-name="Ohorn" unicode="&#x1a0;" horiz-adv-x="766" 
d="M690 528.5q38 -78.5 38 -178.5q0 -109 -44.5 -191.5t-122.5 -127.5t-178 -45t-178 45t-122.5 127.5t-44.5 191.5t44.5 191.5t122.5 127.5t178 45q53 0 104 -14q74 3 74 74h94q0 -37 -19 -68t-52 -52q68 -47 106 -125.5zM508.5 125.5q51.5 33.5 77.5 92t26 132.5
t-26 132.5t-77.5 92t-125.5 33.5t-125.5 -33.5t-78 -92t-26.5 -132.5t26.5 -132.5t78 -92t125.5 -33.5t125.5 33.5z" />
    <glyph glyph-name="uni1EDA" unicode="&#x1eda;" horiz-adv-x="766" 
d="M690 528.5q38 -78.5 38 -178.5q0 -109 -44.5 -191.5t-122.5 -127.5t-178 -45t-178 45t-122.5 127.5t-44.5 191.5t44.5 191.5t122.5 127.5t178 45q53 0 104 -14q74 3 74 74h94q0 -37 -19 -68t-52 -52q68 -47 106 -125.5zM508.5 125.5q51.5 33.5 77.5 92t26 132.5
t-26 132.5t-77.5 92t-125.5 33.5t-125.5 -33.5t-78 -92t-26.5 -132.5t26.5 -132.5t78 -92t125.5 -33.5t125.5 33.5zM288 825l191 95v-100l-191 -58v63z" />
    <glyph glyph-name="uni1EE2" unicode="&#x1ee2;" horiz-adv-x="766" 
d="M690 528.5q38 -78.5 38 -178.5q0 -109 -44.5 -191.5t-122.5 -127.5t-178 -45t-178 45t-122.5 127.5t-44.5 191.5t44.5 191.5t122.5 127.5t178 45q53 0 104 -14q74 3 74 74h94q0 -37 -19 -68t-52 -52q68 -47 106 -125.5zM508.5 125.5q51.5 33.5 77.5 92t26 132.5
t-26 132.5t-77.5 92t-125.5 33.5t-125.5 -33.5t-78 -92t-26.5 -132.5t26.5 -132.5t78 -92t125.5 -33.5t125.5 33.5zM333 -81h100v-93h-100v93z" />
    <glyph glyph-name="uni1EDC" unicode="&#x1edc;" horiz-adv-x="766" 
d="M690 528.5q38 -78.5 38 -178.5q0 -109 -44.5 -191.5t-122.5 -127.5t-178 -45t-178 45t-122.5 127.5t-44.5 191.5t44.5 191.5t122.5 127.5t178 45q53 0 104 -14q74 3 74 74h94q0 -37 -19 -68t-52 -52q68 -47 106 -125.5zM508.5 125.5q51.5 33.5 77.5 92t26 132.5
t-26 132.5t-77.5 92t-125.5 33.5t-125.5 -33.5t-78 -92t-26.5 -132.5t26.5 -132.5t78 -92t125.5 -33.5t125.5 33.5zM287 820v100l191 -95v-63z" />
    <glyph glyph-name="uni1EDE" unicode="&#x1ede;" horiz-adv-x="766" 
d="M690 528.5q38 -78.5 38 -178.5q0 -109 -44.5 -191.5t-122.5 -127.5t-178 -45t-178 45t-122.5 127.5t-44.5 191.5t44.5 191.5t122.5 127.5t178 45q53 0 104 -14q74 3 74 74h94q0 -37 -19 -68t-52 -52q68 -47 106 -125.5zM508.5 125.5q51.5 33.5 77.5 92t26 132.5
t-26 132.5t-77.5 92t-125.5 33.5t-125.5 -33.5t-78 -92t-26.5 -132.5t26.5 -132.5t78 -92t125.5 -33.5t125.5 33.5zM370 802q36 11 36 37q0 30 -39 30q-27 0 -62 -19l-17 55q36 19 80 19q43 0 71 -21t28 -58q0 -34 -21 -54.5t-66 -30.5z" />
    <glyph glyph-name="uni1EE0" unicode="&#x1ee0;" horiz-adv-x="766" 
d="M690 528.5q38 -78.5 38 -178.5q0 -109 -44.5 -191.5t-122.5 -127.5t-178 -45t-178 45t-122.5 127.5t-44.5 191.5t44.5 191.5t122.5 127.5t178 45q53 0 104 -14q74 3 74 74h94q0 -37 -19 -68t-52 -52q68 -47 106 -125.5zM508.5 125.5q51.5 33.5 77.5 92t26 132.5
t-26 132.5t-77.5 92t-125.5 33.5t-125.5 -33.5t-78 -92t-26.5 -132.5t26.5 -132.5t78 -92t125.5 -33.5t125.5 33.5zM434 789.5q-18 5.5 -43 16.5q-44 19 -63 19q-16 0 -25 -9.5t-9 -26.5h-70q0 50 19 76.5t55 26.5q16 0 32.5 -5.5t44.5 -17.5q5 -2 26.5 -10.5t36.5 -8.5
q16 0 25 9.5t9 26.5h70q0 -50 -19 -76t-55 -26q-16 0 -34 5.5z" />
    <glyph glyph-name="Ohungarumlaut" unicode="&#x150;" horiz-adv-x="766" 
d="M205 31q-78 45 -122.5 127.5t-44.5 191.5t44.5 191.5t122.5 127.5t178 45t178 -45t122.5 -127.5t44.5 -191.5t-44.5 -191.5t-122.5 -127.5t-178 -45t-178 45zM508.5 125.5q51.5 33.5 77.5 92t26 132.5t-26 132.5t-77.5 92t-125.5 33.5t-125.5 -33.5t-78 -92t-26.5 -132.5
t26.5 -132.5t78 -92t125.5 -33.5t125.5 33.5zM340 939h105l-100 -151h-71zM489 939h105l-106 -151h-71z" />
    <glyph glyph-name="uni020E" unicode="&#x20e;" horiz-adv-x="766" 
d="M205 31q-78 45 -122.5 127.5t-44.5 191.5t44.5 191.5t122.5 127.5t178 45t178 -45t122.5 -127.5t44.5 -191.5t-44.5 -191.5t-122.5 -127.5t-178 -45t-178 45zM508.5 125.5q51.5 33.5 77.5 92t26 132.5t-26 132.5t-77.5 92t-125.5 33.5t-125.5 -33.5t-78 -92t-26.5 -132.5
t26.5 -132.5t78 -92t125.5 -33.5t125.5 33.5zM492.5 869q39.5 -36 39.5 -89h-82q0 29 -18.5 44.5t-48.5 15.5t-48.5 -15.5t-18.5 -44.5h-82q0 53 39.5 89t109.5 36t109.5 -36z" />
    <glyph glyph-name="Omacron" unicode="&#x14c;" horiz-adv-x="766" 
d="M205 31q-78 45 -122.5 127.5t-44.5 191.5t44.5 191.5t122.5 127.5t178 45t178 -45t122.5 -127.5t44.5 -191.5t-44.5 -191.5t-122.5 -127.5t-178 -45t-178 45zM508.5 125.5q51.5 33.5 77.5 92t26 132.5t-26 132.5t-77.5 92t-125.5 33.5t-125.5 -33.5t-78 -92t-26.5 -132.5
t26.5 -132.5t78 -92t125.5 -33.5t125.5 33.5zM221 865h324v-72h-324v72z" />
    <glyph glyph-name="uni1E52" unicode="&#x1e52;" horiz-adv-x="766" 
d="M205 31q-78 45 -122.5 127.5t-44.5 191.5t44.5 191.5t122.5 127.5t178 45t178 -45t122.5 -127.5t44.5 -191.5t-44.5 -191.5t-122.5 -127.5t-178 -45t-178 45zM508.5 125.5q51.5 33.5 77.5 92t26 132.5t-26 132.5t-77.5 92t-125.5 33.5t-125.5 -33.5t-78 -92t-26.5 -132.5
t26.5 -132.5t78 -92t125.5 -33.5t125.5 33.5zM221 865h324v-72h-324v72zM288 997l191 95v-100l-191 -58v63z" />
    <glyph glyph-name="uni1E50" unicode="&#x1e50;" horiz-adv-x="766" 
d="M205 31q-78 45 -122.5 127.5t-44.5 191.5t44.5 191.5t122.5 127.5t178 45t178 -45t122.5 -127.5t44.5 -191.5t-44.5 -191.5t-122.5 -127.5t-178 -45t-178 45zM508.5 125.5q51.5 33.5 77.5 92t26 132.5t-26 132.5t-77.5 92t-125.5 33.5t-125.5 -33.5t-78 -92t-26.5 -132.5
t26.5 -132.5t78 -92t125.5 -33.5t125.5 33.5zM221 865h324v-72h-324v72zM287 992v100l191 -95v-63z" />
    <glyph glyph-name="uni01EA" unicode="&#x1ea;" horiz-adv-x="766" 
d="M410 -57.5q-18 -23.5 -18 -47.5t13 -36.5t35 -12.5q30 0 62 16l16 -52q-38 -19 -85 -19q-44 0 -72.5 23t-28.5 64q0 31 17.5 59t43.5 49h-10q-100 0 -178 45t-122.5 127.5t-44.5 191.5t44.5 191.5t122.5 127.5t178 45t178 -45t122.5 -127.5t44.5 -191.5
q0 -94 -33.5 -168.5t-93.5 -122.5t-139 -65q-34 -28 -52 -51.5zM179.5 217.5q26.5 -58.5 78 -92t125.5 -33.5t125.5 33.5t77.5 92t26 132.5t-26 132.5t-77.5 92t-125.5 33.5t-125.5 -33.5t-78 -92t-26.5 -132.5t26.5 -132.5z" />
    <glyph glyph-name="Oslash" unicode="&#xd8;" horiz-adv-x="766" 
d="M699.5 506.5q28.5 -70.5 28.5 -156.5q0 -109 -44.5 -191.5t-122.5 -127.5t-178 -45q-95 0 -173 42l-49 -72h-95l81 118q-52 49 -80.5 119.5t-28.5 156.5q0 109 44.5 191.5t122.5 127.5t178 45q94 0 172 -42l49 72h96l-81 -118q52 -49 80.5 -119.5zM167.5 248
q14.5 -47 42.5 -81l284 416q-48 25 -111 25q-74 0 -125.5 -33.5t-78 -92t-26.5 -132.5q0 -55 14.5 -102zM508.5 125.5q51.5 33.5 77.5 92t26 132.5q0 113 -57 183l-284 -416q50 -25 112 -25q74 0 125.5 33.5z" />
    <glyph glyph-name="Oslashacute" unicode="&#x1fe;" horiz-adv-x="766" 
d="M699.5 506.5q28.5 -70.5 28.5 -156.5q0 -109 -44.5 -191.5t-122.5 -127.5t-178 -45q-95 0 -173 42l-49 -72h-95l81 118q-52 49 -80.5 119.5t-28.5 156.5q0 109 44.5 191.5t122.5 127.5t178 45q94 0 172 -42l49 72h96l-81 -118q52 -49 80.5 -119.5zM167.5 248
q14.5 -47 42.5 -81l284 416q-48 25 -111 25q-74 0 -125.5 -33.5t-78 -92t-26.5 -132.5q0 -55 14.5 -102zM508.5 125.5q51.5 33.5 77.5 92t26 132.5q0 113 -57 183l-284 -416q50 -25 112 -25q74 0 125.5 33.5zM287 825l191 95v-100l-191 -58v63z" />
    <glyph glyph-name="Otilde" unicode="&#xd5;" horiz-adv-x="766" 
d="M205 31q-78 45 -122.5 127.5t-44.5 191.5t44.5 191.5t122.5 127.5t178 45t178 -45t122.5 -127.5t44.5 -191.5t-44.5 -191.5t-122.5 -127.5t-178 -45t-178 45zM508.5 125.5q51.5 33.5 77.5 92t26 132.5t-26 132.5t-77.5 92t-125.5 33.5t-125.5 -33.5t-78 -92t-26.5 -132.5
t26.5 -132.5t78 -92t125.5 -33.5t125.5 33.5zM434 789.5q-18 5.5 -43 16.5q-44 19 -63 19q-16 0 -25 -9.5t-9 -26.5h-70q0 50 19 76.5t55 26.5q16 0 32.5 -5.5t44.5 -17.5q5 -2 26.5 -10.5t36.5 -8.5q16 0 25 9.5t9 26.5h70q0 -50 -19 -76t-55 -26q-16 0 -34 5.5z" />
    <glyph glyph-name="uni1E4C" unicode="&#x1e4c;" horiz-adv-x="766" 
d="M205 31q-78 45 -122.5 127.5t-44.5 191.5t44.5 191.5t122.5 127.5t178 45t178 -45t122.5 -127.5t44.5 -191.5t-44.5 -191.5t-122.5 -127.5t-178 -45t-178 45zM508.5 125.5q51.5 33.5 77.5 92t26 132.5t-26 132.5t-77.5 92t-125.5 33.5t-125.5 -33.5t-78 -92t-26.5 -132.5
t26.5 -132.5t78 -92t125.5 -33.5t125.5 33.5zM434 789.5q-18 5.5 -43 16.5q-44 19 -63 19q-16 0 -25 -9.5t-9 -26.5h-70q0 50 19 76.5t55 26.5q16 0 32.5 -5.5t44.5 -17.5q5 -2 26.5 -10.5t36.5 -8.5q16 0 25 9.5t9 26.5h70q0 -50 -19 -76t-55 -26q-16 0 -34 5.5zM288 996
l191 95v-100l-191 -58v63z" />
    <glyph glyph-name="uni1E4E" unicode="&#x1e4e;" horiz-adv-x="766" 
d="M205 31q-78 45 -122.5 127.5t-44.5 191.5t44.5 191.5t122.5 127.5t178 45t178 -45t122.5 -127.5t44.5 -191.5t-44.5 -191.5t-122.5 -127.5t-178 -45t-178 45zM508.5 125.5q51.5 33.5 77.5 92t26 132.5t-26 132.5t-77.5 92t-125.5 33.5t-125.5 -33.5t-78 -92t-26.5 -132.5
t26.5 -132.5t78 -92t125.5 -33.5t125.5 33.5zM434 789.5q-18 5.5 -43 16.5q-44 19 -63 19q-16 0 -25 -9.5t-9 -26.5h-70q0 50 19 76.5t55 26.5q16 0 32.5 -5.5t44.5 -17.5q5 -2 26.5 -10.5t36.5 -8.5q16 0 25 9.5t9 26.5h70q0 -50 -19 -76t-55 -26q-16 0 -34 5.5zM240 1040
h90v-79h-90v79zM436 1040h90v-79h-90v79z" />
    <glyph glyph-name="uni022C" unicode="&#x22c;" horiz-adv-x="766" 
d="M205 31q-78 45 -122.5 127.5t-44.5 191.5t44.5 191.5t122.5 127.5t178 45t178 -45t122.5 -127.5t44.5 -191.5t-44.5 -191.5t-122.5 -127.5t-178 -45t-178 45zM508.5 125.5q51.5 33.5 77.5 92t26 132.5t-26 132.5t-77.5 92t-125.5 33.5t-125.5 -33.5t-78 -92t-26.5 -132.5
t26.5 -132.5t78 -92t125.5 -33.5t125.5 33.5zM434 789.5q-18 5.5 -43 16.5q-44 19 -63 19q-16 0 -25 -9.5t-9 -26.5h-70q0 50 19 76.5t55 26.5q16 0 32.5 -5.5t44.5 -17.5q5 -2 26.5 -10.5t36.5 -8.5q16 0 25 9.5t9 26.5h70q0 -50 -19 -76t-55 -26q-16 0 -34 5.5zM221 1036
h324v-72h-324v72z" />
    <glyph glyph-name="OE" unicode="&#x152;" horiz-adv-x="1068" 
d="M1032 102v-102h-421v93q-44 -51 -105.5 -79t-130.5 -28q-98 0 -174.5 45t-119.5 127.5t-43 191.5t43 191.5t119.5 127.5t174.5 45q69 0 130.5 -28t105.5 -79v92h412v-101h-304v-181h234v-102h-234v-213h313zM544.5 160.5q57.5 72.5 57.5 189.5t-57.5 189.5t-165.5 72.5
q-109 0 -166.5 -72.5t-57.5 -189.5t57.5 -189.5t166.5 -72.5q108 0 165.5 72.5z" />
    <glyph glyph-name="P" unicode="P" horiz-adv-x="582" 
d="M79 700h238q242 0 242 -227q0 -116 -62.5 -172.5t-177.5 -56.5h-128v-244h-112v700zM304 338q72 0 108 33t36 101q0 69 -35 101.5t-110 32.5h-112v-268h113z" />
    <glyph glyph-name="Thorn" unicode="&#xde;" horiz-adv-x="571" 
d="M79 700h112v-151h145q106 0 159.5 -48t53.5 -136t-53.5 -136.5t-159.5 -48.5h-145v-180h-112v700zM325 274q112 0 112 91q0 46 -27 68t-85 22h-134v-181h134z" />
    <glyph glyph-name="Q" unicode="Q" horiz-adv-x="766" 
d="M655 114l64 -62l-65 -68l-66 64q-87 -62 -205 -62q-100 0 -178 45t-122.5 127.5t-44.5 191.5t44.5 191.5t122.5 127.5t178 45t178 -45t122.5 -127.5t44.5 -191.5q0 -139 -73 -236zM508 125l-84 82l65 67l84 -81q39 65 39 157q0 74 -26 132.5t-77.5 92t-125.5 33.5
t-125.5 -33.5t-78 -92t-26.5 -132.5t26.5 -132.5t78 -92t125.5 -33.5q73 0 125 33z" />
    <glyph glyph-name="R" unicode="R" horiz-adv-x="613" 
d="M79 700h239q114 0 178 -53t64 -160q0 -137 -121 -195l157 -292h-127l-139 267h-5h-134v-267h-112v700zM303 362q72 0 107.5 32.5t35.5 89.5q0 59 -35 90.5t-106 31.5h-114v-244h112z" />
    <glyph glyph-name="Racute" unicode="&#x154;" horiz-adv-x="613" 
d="M79 700h239q114 0 178 -53t64 -160q0 -137 -121 -195l157 -292h-127l-139 267h-5h-134v-267h-112v700zM303 362q72 0 107.5 32.5t35.5 89.5q0 59 -35 90.5t-106 31.5h-114v-244h112zM217 825l191 95v-100l-191 -58v63z" />
    <glyph glyph-name="Rcaron" unicode="&#x158;" horiz-adv-x="613" 
d="M79 700h239q114 0 178 -53t64 -160q0 -137 -121 -195l157 -292h-127l-139 267h-5h-134v-267h-112v700zM303 362q72 0 107.5 32.5t35.5 89.5q0 59 -35 90.5t-106 31.5h-114v-244h112zM312 866l129 68v-66l-129 -91l-129 91v66z" />
    <glyph glyph-name="Rcommaaccent" unicode="&#x156;" horiz-adv-x="613" 
d="M79 700h239q114 0 178 -53t64 -160q0 -137 -121 -195l157 -292h-127l-139 267h-5h-134v-267h-112v700zM303 362q72 0 107.5 32.5t35.5 89.5q0 59 -35 90.5t-106 31.5h-114v-244h112zM283 -308l37 108h-40v109h114v-98l-56 -119h-55z" />
    <glyph glyph-name="uni0210" unicode="&#x210;" horiz-adv-x="613" 
d="M79 700h239q114 0 178 -53t64 -160q0 -137 -121 -195l157 -292h-127l-139 267h-5h-134v-267h-112v700zM303 362q72 0 107.5 32.5t35.5 89.5q0 59 -35 90.5t-106 31.5h-114v-244h112zM205 788l-97 151h105l63 -151h-71zM348 788l-91 151h105l57 -151h-71z" />
    <glyph glyph-name="uni1E5A" unicode="&#x1e5a;" horiz-adv-x="613" 
d="M79 700h239q114 0 178 -53t64 -160q0 -137 -121 -195l157 -292h-127l-139 267h-5h-134v-267h-112v700zM303 362q72 0 107.5 32.5t35.5 89.5q0 59 -35 90.5t-106 31.5h-114v-244h112zM286 -81h100v-93h-100v93z" />
    <glyph glyph-name="uni0212" unicode="&#x212;" horiz-adv-x="613" 
d="M79 700h239q114 0 178 -53t64 -160q0 -137 -121 -195l157 -292h-127l-139 267h-5h-134v-267h-112v700zM303 362q72 0 107.5 32.5t35.5 89.5q0 59 -35 90.5t-106 31.5h-114v-244h112zM421.5 869q39.5 -36 39.5 -89h-82q0 29 -18.5 44.5t-48.5 15.5t-48.5 -15.5
t-18.5 -44.5h-82q0 53 39.5 89t109.5 36t109.5 -36z" />
    <glyph glyph-name="uni1E5E" unicode="&#x1e5e;" horiz-adv-x="613" 
d="M79 700h239q114 0 178 -53t64 -160q0 -137 -121 -195l157 -292h-127l-139 267h-5h-134v-267h-112v700zM303 362q72 0 107.5 32.5t35.5 89.5q0 59 -35 90.5t-106 31.5h-114v-244h112zM174 -91h324v-75h-324v75z" />
    <glyph glyph-name="S" unicode="S" horiz-adv-x="582" 
d="M153.5 0.5q-65.5 14.5 -103.5 33.5l14 115q54 -26 115 -43.5t120 -17.5q63 0 98 23t35 70q0 35 -18.5 57.5t-53.5 38.5t-102 38q-66 21 -109.5 44.5t-70 62.5t-26.5 98q0 87 65.5 140.5t186.5 53.5q61 0 119 -13.5t103 -33.5l-12 -113q-59 30 -110.5 44.5t-105.5 14.5
q-61 0 -96 -22t-35 -66q0 -31 17 -51.5t47.5 -34.5t87.5 -32q119 -36 176 -86t57 -136q0 -87 -64.5 -143t-207.5 -56q-61 0 -126.5 14.5z" />
    <glyph glyph-name="Sacute" unicode="&#x15a;" horiz-adv-x="582" 
d="M153.5 0.5q-65.5 14.5 -103.5 33.5l14 115q54 -26 115 -43.5t120 -17.5q63 0 98 23t35 70q0 35 -18.5 57.5t-53.5 38.5t-102 38q-66 21 -109.5 44.5t-70 62.5t-26.5 98q0 87 65.5 140.5t186.5 53.5q61 0 119 -13.5t103 -33.5l-12 -113q-59 30 -110.5 44.5t-105.5 14.5
q-61 0 -96 -22t-35 -66q0 -31 17 -51.5t47.5 -34.5t87.5 -32q119 -36 176 -86t57 -136q0 -87 -64.5 -143t-207.5 -56q-61 0 -126.5 14.5zM219 825l191 95v-100l-191 -58v63z" />
    <glyph glyph-name="uni1E64" unicode="&#x1e64;" horiz-adv-x="582" 
d="M153.5 0.5q-65.5 14.5 -103.5 33.5l14 115q54 -26 115 -43.5t120 -17.5q63 0 98 23t35 70q0 35 -18.5 57.5t-53.5 38.5t-102 38q-66 21 -109.5 44.5t-70 62.5t-26.5 98q0 87 65.5 140.5t186.5 53.5q61 0 119 -13.5t103 -33.5l-12 -113q-59 30 -110.5 44.5t-105.5 14.5
q-61 0 -96 -22t-35 -66q0 -31 17 -51.5t47.5 -34.5t87.5 -32q119 -36 176 -86t57 -136q0 -87 -64.5 -143t-207.5 -56q-61 0 -126.5 14.5zM219 825l191 95v-100l-191 -58v63zM264 1057h100v-93h-100v93z" />
    <glyph glyph-name="Scaron" unicode="&#x160;" horiz-adv-x="582" 
d="M153.5 0.5q-65.5 14.5 -103.5 33.5l14 115q54 -26 115 -43.5t120 -17.5q63 0 98 23t35 70q0 35 -18.5 57.5t-53.5 38.5t-102 38q-66 21 -109.5 44.5t-70 62.5t-26.5 98q0 87 65.5 140.5t186.5 53.5q61 0 119 -13.5t103 -33.5l-12 -113q-59 30 -110.5 44.5t-105.5 14.5
q-61 0 -96 -22t-35 -66q0 -31 17 -51.5t47.5 -34.5t87.5 -32q119 -36 176 -86t57 -136q0 -87 -64.5 -143t-207.5 -56q-61 0 -126.5 14.5zM314 866l129 68v-66l-129 -91l-129 91v66z" />
    <glyph glyph-name="uni1E66" unicode="&#x1e66;" horiz-adv-x="582" 
d="M153.5 0.5q-65.5 14.5 -103.5 33.5l14 115q54 -26 115 -43.5t120 -17.5q63 0 98 23t35 70q0 35 -18.5 57.5t-53.5 38.5t-102 38q-66 21 -109.5 44.5t-70 62.5t-26.5 98q0 87 65.5 140.5t186.5 53.5q61 0 119 -13.5t103 -33.5l-12 -113q-59 30 -110.5 44.5t-105.5 14.5
q-61 0 -96 -22t-35 -66q0 -31 17 -51.5t47.5 -34.5t87.5 -32q119 -36 176 -86t57 -136q0 -87 -64.5 -143t-207.5 -56q-61 0 -126.5 14.5zM314 866l129 68v-66l-129 -91l-129 91v66zM264 1070h100v-93h-100v93z" />
    <glyph glyph-name="Scedilla" unicode="&#x15e;" horiz-adv-x="582" 
d="M496 50q-56 -55 -178 -63l-13 -41h6q42 0 66 -22.5t24 -61.5q0 -44 -31 -69t-78 -25q-46 0 -80 19l17 54q31 -17 64 -17q22 0 34.5 9t12.5 27q0 37 -50 37q-23 0 -47 -7l24 96q-59 2 -120 16t-97 32l14 115q54 -26 115 -43.5t120 -17.5q63 0 98 23t35 70q0 35 -18.5 57.5
t-53.5 38.5t-102 38q-66 21 -109.5 44.5t-70 62.5t-26.5 98q0 87 65.5 140.5t186.5 53.5q61 0 119 -13.5t103 -33.5l-12 -113q-59 30 -110.5 44.5t-105.5 14.5q-61 0 -96 -22t-35 -66q0 -31 17 -51.5t47.5 -34.5t87.5 -32q119 -36 176 -86t57 -136q0 -80 -56 -135z" />
    <glyph glyph-name="Scircumflex" unicode="&#x15c;" horiz-adv-x="582" 
d="M153.5 0.5q-65.5 14.5 -103.5 33.5l14 115q54 -26 115 -43.5t120 -17.5q63 0 98 23t35 70q0 35 -18.5 57.5t-53.5 38.5t-102 38q-66 21 -109.5 44.5t-70 62.5t-26.5 98q0 87 65.5 140.5t186.5 53.5q61 0 119 -13.5t103 -33.5l-12 -113q-59 30 -110.5 44.5t-105.5 14.5
q-61 0 -96 -22t-35 -66q0 -31 17 -51.5t47.5 -34.5t87.5 -32q119 -36 176 -86t57 -136q0 -87 -64.5 -143t-207.5 -56q-61 0 -126.5 14.5zM185 816l129 91l129 -91v-66l-129 68l-129 -68v66z" />
    <glyph glyph-name="Scommaaccent" unicode="&#x218;" horiz-adv-x="582" 
d="M153.5 0.5q-65.5 14.5 -103.5 33.5l14 115q54 -26 115 -43.5t120 -17.5q63 0 98 23t35 70q0 35 -18.5 57.5t-53.5 38.5t-102 38q-66 21 -109.5 44.5t-70 62.5t-26.5 98q0 87 65.5 140.5t186.5 53.5q61 0 119 -13.5t103 -33.5l-12 -113q-59 30 -110.5 44.5t-105.5 14.5
q-61 0 -96 -22t-35 -66q0 -31 17 -51.5t47.5 -34.5t87.5 -32q119 -36 176 -86t57 -136q0 -87 -64.5 -143t-207.5 -56q-61 0 -126.5 14.5zM240 -308l37 108h-40v109h114v-98l-56 -119h-55z" />
    <glyph glyph-name="uni1E60" unicode="&#x1e60;" horiz-adv-x="582" 
d="M153.5 0.5q-65.5 14.5 -103.5 33.5l14 115q54 -26 115 -43.5t120 -17.5q63 0 98 23t35 70q0 35 -18.5 57.5t-53.5 38.5t-102 38q-66 21 -109.5 44.5t-70 62.5t-26.5 98q0 87 65.5 140.5t186.5 53.5q61 0 119 -13.5t103 -33.5l-12 -113q-59 30 -110.5 44.5t-105.5 14.5
q-61 0 -96 -22t-35 -66q0 -31 17 -51.5t47.5 -34.5t87.5 -32q119 -36 176 -86t57 -136q0 -87 -64.5 -143t-207.5 -56q-61 0 -126.5 14.5zM264 885h100v-93h-100v93z" />
    <glyph glyph-name="uni1E62" unicode="&#x1e62;" horiz-adv-x="582" 
d="M153.5 0.5q-65.5 14.5 -103.5 33.5l14 115q54 -26 115 -43.5t120 -17.5q63 0 98 23t35 70q0 35 -18.5 57.5t-53.5 38.5t-102 38q-66 21 -109.5 44.5t-70 62.5t-26.5 98q0 87 65.5 140.5t186.5 53.5q61 0 119 -13.5t103 -33.5l-12 -113q-59 30 -110.5 44.5t-105.5 14.5
q-61 0 -96 -22t-35 -66q0 -31 17 -51.5t47.5 -34.5t87.5 -32q119 -36 176 -86t57 -136q0 -87 -64.5 -143t-207.5 -56q-61 0 -126.5 14.5zM243 -81h100v-93h-100v93z" />
    <glyph glyph-name="uni1E68" unicode="&#x1e68;" horiz-adv-x="582" 
d="M153.5 0.5q-65.5 14.5 -103.5 33.5l14 115q54 -26 115 -43.5t120 -17.5q63 0 98 23t35 70q0 35 -18.5 57.5t-53.5 38.5t-102 38q-66 21 -109.5 44.5t-70 62.5t-26.5 98q0 87 65.5 140.5t186.5 53.5q61 0 119 -13.5t103 -33.5l-12 -113q-59 30 -110.5 44.5t-105.5 14.5
q-61 0 -96 -22t-35 -66q0 -31 17 -51.5t47.5 -34.5t87.5 -32q119 -36 176 -86t57 -136q0 -87 -64.5 -143t-207.5 -56q-61 0 -126.5 14.5zM264 885h100v-93h-100v93zM243 -81h100v-93h-100v93z" />
    <glyph glyph-name="uni1E9E" unicode="&#x1e9e;" horiz-adv-x="638" 
d="M556 343q50 -51 50 -142q0 -70 -31 -118.5t-82.5 -72.5t-114.5 -24q-55 0 -108 14v98q44 -10 96 -10q57 0 90 30.5t33 84.5q0 61 -37.5 93t-110.5 32h-33v89l160 182q-54 21 -120 21q-73 0 -116.5 -38.5t-43.5 -105.5v-476h-109v474q0 118 72.5 179t196.5 61
q63 0 117 -16t95 -43v-89l-140 -158q86 -14 136 -65z" />
    <glyph glyph-name="uni018F" unicode="&#x18f;" horiz-adv-x="705" 
d="M504.5 667q78.5 -47 120.5 -131.5t42 -195.5q0 -99 -39.5 -179.5t-114.5 -127.5t-177 -47q-90 0 -159.5 36.5t-108 104.5t-38.5 160q0 44 7 75h511q-5 118 -67 184t-173 66q-109 0 -229 -54l-14 97q121 59 254 59q107 0 185.5 -47zM471.5 134q52.5 46 69.5 131h-392
q2 -82 50 -129.5t140 -47.5q80 0 132.5 46z" />
    <glyph glyph-name="T" unicode="T" horiz-adv-x="542" 
d="M216 598h-201v102h512v-102h-202v-598h-109v598z" />
    <glyph glyph-name="Tbar" unicode="&#x166;" horiz-adv-x="542" 
d="M325 598v-208h135v-72h-135v-318h-109v318h-134v72h134v208h-201v102h512v-102h-202z" />
    <glyph glyph-name="Tcaron" unicode="&#x164;" horiz-adv-x="542" 
d="M216 598h-201v102h512v-102h-202v-598h-109v598zM142 875v69l129 -81l129 81v-69l-129 -111z" />
    <glyph glyph-name="uni0162" unicode="&#x162;" horiz-adv-x="542" 
d="M216 598h-201v102h512v-102h-202v-598h-109v598zM355 -76.5q24 -22.5 24 -61.5q0 -44 -31 -69t-78 -25q-46 0 -80 19l17 54q31 -17 64 -17q22 0 34.5 9t12.5 27q0 37 -50 37q-23 0 -47 -7l27 110h52l-17 -54h6q42 0 66 -22.5z" />
    <glyph glyph-name="uni021A" unicode="&#x21a;" horiz-adv-x="542" 
d="M216 598h-201v102h512v-102h-202v-598h-109v598zM218 -308l37 108h-40v109h114v-98l-56 -119h-55z" />
    <glyph glyph-name="uni1E6C" unicode="&#x1e6c;" horiz-adv-x="542" 
d="M216 598h-201v102h512v-102h-202v-598h-109v598zM221 -81h100v-93h-100v93z" />
    <glyph glyph-name="uni1E6E" unicode="&#x1e6e;" horiz-adv-x="542" 
d="M216 598h-201v102h512v-102h-202v-598h-109v598zM109 -91h324v-75h-324v75z" />
    <glyph glyph-name="U" unicode="U" horiz-adv-x="721" 
d="M144 68.5q-73 82.5 -73 229.5v402h109v-373q0 -113 38 -176t143 -63t143 63t38 176v373h109v-402q0 -147 -73 -229.5t-217 -82.5t-217 82.5z" />
    <glyph glyph-name="Uacute" unicode="&#xda;" horiz-adv-x="721" 
d="M144 68.5q-73 82.5 -73 229.5v402h109v-373q0 -113 38 -176t143 -63t143 63t38 176v373h109v-402q0 -147 -73 -229.5t-217 -82.5t-217 82.5zM266 825l191 95v-100l-191 -58v63z" />
    <glyph glyph-name="Ubreve" unicode="&#x16c;" horiz-adv-x="721" 
d="M144 68.5q-73 82.5 -73 229.5v402h109v-373q0 -113 38 -176t143 -63t143 63t38 176v373h109v-402q0 -147 -73 -229.5t-217 -82.5t-217 82.5zM251.5 801q-39.5 36 -39.5 89h82q0 -29 18.5 -45t48.5 -16t48.5 16t18.5 45h82q0 -53 -39.5 -89t-109.5 -36t-109.5 36z" />
    <glyph glyph-name="Ucircumflex" unicode="&#xdb;" horiz-adv-x="721" 
d="M144 68.5q-73 82.5 -73 229.5v402h109v-373q0 -113 38 -176t143 -63t143 63t38 176v373h109v-402q0 -147 -73 -229.5t-217 -82.5t-217 82.5zM232 816l129 91l129 -91v-66l-129 68l-129 -68v66z" />
    <glyph glyph-name="uni0214" unicode="&#x214;" horiz-adv-x="721" 
d="M144 68.5q-73 82.5 -73 229.5v402h109v-373q0 -113 38 -176t143 -63t143 63t38 176v373h109v-402q0 -147 -73 -229.5t-217 -82.5t-217 82.5zM257 788l-105 171h105l72 -171h-72zM400 788l-99 171h106l65 -171h-72z" />
    <glyph glyph-name="Udieresis" unicode="&#xdc;" horiz-adv-x="721" 
d="M144 68.5q-73 82.5 -73 229.5v402h109v-373q0 -113 38 -176t143 -63t143 63t38 176v373h109v-402q0 -147 -73 -229.5t-217 -82.5t-217 82.5zM218 869h90v-79h-90v79zM414 869h90v-79h-90v79z" />
    <glyph glyph-name="uni1EE4" unicode="&#x1ee4;" horiz-adv-x="721" 
d="M144 68.5q-73 82.5 -73 229.5v402h109v-373q0 -113 38 -176t143 -63t143 63t38 176v373h109v-402q0 -147 -73 -229.5t-217 -82.5t-217 82.5zM311 -81h100v-93h-100v93z" />
    <glyph glyph-name="Ugrave" unicode="&#xd9;" horiz-adv-x="721" 
d="M144 68.5q-73 82.5 -73 229.5v402h109v-373q0 -113 38 -176t143 -63t143 63t38 176v373h109v-402q0 -147 -73 -229.5t-217 -82.5t-217 82.5zM265 820v100l191 -95v-63z" />
    <glyph glyph-name="uni1EE6" unicode="&#x1ee6;" horiz-adv-x="721" 
d="M144 68.5q-73 82.5 -73 229.5v402h109v-373q0 -113 38 -176t143 -63t143 63t38 176v373h109v-402q0 -147 -73 -229.5t-217 -82.5t-217 82.5zM348 802q36 11 36 37q0 30 -39 30q-27 0 -62 -19l-17 55q36 19 80 19q43 0 71 -21t28 -58q0 -34 -21 -54.5t-66 -30.5z" />
    <glyph glyph-name="Uhorn" unicode="&#x1af;" horiz-adv-x="721" 
d="M734.5 687q-32.5 -38 -83.5 -53v-336q0 -147 -73 -229.5t-217 -82.5t-217 82.5t-73 229.5v402h109v-373q0 -113 38 -176t143 -63t143 63t38 176v373h51q80 0 80 74h94q0 -49 -32.5 -87z" />
    <glyph glyph-name="uni1EE8" unicode="&#x1ee8;" horiz-adv-x="721" 
d="M734.5 687q-32.5 -38 -83.5 -53v-336q0 -147 -73 -229.5t-217 -82.5t-217 82.5t-73 229.5v402h109v-373q0 -113 38 -176t143 -63t143 63t38 176v373h51q80 0 80 74h94q0 -49 -32.5 -87zM266 825l191 95v-100l-191 -58v63z" />
    <glyph glyph-name="uni1EF0" unicode="&#x1ef0;" horiz-adv-x="721" 
d="M734.5 687q-32.5 -38 -83.5 -53v-336q0 -147 -73 -229.5t-217 -82.5t-217 82.5t-73 229.5v402h109v-373q0 -113 38 -176t143 -63t143 63t38 176v373h51q80 0 80 74h94q0 -49 -32.5 -87zM311 -81h100v-93h-100v93z" />
    <glyph glyph-name="uni1EEA" unicode="&#x1eea;" horiz-adv-x="721" 
d="M734.5 687q-32.5 -38 -83.5 -53v-336q0 -147 -73 -229.5t-217 -82.5t-217 82.5t-73 229.5v402h109v-373q0 -113 38 -176t143 -63t143 63t38 176v373h51q80 0 80 74h94q0 -49 -32.5 -87zM265 820v100l191 -95v-63z" />
    <glyph glyph-name="uni1EEC" unicode="&#x1eec;" horiz-adv-x="721" 
d="M734.5 687q-32.5 -38 -83.5 -53v-336q0 -147 -73 -229.5t-217 -82.5t-217 82.5t-73 229.5v402h109v-373q0 -113 38 -176t143 -63t143 63t38 176v373h51q80 0 80 74h94q0 -49 -32.5 -87zM348 802q36 11 36 37q0 30 -39 30q-27 0 -62 -19l-17 55q36 19 80 19q43 0 71 -21
t28 -58q0 -34 -21 -54.5t-66 -30.5z" />
    <glyph glyph-name="uni1EEE" unicode="&#x1eee;" horiz-adv-x="721" 
d="M734.5 687q-32.5 -38 -83.5 -53v-336q0 -147 -73 -229.5t-217 -82.5t-217 82.5t-73 229.5v402h109v-373q0 -113 38 -176t143 -63t143 63t38 176v373h51q80 0 80 74h94q0 -49 -32.5 -87zM412 789.5q-18 5.5 -43 16.5q-44 19 -63 19q-16 0 -25 -9.5t-9 -26.5h-70
q0 50 19 76.5t55 26.5q16 0 32.5 -5.5t44.5 -17.5q5 -2 26.5 -10.5t36.5 -8.5q16 0 25 9.5t9 26.5h70q0 -50 -19 -76t-55 -26q-16 0 -34 5.5z" />
    <glyph glyph-name="Uhungarumlaut" unicode="&#x170;" horiz-adv-x="721" 
d="M144 68.5q-73 82.5 -73 229.5v402h109v-373q0 -113 38 -176t143 -63t143 63t38 176v373h109v-402q0 -147 -73 -229.5t-217 -82.5t-217 82.5zM318 939h105l-100 -151h-71zM467 939h105l-106 -151h-71z" />
    <glyph glyph-name="uni0216" unicode="&#x216;" horiz-adv-x="721" 
d="M144 68.5q-73 82.5 -73 229.5v402h109v-373q0 -113 38 -176t143 -63t143 63t38 176v373h109v-402q0 -147 -73 -229.5t-217 -82.5t-217 82.5zM470.5 869q39.5 -36 39.5 -89h-82q0 29 -18.5 44.5t-48.5 15.5t-48.5 -15.5t-18.5 -44.5h-82q0 53 39.5 89t109.5 36t109.5 -36z
" />
    <glyph glyph-name="Umacron" unicode="&#x16a;" horiz-adv-x="721" 
d="M144 68.5q-73 82.5 -73 229.5v402h109v-373q0 -113 38 -176t143 -63t143 63t38 176v373h109v-402q0 -147 -73 -229.5t-217 -82.5t-217 82.5zM199 865h324v-72h-324v72z" />
    <glyph glyph-name="uni1E7A" unicode="&#x1e7a;" horiz-adv-x="721" 
d="M144 68.5q-73 82.5 -73 229.5v402h109v-373q0 -113 38 -176t143 -63t143 63t38 176v373h109v-402q0 -147 -73 -229.5t-217 -82.5t-217 82.5zM199 865h324v-72h-324v72zM218 1041h90v-79h-90v79zM414 1041h90v-79h-90v79z" />
    <glyph glyph-name="Uogonek" unicode="&#x172;" horiz-adv-x="721" 
d="M651 700v-402q0 -120 -48.5 -197.5t-144.5 -102.5q-37 -28 -56 -53t-19 -50q0 -24 13 -36.5t35 -12.5q30 0 62 16l16 -52q-38 -19 -85 -19q-44 0 -72.5 23t-28.5 64q0 31 17.5 59.5t44.5 49.5q-8 -1 -24 -1q-144 0 -217 82.5t-73 229.5v402h109v-373q0 -113 38 -176
t143 -63t143 63t38 176v373h109z" />
    <glyph glyph-name="Uring" unicode="&#x16e;" horiz-adv-x="721" 
d="M144 68.5q-73 82.5 -73 229.5v402h109v-373q0 -113 38 -176t143 -63t143 63t38 176v373h109v-402q0 -147 -73 -229.5t-217 -82.5t-217 82.5zM284.5 783.5q-28.5 28.5 -28.5 69.5q0 40 28.5 69t76.5 29q49 0 77 -28.5t28 -69.5t-28 -69.5t-77 -28.5q-48 0 -76.5 28.5z
M397 817q15 14 15 36q0 21 -15 35.5t-36 14.5t-36 -14.5t-15 -35.5q0 -22 15 -36t36 -14t36 14z" />
    <glyph glyph-name="Utilde" unicode="&#x168;" horiz-adv-x="721" 
d="M144 68.5q-73 82.5 -73 229.5v402h109v-373q0 -113 38 -176t143 -63t143 63t38 176v373h109v-402q0 -147 -73 -229.5t-217 -82.5t-217 82.5zM412 789.5q-18 5.5 -43 16.5q-44 19 -63 19q-16 0 -25 -9.5t-9 -26.5h-70q0 50 19 76.5t55 26.5q16 0 32.5 -5.5t44.5 -17.5
q5 -2 26.5 -10.5t36.5 -8.5q16 0 25 9.5t9 26.5h70q0 -50 -19 -76t-55 -26q-16 0 -34 5.5z" />
    <glyph glyph-name="uni1E78" unicode="&#x1e78;" horiz-adv-x="721" 
d="M144 68.5q-73 82.5 -73 229.5v402h109v-373q0 -113 38 -176t143 -63t143 63t38 176v373h109v-402q0 -147 -73 -229.5t-217 -82.5t-217 82.5zM412 789.5q-18 5.5 -43 16.5q-44 19 -63 19q-16 0 -25 -9.5t-9 -26.5h-70q0 50 19 76.5t55 26.5q16 0 32.5 -5.5t44.5 -17.5
q5 -2 26.5 -10.5t36.5 -8.5q16 0 25 9.5t9 26.5h70q0 -50 -19 -76t-55 -26q-16 0 -34 5.5zM266 996l191 95v-100l-191 -58v63z" />
    <glyph glyph-name="V" unicode="V" horiz-adv-x="614" 
d="M612 700l-251 -700h-109l-250 700h113l192 -546l192 546h113z" />
    <glyph glyph-name="W" unicode="W" horiz-adv-x="953" 
d="M7 700h114l144 -543l165 535h95l167 -530l142 538h114l-201 -700h-106l-164 522l-163 -522h-110z" />
    <glyph glyph-name="Wacute" unicode="&#x1e82;" horiz-adv-x="953" 
d="M7 700h114l144 -543l165 535h95l167 -530l142 538h114l-201 -700h-106l-164 522l-163 -522h-110zM384 825l191 95v-100l-191 -58v63z" />
    <glyph glyph-name="Wcircumflex" unicode="&#x174;" horiz-adv-x="953" 
d="M7 700h114l144 -543l165 535h95l167 -530l142 538h114l-201 -700h-106l-164 522l-163 -522h-110zM350 816l129 91l129 -91v-66l-129 68l-129 -68v66z" />
    <glyph glyph-name="Wdieresis" unicode="&#x1e84;" horiz-adv-x="953" 
d="M7 700h114l144 -543l165 535h95l167 -530l142 538h114l-201 -700h-106l-164 522l-163 -522h-110zM336 869h90v-79h-90v79zM532 869h90v-79h-90v79z" />
    <glyph glyph-name="Wgrave" unicode="&#x1e80;" horiz-adv-x="953" 
d="M7 700h114l144 -543l165 535h95l167 -530l142 538h114l-201 -700h-106l-164 522l-163 -522h-110zM383 820v100l191 -95v-63z" />
    <glyph glyph-name="X" unicode="X" horiz-adv-x="607" 
d="M242 356l-233 344h123l172 -254l171 254h123l-233 -344l241 -356h-124l-178 264l-179 -264h-124z" />
    <glyph glyph-name="Y" unicode="Y" horiz-adv-x="583" 
d="M592 700l-246 -405v-295h-109v295l-247 405h122l179 -304l179 304h122z" />
    <glyph glyph-name="Yacute" unicode="&#xdd;" horiz-adv-x="583" 
d="M592 700l-246 -405v-295h-109v295l-247 405h122l179 -304l179 304h122zM196 825l191 95v-100l-191 -58v63z" />
    <glyph glyph-name="Ycircumflex" unicode="&#x176;" horiz-adv-x="583" 
d="M592 700l-246 -405v-295h-109v295l-247 405h122l179 -304l179 304h122zM162 816l129 91l129 -91v-66l-129 68l-129 -68v66z" />
    <glyph glyph-name="Ydieresis" unicode="&#x178;" horiz-adv-x="583" 
d="M592 700l-246 -405v-295h-109v295l-247 405h122l179 -304l179 304h122zM148 869h90v-79h-90v79zM344 869h90v-79h-90v79z" />
    <glyph glyph-name="uni1E8E" unicode="&#x1e8e;" horiz-adv-x="583" 
d="M592 700l-246 -405v-295h-109v295l-247 405h122l179 -304l179 304h122zM241 885h100v-93h-100v93z" />
    <glyph glyph-name="uni1EF4" unicode="&#x1ef4;" horiz-adv-x="583" 
d="M592 700l-246 -405v-295h-109v295l-247 405h122l179 -304l179 304h122zM242 -81h100v-93h-100v93z" />
    <glyph glyph-name="Ygrave" unicode="&#x1ef2;" horiz-adv-x="583" 
d="M592 700l-246 -405v-295h-109v295l-247 405h122l179 -304l179 304h122zM195 820v100l191 -95v-63z" />
    <glyph glyph-name="uni1EF6" unicode="&#x1ef6;" horiz-adv-x="583" 
d="M592 700l-246 -405v-295h-109v295l-247 405h122l179 -304l179 304h122zM278 802q36 11 36 37q0 30 -39 30q-27 0 -62 -19l-17 55q36 19 80 19q43 0 71 -21t28 -58q0 -34 -21 -54.5t-66 -30.5z" />
    <glyph glyph-name="uni0232" unicode="&#x232;" horiz-adv-x="583" 
d="M592 700l-246 -405v-295h-109v295l-247 405h122l179 -304l179 304h122zM129 865h324v-72h-324v72z" />
    <glyph glyph-name="uni1EF8" unicode="&#x1ef8;" horiz-adv-x="583" 
d="M592 700l-246 -405v-295h-109v295l-247 405h122l179 -304l179 304h122zM342 789.5q-18 5.5 -43 16.5q-44 19 -63 19q-16 0 -25 -9.5t-9 -26.5h-70q0 50 19 76.5t55 26.5q16 0 32.5 -5.5t44.5 -17.5q5 -2 26.5 -10.5t36.5 -8.5q16 0 25 9.5t9 26.5h70q0 -50 -19 -76
t-55 -26q-16 0 -34 5.5z" />
    <glyph glyph-name="Z" unicode="Z" horiz-adv-x="549" 
d="M181 98h356v-98h-528l359 602h-314v98h488z" />
    <glyph glyph-name="Zacute" unicode="&#x179;" horiz-adv-x="549" 
d="M181 98h356v-98h-528l359 602h-314v98h488zM203 825l191 95v-100l-191 -58v63z" />
    <glyph glyph-name="Zcaron" unicode="&#x17d;" horiz-adv-x="549" 
d="M181 98h356v-98h-528l359 602h-314v98h488zM298 866l129 68v-66l-129 -91l-129 91v66z" />
    <glyph glyph-name="Zdotaccent" unicode="&#x17b;" horiz-adv-x="549" 
d="M181 98h356v-98h-528l359 602h-314v98h488zM248 885h100v-93h-100v93z" />
    <glyph glyph-name="uni1E92" unicode="&#x1e92;" horiz-adv-x="549" 
d="M181 98h356v-98h-528l359 602h-314v98h488zM203 -81h100v-93h-100v93z" />
    <glyph glyph-name="Iacute_J.loclNLD" horiz-adv-x="690" 
d="M71 700h109v-373h-109v373zM231 128.5q37 -40.5 114 -40.5q96 0 130.5 63t34.5 176v373h109v-402q0 -147 -69 -229.5t-205 -82.5q-118 0 -186 63t-83 177l109 16q9 -73 46 -113.5zM30 825l191 95v-100l-191 -58v63zM469 825l191 95v-100l-191 -58v63z" />
    <glyph glyph-name="a" unicode="a" horiz-adv-x="488" 
d="M64.5 30q-41.5 40 -41.5 105t45.5 104t110.5 55.5t132 17.5q-1 57 -24.5 78.5t-75.5 21.5q-32 0 -63.5 -9.5t-69.5 -32.5l-12 85q37 23 81.5 35.5t91.5 12.5q92 0 134 -50t42 -170v-115q0 -39 3.5 -58t14 -27t33.5 -8h12l-12 -85h-23q-52 0 -78.5 16t-42.5 50
q-27 -31 -66 -48.5t-85 -17.5q-65 0 -106.5 40zM261.5 86q29.5 14 49.5 39v116q-180 -6 -180 -101q0 -68 72 -68q29 0 58.5 14z" />
    <glyph glyph-name="aacute" unicode="&#xe1;" horiz-adv-x="488" 
d="M64.5 30q-41.5 40 -41.5 105t45.5 104t110.5 55.5t132 17.5q-1 57 -24.5 78.5t-75.5 21.5q-32 0 -63.5 -9.5t-69.5 -32.5l-12 85q37 23 81.5 35.5t91.5 12.5q92 0 134 -50t42 -170v-115q0 -39 3.5 -58t14 -27t33.5 -8h12l-12 -85h-23q-52 0 -78.5 16t-42.5 50
q-27 -31 -66 -48.5t-85 -17.5q-65 0 -106.5 40zM261.5 86q29.5 14 49.5 39v116q-180 -6 -180 -101q0 -68 72 -68q29 0 58.5 14zM144 642l191 111v-105l-191 -75v69z" />
    <glyph glyph-name="abreve" unicode="&#x103;" horiz-adv-x="488" 
d="M64.5 30q-41.5 40 -41.5 105t45.5 104t110.5 55.5t132 17.5q-1 57 -24.5 78.5t-75.5 21.5q-32 0 -63.5 -9.5t-69.5 -32.5l-12 85q37 23 81.5 35.5t91.5 12.5q92 0 134 -50t42 -170v-115q0 -39 3.5 -58t14 -27t33.5 -8h12l-12 -85h-23q-52 0 -78.5 16t-42.5 50
q-27 -31 -66 -48.5t-85 -17.5q-65 0 -106.5 40zM261.5 86q29.5 14 49.5 39v116q-180 -6 -180 -101q0 -68 72 -68q29 0 58.5 14zM129.5 619q-39.5 38 -39.5 94h82q0 -30 18.5 -46.5t48.5 -16.5t48.5 16.5t18.5 46.5h82q0 -56 -39.5 -94t-109.5 -38t-109.5 38z" />
    <glyph glyph-name="uni1EAF" unicode="&#x1eaf;" horiz-adv-x="488" 
d="M64.5 30q-41.5 40 -41.5 105t45.5 104t110.5 55.5t132 17.5q-1 57 -24.5 78.5t-75.5 21.5q-32 0 -63.5 -9.5t-69.5 -32.5l-12 85q37 23 81.5 35.5t91.5 12.5q92 0 134 -50t42 -170v-115q0 -39 3.5 -58t14 -27t33.5 -8h12l-12 -85h-23q-52 0 -78.5 16t-42.5 50
q-27 -31 -66 -48.5t-85 -17.5q-65 0 -106.5 40zM261.5 86q29.5 14 49.5 39v116q-180 -6 -180 -101q0 -68 72 -68q29 0 58.5 14zM144 791l191 95v-99l-191 -58v62zM129.5 595q-39.5 36 -39.5 89h82q0 -29 18.5 -45t48.5 -16t48.5 16t18.5 45h82q0 -53 -39.5 -89t-109.5 -36
t-109.5 36z" />
    <glyph glyph-name="uni1EB7" unicode="&#x1eb7;" horiz-adv-x="488" 
d="M64.5 30q-41.5 40 -41.5 105t45.5 104t110.5 55.5t132 17.5q-1 57 -24.5 78.5t-75.5 21.5q-32 0 -63.5 -9.5t-69.5 -32.5l-12 85q37 23 81.5 35.5t91.5 12.5q92 0 134 -50t42 -170v-115q0 -39 3.5 -58t14 -27t33.5 -8h12l-12 -85h-23q-52 0 -78.5 16t-42.5 50
q-27 -31 -66 -48.5t-85 -17.5q-65 0 -106.5 40zM261.5 86q29.5 14 49.5 39v116q-180 -6 -180 -101q0 -68 72 -68q29 0 58.5 14zM129.5 619q-39.5 38 -39.5 94h82q0 -30 18.5 -46.5t48.5 -16.5t48.5 16.5t18.5 46.5h82q0 -56 -39.5 -94t-109.5 -38t-109.5 38zM194 -81h100
v-93h-100v93z" />
    <glyph glyph-name="uni1EB1" unicode="&#x1eb1;" horiz-adv-x="488" 
d="M64.5 30q-41.5 40 -41.5 105t45.5 104t110.5 55.5t132 17.5q-1 57 -24.5 78.5t-75.5 21.5q-32 0 -63.5 -9.5t-69.5 -32.5l-12 85q37 23 81.5 35.5t91.5 12.5q92 0 134 -50t42 -170v-115q0 -39 3.5 -58t14 -27t33.5 -8h12l-12 -85h-23q-52 0 -78.5 16t-42.5 50
q-27 -31 -66 -48.5t-85 -17.5q-65 0 -106.5 40zM261.5 86q29.5 14 49.5 39v116q-180 -6 -180 -101q0 -68 72 -68q29 0 58.5 14zM143 786v99l191 -95v-62zM129.5 594q-39.5 36 -39.5 89h82q0 -29 18.5 -45t48.5 -16t48.5 16t18.5 45h82q0 -53 -39.5 -89t-109.5 -36t-109.5 36
z" />
    <glyph glyph-name="uni1EB3" unicode="&#x1eb3;" horiz-adv-x="488" 
d="M64.5 30q-41.5 40 -41.5 105t45.5 104t110.5 55.5t132 17.5q-1 57 -24.5 78.5t-75.5 21.5q-32 0 -63.5 -9.5t-69.5 -32.5l-12 85q37 23 81.5 35.5t91.5 12.5q92 0 134 -50t42 -170v-115q0 -39 3.5 -58t14 -27t33.5 -8h12l-12 -85h-23q-52 0 -78.5 16t-42.5 50
q-27 -31 -66 -48.5t-85 -17.5q-65 0 -106.5 40zM261.5 86q29.5 14 49.5 39v116q-180 -6 -180 -101q0 -68 72 -68q29 0 58.5 14zM236 741q36 11 36 37q0 30 -39 30q-27 0 -62 -19l-17 55q36 19 80 19q43 0 71 -21t28 -58q0 -34 -21 -54.5t-66 -30.5zM129.5 595
q-39.5 36 -39.5 89h82q0 -29 18.5 -45t48.5 -16t48.5 16t18.5 45h82q0 -53 -39.5 -89t-109.5 -36t-109.5 36z" />
    <glyph glyph-name="uni1EB5" unicode="&#x1eb5;" horiz-adv-x="488" 
d="M64.5 30q-41.5 40 -41.5 105t45.5 104t110.5 55.5t132 17.5q-1 57 -24.5 78.5t-75.5 21.5q-32 0 -63.5 -9.5t-69.5 -32.5l-12 85q37 23 81.5 35.5t91.5 12.5q92 0 134 -50t42 -170v-115q0 -39 3.5 -58t14 -27t33.5 -8h12l-12 -85h-23q-52 0 -78.5 16t-42.5 50
q-27 -31 -66 -48.5t-85 -17.5q-65 0 -106.5 40zM261.5 86q29.5 14 49.5 39v116q-180 -6 -180 -101q0 -68 72 -68q29 0 58.5 14zM290 737.5q-18 5.5 -43 16.5q-44 19 -63 19q-16 0 -25 -9.5t-9 -26.5h-70q0 50 19 76.5t55 26.5q16 0 32.5 -5.5t44.5 -17.5q5 -2 26.5 -10.5
t36.5 -8.5q16 0 25 9.5t9 26.5h70q0 -50 -19 -76t-55 -26q-16 0 -34 5.5zM129.5 595q-39.5 36 -39.5 89h82q0 -29 18.5 -45t48.5 -16t48.5 16t18.5 45h82q0 -53 -39.5 -89t-109.5 -36t-109.5 36z" />
    <glyph glyph-name="acircumflex" unicode="&#xe2;" horiz-adv-x="488" 
d="M64.5 30q-41.5 40 -41.5 105t45.5 104t110.5 55.5t132 17.5q-1 57 -24.5 78.5t-75.5 21.5q-32 0 -63.5 -9.5t-69.5 -32.5l-12 85q37 23 81.5 35.5t91.5 12.5q92 0 134 -50t42 -170v-115q0 -39 3.5 -58t14 -27t33.5 -8h12l-12 -85h-23q-52 0 -78.5 16t-42.5 50
q-27 -31 -66 -48.5t-85 -17.5q-65 0 -106.5 40zM261.5 86q29.5 14 49.5 39v116q-180 -6 -180 -101q0 -68 72 -68q29 0 58.5 14zM110 628l129 111l129 -111v-68l-129 81l-129 -81v68z" />
    <glyph glyph-name="uni1EA5" unicode="&#x1ea5;" horiz-adv-x="488" 
d="M64.5 30q-41.5 40 -41.5 105t45.5 104t110.5 55.5t132 17.5q-1 57 -24.5 78.5t-75.5 21.5q-32 0 -63.5 -9.5t-69.5 -32.5l-12 85q37 23 81.5 35.5t91.5 12.5q92 0 134 -50t42 -170v-115q0 -39 3.5 -58t14 -27t33.5 -8h12l-12 -85h-23q-52 0 -78.5 16t-42.5 50
q-27 -31 -66 -48.5t-85 -17.5q-65 0 -106.5 40zM261.5 86q29.5 14 49.5 39v116q-180 -6 -180 -101q0 -68 72 -68q29 0 58.5 14zM380 813h106l-100 -121h-72zM110 610l129 91l129 -91v-66l-129 68l-129 -68v66z" />
    <glyph glyph-name="uni1EAD" unicode="&#x1ead;" horiz-adv-x="488" 
d="M64.5 30q-41.5 40 -41.5 105t45.5 104t110.5 55.5t132 17.5q-1 57 -24.5 78.5t-75.5 21.5q-32 0 -63.5 -9.5t-69.5 -32.5l-12 85q37 23 81.5 35.5t91.5 12.5q92 0 134 -50t42 -170v-115q0 -39 3.5 -58t14 -27t33.5 -8h12l-12 -85h-23q-52 0 -78.5 16t-42.5 50
q-27 -31 -66 -48.5t-85 -17.5q-65 0 -106.5 40zM261.5 86q29.5 14 49.5 39v116q-180 -6 -180 -101q0 -68 72 -68q29 0 58.5 14zM110 628l129 111l129 -111v-68l-129 81l-129 -81v68zM194 -81h100v-93h-100v93z" />
    <glyph glyph-name="uni1EA7" unicode="&#x1ea7;" horiz-adv-x="488" 
d="M64.5 30q-41.5 40 -41.5 105t45.5 104t110.5 55.5t132 17.5q-1 57 -24.5 78.5t-75.5 21.5q-32 0 -63.5 -9.5t-69.5 -32.5l-12 85q37 23 81.5 35.5t91.5 12.5q92 0 134 -50t42 -170v-115q0 -39 3.5 -58t14 -27t33.5 -8h12l-12 -85h-23q-52 0 -78.5 16t-42.5 50
q-27 -31 -66 -48.5t-85 -17.5q-65 0 -106.5 40zM261.5 86q29.5 14 49.5 39v116q-180 -6 -180 -101q0 -68 72 -68q29 0 58.5 14zM247 813h100l54 -121h-69zM110 610l129 91l129 -91v-66l-129 68l-129 -68v66z" />
    <glyph glyph-name="uni1EA9" unicode="&#x1ea9;" horiz-adv-x="488" 
d="M64.5 30q-41.5 40 -41.5 105t45.5 104t110.5 55.5t132 17.5q-1 57 -24.5 78.5t-75.5 21.5q-32 0 -63.5 -9.5t-69.5 -32.5l-12 85q37 23 81.5 35.5t91.5 12.5q92 0 134 -50t42 -170v-115q0 -39 3.5 -58t14 -27t33.5 -8h12l-12 -85h-23q-52 0 -78.5 16t-42.5 50
q-27 -31 -66 -48.5t-85 -17.5q-65 0 -106.5 40zM261.5 86q29.5 14 49.5 39v116q-180 -6 -180 -101q0 -68 72 -68q29 0 58.5 14zM325 708q36 11 36 37q0 30 -39 30q-27 0 -62 -19l-17 55q35 19 80 19q43 0 71 -21t28 -58q0 -34 -21 -54.5t-66 -30.5zM110 610l129 91l129 -91
v-66l-129 68l-129 -68v66z" />
    <glyph glyph-name="uni1EAB" unicode="&#x1eab;" horiz-adv-x="488" 
d="M64.5 30q-41.5 40 -41.5 105t45.5 104t110.5 55.5t132 17.5q-1 57 -24.5 78.5t-75.5 21.5q-32 0 -63.5 -9.5t-69.5 -32.5l-12 85q37 23 81.5 35.5t91.5 12.5q92 0 134 -50t42 -170v-115q0 -39 3.5 -58t14 -27t33.5 -8h12l-12 -85h-23q-52 0 -78.5 16t-42.5 50
q-27 -31 -66 -48.5t-85 -17.5q-65 0 -106.5 40zM261.5 86q29.5 14 49.5 39v116q-180 -6 -180 -101q0 -68 72 -68q29 0 58.5 14zM291.5 745.5q-16.5 5.5 -44.5 17.5q-5 2 -26.5 10.5t-36.5 8.5q-16 0 -25 -9.5t-9 -26.5h-70q0 50 19 76t55 26q16 0 34 -5.5t43 -16.5
q44 -19 63 -19q16 0 25 9t9 26h70q0 -50 -19 -76t-55 -26q-16 0 -32.5 5.5zM110 610l129 91l129 -91v-66l-129 68l-129 -68v66z" />
    <glyph glyph-name="uni0201" unicode="&#x201;" horiz-adv-x="488" 
d="M64.5 30q-41.5 40 -41.5 105t45.5 104t110.5 55.5t132 17.5q-1 57 -24.5 78.5t-75.5 21.5q-32 0 -63.5 -9.5t-69.5 -32.5l-12 85q37 23 81.5 35.5t91.5 12.5q92 0 134 -50t42 -170v-115q0 -39 3.5 -58t14 -27t33.5 -8h12l-12 -85h-23q-52 0 -78.5 16t-42.5 50
q-27 -31 -66 -48.5t-85 -17.5q-65 0 -106.5 40zM261.5 86q29.5 14 49.5 39v116q-180 -6 -180 -101q0 -68 72 -68q29 0 58.5 14zM135 582l-105 171h105l72 -171h-72zM278 582l-99 171h106l65 -171h-72z" />
    <glyph glyph-name="adieresis" unicode="&#xe4;" horiz-adv-x="488" 
d="M64.5 30q-41.5 40 -41.5 105t45.5 104t110.5 55.5t132 17.5q-1 57 -24.5 78.5t-75.5 21.5q-32 0 -63.5 -9.5t-69.5 -32.5l-12 85q37 23 81.5 35.5t91.5 12.5q92 0 134 -50t42 -170v-115q0 -39 3.5 -58t14 -27t33.5 -8h12l-12 -85h-23q-52 0 -78.5 16t-42.5 50
q-27 -31 -66 -48.5t-85 -17.5q-65 0 -106.5 40zM261.5 86q29.5 14 49.5 39v116q-180 -6 -180 -101q0 -68 72 -68q29 0 58.5 14zM96 675h90v-84h-90v84zM292 675h90v-84h-90v84z" />
    <glyph glyph-name="uni1EA1" unicode="&#x1ea1;" horiz-adv-x="488" 
d="M64.5 30q-41.5 40 -41.5 105t45.5 104t110.5 55.5t132 17.5q-1 57 -24.5 78.5t-75.5 21.5q-32 0 -63.5 -9.5t-69.5 -32.5l-12 85q37 23 81.5 35.5t91.5 12.5q92 0 134 -50t42 -170v-115q0 -39 3.5 -58t14 -27t33.5 -8h12l-12 -85h-23q-52 0 -78.5 16t-42.5 50
q-27 -31 -66 -48.5t-85 -17.5q-65 0 -106.5 40zM261.5 86q29.5 14 49.5 39v116q-180 -6 -180 -101q0 -68 72 -68q29 0 58.5 14zM194 -81h100v-93h-100v93z" />
    <glyph glyph-name="agrave" unicode="&#xe0;" horiz-adv-x="488" 
d="M64.5 30q-41.5 40 -41.5 105t45.5 104t110.5 55.5t132 17.5q-1 57 -24.5 78.5t-75.5 21.5q-32 0 -63.5 -9.5t-69.5 -32.5l-12 85q37 23 81.5 35.5t91.5 12.5q92 0 134 -50t42 -170v-115q0 -39 3.5 -58t14 -27t33.5 -8h12l-12 -85h-23q-52 0 -78.5 16t-42.5 50
q-27 -31 -66 -48.5t-85 -17.5q-65 0 -106.5 40zM261.5 86q29.5 14 49.5 39v116q-180 -6 -180 -101q0 -68 72 -68q29 0 58.5 14zM143 648v105l191 -111v-69z" />
    <glyph glyph-name="uni1EA3" unicode="&#x1ea3;" horiz-adv-x="488" 
d="M64.5 30q-41.5 40 -41.5 105t45.5 104t110.5 55.5t132 17.5q-1 57 -24.5 78.5t-75.5 21.5q-32 0 -63.5 -9.5t-69.5 -32.5l-12 85q37 23 81.5 35.5t91.5 12.5q92 0 134 -50t42 -170v-115q0 -39 3.5 -58t14 -27t33.5 -8h12l-12 -85h-23q-52 0 -78.5 16t-42.5 50
q-27 -31 -66 -48.5t-85 -17.5q-65 0 -106.5 40zM261.5 86q29.5 14 49.5 39v116q-180 -6 -180 -101q0 -68 72 -68q29 0 58.5 14zM219 564q25 23 34 35.5t9 29.5t-10.5 25.5t-28.5 8.5q-27 0 -62 -19l-17 55q36 19 80 19q43 0 71 -22.5t28 -63.5q0 -31 -16 -53.5t-53 -49.5z
" />
    <glyph glyph-name="uni0203" unicode="&#x203;" horiz-adv-x="488" 
d="M64.5 30q-41.5 40 -41.5 105t45.5 104t110.5 55.5t132 17.5q-1 57 -24.5 78.5t-75.5 21.5q-32 0 -63.5 -9.5t-69.5 -32.5l-12 85q37 23 81.5 35.5t91.5 12.5q92 0 134 -50t42 -170v-115q0 -39 3.5 -58t14 -27t33.5 -8h12l-12 -85h-23q-52 0 -78.5 16t-42.5 50
q-27 -31 -66 -48.5t-85 -17.5q-65 0 -106.5 40zM261.5 86q29.5 14 49.5 39v116q-180 -6 -180 -101q0 -68 72 -68q29 0 58.5 14zM348.5 675q39.5 -38 39.5 -94h-82q0 30 -18.5 46t-48.5 16t-48.5 -16t-18.5 -46h-82q0 56 39.5 94t109.5 38t109.5 -38z" />
    <glyph glyph-name="amacron" unicode="&#x101;" horiz-adv-x="488" 
d="M64.5 30q-41.5 40 -41.5 105t45.5 104t110.5 55.5t132 17.5q-1 57 -24.5 78.5t-75.5 21.5q-32 0 -63.5 -9.5t-69.5 -32.5l-12 85q37 23 81.5 35.5t91.5 12.5q92 0 134 -50t42 -170v-115q0 -39 3.5 -58t14 -27t33.5 -8h12l-12 -85h-23q-52 0 -78.5 16t-42.5 50
q-27 -31 -66 -48.5t-85 -17.5q-65 0 -106.5 40zM261.5 86q29.5 14 49.5 39v116q-180 -6 -180 -101q0 -68 72 -68q29 0 58.5 14zM77 670h324v-75h-324v75z" />
    <glyph glyph-name="aogonek" unicode="&#x105;" horiz-adv-x="488" 
d="M507 -190q-38 -19 -85 -19q-44 0 -72.5 23t-28.5 64q0 34 21 65t52 52q-27 6 -43 21t-29 40q-27 -31 -66 -48.5t-85 -17.5q-65 0 -106.5 40t-41.5 105t45.5 104t110.5 55.5t132 17.5q-1 57 -24.5 78.5t-75.5 21.5q-32 0 -63.5 -9.5t-69.5 -32.5l-12 85q37 23 81.5 35.5
t91.5 12.5q92 0 134 -50t42 -170v-115q0 -39 3.5 -58t14 -27t33.5 -8h12l-12 -85h-20q-32 -26 -48.5 -48.5t-16.5 -46.5t13 -36.5t35 -12.5q30 0 62 16zM311 241q-180 -6 -180 -101q0 -68 72 -68q29 0 58.5 14t49.5 39v116z" />
    <glyph glyph-name="aring" unicode="&#xe5;" horiz-adv-x="488" 
d="M64.5 30q-41.5 40 -41.5 105t45.5 104t110.5 55.5t132 17.5q-1 57 -24.5 78.5t-75.5 21.5q-32 0 -63.5 -9.5t-69.5 -32.5l-12 85q37 23 81.5 35.5t91.5 12.5q92 0 134 -50t42 -170v-115q0 -39 3.5 -58t14 -27t33.5 -8h12l-12 -85h-23q-52 0 -78.5 16t-42.5 50
q-27 -31 -66 -48.5t-85 -17.5q-65 0 -106.5 40zM261.5 86q29.5 14 49.5 39v116q-180 -6 -180 -101q0 -68 72 -68q29 0 58.5 14zM163 597.5q-28 28.5 -28 70.5q0 40 28.5 69.5t75.5 29.5q48 0 76 -29t28 -70q0 -42 -27.5 -70.5t-76.5 -28.5q-48 0 -76 28.5zM275 630.5
q15 14.5 15 37.5q0 22 -15 36.5t-36 14.5t-36 -14.5t-15 -36.5q0 -23 15 -37.5t36 -14.5t36 14.5z" />
    <glyph glyph-name="aringacute" unicode="&#x1fb;" horiz-adv-x="488" 
d="M64.5 30q-41.5 40 -41.5 105t45.5 104t110.5 55.5t132 17.5q-1 57 -24.5 78.5t-75.5 21.5q-32 0 -63.5 -9.5t-69.5 -32.5l-12 85q37 23 81.5 35.5t91.5 12.5q92 0 134 -50t42 -170v-115q0 -39 3.5 -58t14 -27t33.5 -8h12l-12 -85h-23q-52 0 -78.5 16t-42.5 50
q-27 -31 -66 -48.5t-85 -17.5q-65 0 -106.5 40zM261.5 86q29.5 14 49.5 39v116q-180 -6 -180 -101q0 -68 72 -68q29 0 58.5 14zM163 597.5q-28 28.5 -28 70.5q0 40 28.5 69.5t75.5 29.5q48 0 76 -29t28 -70q0 -42 -27.5 -70.5t-76.5 -28.5q-48 0 -76 28.5zM275 630.5
q15 14.5 15 37.5q0 22 -15 36.5t-36 14.5t-36 -14.5t-15 -36.5q0 -23 15 -37.5t36 -14.5t36 14.5zM144 869l191 95v-100l-191 -58v63z" />
    <glyph glyph-name="atilde" unicode="&#xe3;" horiz-adv-x="488" 
d="M64.5 30q-41.5 40 -41.5 105t45.5 104t110.5 55.5t132 17.5q-1 57 -24.5 78.5t-75.5 21.5q-32 0 -63.5 -9.5t-69.5 -32.5l-12 85q37 23 81.5 35.5t91.5 12.5q92 0 134 -50t42 -170v-115q0 -39 3.5 -58t14 -27t33.5 -8h12l-12 -85h-23q-52 0 -78.5 16t-42.5 50
q-27 -31 -66 -48.5t-85 -17.5q-65 0 -106.5 40zM261.5 86q29.5 14 49.5 39v116q-180 -6 -180 -101q0 -68 72 -68q29 0 58.5 14zM287 585.5q-17 6.5 -40 18.5q-4 2 -17.5 8.5t-25 9.5t-20.5 3q-16 0 -25 -10.5t-9 -27.5h-79q2 56 24 85.5t62 29.5q17 0 34.5 -6.5t39.5 -17.5
q21 -10 35.5 -15.5t27.5 -5.5q16 0 25 10t9 27h79q-2 -56 -24 -85.5t-62 -29.5q-17 0 -34 6.5z" />
    <glyph glyph-name="ae" unicode="&#xe6;" horiz-adv-x="781" 
d="M747 236h-324q6 -81 50 -119t109 -38q62 0 139 34l10 -85q-71 -38 -158 -38q-68 0 -120 24t-86 67q-33 -41 -81.5 -66t-100.5 -25q-73 0 -117.5 38.5t-44.5 102.5q0 93 85 133.5t204 42.5q-2 53 -25 79t-76 26q-32 0 -63.5 -9.5t-69.5 -32.5l-12 85q37 23 81.5 35.5
t91.5 12.5q54 0 89.5 -16.5t56.5 -52.5q31 33 73.5 51t92.5 18q64 0 109.5 -27.5t69 -75.5t23.5 -108q0 -26 -6 -56zM646 307q0 47 -25.5 77t-73.5 30t-79.5 -27.5t-41.5 -79.5h220zM337 133q-21 46 -24 103q-94 -1 -138 -25t-44 -71q0 -34 22 -51t59 -17q72 0 125 61z" />
    <glyph glyph-name="aeacute" unicode="&#x1fd;" horiz-adv-x="781" 
d="M747 236h-324q6 -81 50 -119t109 -38q62 0 139 34l10 -85q-71 -38 -158 -38q-68 0 -120 24t-86 67q-33 -41 -81.5 -66t-100.5 -25q-73 0 -117.5 38.5t-44.5 102.5q0 93 85 133.5t204 42.5q-2 53 -25 79t-76 26q-32 0 -63.5 -9.5t-69.5 -32.5l-12 85q37 23 81.5 35.5
t91.5 12.5q54 0 89.5 -16.5t56.5 -52.5q31 33 73.5 51t92.5 18q64 0 109.5 -27.5t69 -75.5t23.5 -108q0 -26 -6 -56zM646 307q0 47 -25.5 77t-73.5 30t-79.5 -27.5t-41.5 -79.5h220zM337 133q-21 46 -24 103q-94 -1 -138 -25t-44 -71q0 -34 22 -51t59 -17q72 0 125 61z
M308 642l191 111v-105l-191 -75v69z" />
    <glyph glyph-name="b" unicode="b" horiz-adv-x="562" 
d="M427.5 468q50.5 -35 77 -93.5t26.5 -127.5q0 -71 -28 -129.5t-78.5 -93t-115.5 -34.5q-45 0 -83 15t-66 43l-6 -48h-95v750h104v-304q28 27 65.5 42t80.5 15q68 0 118.5 -35zM389.5 126.5q35.5 47.5 35.5 120.5q0 74 -35 120.5t-95 46.5q-62 0 -99.5 -44t-37.5 -123
q0 -81 37 -124.5t100 -43.5q59 0 94.5 47.5z" />
    <glyph glyph-name="c" unicode="c" horiz-adv-x="454" 
d="M148 23.5q-58 33.5 -87.5 91.5t-29.5 130q0 74 29 132.5t88 92.5t145 34q77 0 134 -30l-12 -88q-56 28 -118 28q-76 0 -117.5 -44.5t-41.5 -122.5q0 -76 41.5 -122t116.5 -46q63 0 120 31l12 -86q-24 -15 -62 -24.5t-78 -9.5q-82 0 -140 33.5z" />
    <glyph glyph-name="cacute" unicode="&#x107;" horiz-adv-x="454" 
d="M148 23.5q-58 33.5 -87.5 91.5t-29.5 130q0 74 29 132.5t88 92.5t145 34q77 0 134 -30l-12 -88q-56 28 -118 28q-76 0 -117.5 -44.5t-41.5 -122.5q0 -76 41.5 -122t116.5 -46q63 0 120 31l12 -86q-24 -15 -62 -24.5t-78 -9.5q-82 0 -140 33.5zM177 642l191 111v-105
l-191 -75v69z" />
    <glyph glyph-name="ccaron" unicode="&#x10d;" horiz-adv-x="454" 
d="M148 23.5q-58 33.5 -87.5 91.5t-29.5 130q0 74 29 132.5t88 92.5t145 34q77 0 134 -30l-12 -88q-56 28 -118 28q-76 0 -117.5 -44.5t-41.5 -122.5q0 -76 41.5 -122t116.5 -46q63 0 120 31l12 -86q-24 -15 -62 -24.5t-78 -9.5q-82 0 -140 33.5zM143 669v69l129 -81l129 81
v-69l-129 -111z" />
    <glyph glyph-name="ccedilla" unicode="&#xe7;" horiz-adv-x="454" 
d="M352 -76.5q24 -22.5 24 -61.5q0 -44 -31 -69t-78 -25q-46 0 -80 19l17 54q31 -17 64 -17q22 0 34.5 9t12.5 27q0 37 -50 37q-23 0 -47 -7l25 103q-102 13 -157 82.5t-55 169.5q0 74 29 132.5t88 92.5t145 34q77 0 134 -30l-12 -88q-56 28 -118 28q-76 0 -117.5 -44.5
t-41.5 -122.5q0 -76 41.5 -122t116.5 -46q63 0 120 31l12 -86q-24 -14 -60 -23.5t-74 -10.5l-14 -44h6q42 0 66 -22.5z" />
    <glyph glyph-name="uni1E09" unicode="&#x1e09;" horiz-adv-x="454" 
d="M368 648l-191 -75v69l191 111v-105zM352 -76.5q24 -22.5 24 -61.5q0 -44 -31 -69t-78 -25q-46 0 -80 19l17 54q31 -17 64 -17q22 0 34.5 9t12.5 27q0 37 -50 37q-23 0 -47 -7l25 103q-102 13 -157 82.5t-55 169.5q0 74 29 132.5t88 92.5t145 34q77 0 134 -30l-12 -88
q-56 28 -118 28q-76 0 -117.5 -44.5t-41.5 -122.5q0 -76 41.5 -122t116.5 -46q63 0 120 31l12 -86q-24 -14 -60 -23.5t-74 -10.5l-14 -44h6q42 0 66 -22.5z" />
    <glyph glyph-name="ccircumflex" unicode="&#x109;" horiz-adv-x="454" 
d="M148 23.5q-58 33.5 -87.5 91.5t-29.5 130q0 74 29 132.5t88 92.5t145 34q77 0 134 -30l-12 -88q-56 28 -118 28q-76 0 -117.5 -44.5t-41.5 -122.5q0 -76 41.5 -122t116.5 -46q63 0 120 31l12 -86q-24 -15 -62 -24.5t-78 -9.5q-82 0 -140 33.5zM143 628l129 111l129 -111
v-68l-129 81l-129 -81v68z" />
    <glyph glyph-name="cdotaccent" unicode="&#x10b;" horiz-adv-x="454" 
d="M148 23.5q-58 33.5 -87.5 91.5t-29.5 130q0 74 29 132.5t88 92.5t145 34q77 0 134 -30l-12 -88q-56 28 -118 28q-76 0 -117.5 -44.5t-41.5 -122.5q0 -76 41.5 -122t116.5 -46q63 0 120 31l12 -86q-24 -15 -62 -24.5t-78 -9.5q-82 0 -140 33.5zM222 689h100v-93h-100v93z
" />
    <glyph glyph-name="d" unicode="d" horiz-adv-x="562" 
d="M503 750v-750h-96l-6 47q-55 -57 -144 -57q-66 0 -118 34t-80.5 93t-28.5 129q0 69 27.5 128t79 94t120.5 35q88 0 142 -53v300h104zM369.5 122.5q37.5 43.5 37.5 123.5q0 77 -38 122.5t-95 45.5q-63 0 -100 -46.5t-37 -121.5q0 -72 37 -119.5t100 -47.5q58 0 95.5 43.5z
" />
    <glyph glyph-name="eth" unicode="&#xf0;" horiz-adv-x="510" 
d="M445.5 446q33.5 -89 33.5 -189q0 -89 -32 -149.5t-85 -90t-116 -29.5q-65 0 -116 29t-79 78.5t-28 109.5q0 58 26 108.5t75 81.5t113 31q79 0 125 -48q-14 110 -80 182l-114 -65l-35 58l94 53q-43 27 -94 40l18 55q77 -13 143 -57l98 56l34 -58l-77 -44q63 -63 96.5 -152
zM337 115q33 37 33 93t-33 92.5t-89 36.5t-89 -37.5t-33 -91.5q0 -56 33 -93t90 -37q55 0 88 37z" />
    <glyph glyph-name="dcaron" unicode="&#x10f;" horiz-adv-x="628" 
d="M503 750v-750h-96l-6 47q-55 -57 -144 -57q-66 0 -118 34t-80.5 93t-28.5 129q0 69 27.5 128t79 94t120.5 35q88 0 142 -53v300h104zM369.5 122.5q37.5 43.5 37.5 123.5q0 77 -38 122.5t-95 45.5q-63 0 -100 -46.5t-37 -121.5q0 -72 37 -119.5t100 -47.5q58 0 95.5 43.5z
M551 750h96l-28 -171h-68v171z" />
    <glyph glyph-name="dcroat" unicode="&#x111;" horiz-adv-x="563" 
d="M577 587h-74v-587h-96l-6 47q-55 -57 -144 -57q-66 0 -118 34t-80.5 93t-28.5 129q0 69 27.5 128t79 94t120.5 35q88 0 142 -53v137h-150v76h150v87h104v-87h74v-76zM369.5 122.5q37.5 43.5 37.5 123.5q0 77 -38 122.5t-95 45.5q-63 0 -100 -46.5t-37 -121.5
q0 -72 37 -119.5t100 -47.5q58 0 95.5 43.5z" />
    <glyph glyph-name="uni1E0D" unicode="&#x1e0d;" horiz-adv-x="562" 
d="M503 750v-750h-96l-6 47q-55 -57 -144 -57q-66 0 -118 34t-80.5 93t-28.5 129q0 69 27.5 128t79 94t120.5 35q88 0 142 -53v300h104zM369.5 122.5q37.5 43.5 37.5 123.5q0 77 -38 122.5t-95 45.5q-63 0 -100 -46.5t-37 -121.5q0 -72 37 -119.5t100 -47.5q58 0 95.5 43.5z
M231 -81h100v-93h-100v93z" />
    <glyph glyph-name="uni1E0F" unicode="&#x1e0f;" horiz-adv-x="562" 
d="M503 750v-750h-96l-6 47q-55 -57 -144 -57q-66 0 -118 34t-80.5 93t-28.5 129q0 69 27.5 128t79 94t120.5 35q88 0 142 -53v300h104zM369.5 122.5q37.5 43.5 37.5 123.5q0 77 -38 122.5t-95 45.5q-63 0 -100 -46.5t-37 -121.5q0 -72 37 -119.5t100 -47.5q58 0 95.5 43.5z
M119 -91h324v-75h-324v75z" />
    <glyph glyph-name="uni01C6" unicode="&#x1c6;" horiz-adv-x="1033" 
d="M503 750v-750h-96l-6 47q-55 -57 -144 -57q-66 0 -118 34t-80.5 93t-28.5 129q0 69 27.5 128t79 94t120.5 35q88 0 142 -53v300h104zM369.5 122.5q37.5 43.5 37.5 123.5q0 77 -38 122.5t-95 45.5q-63 0 -100 -46.5t-37 -121.5q0 -72 37 -119.5t100 -47.5q58 0 95.5 43.5z
M751 90h259v-90h-428l261 404h-242v90h411zM675 675v69l129 -81l129 81v-69l-129 -111z" />
    <glyph glyph-name="e" unicode="e" horiz-adv-x="513" 
d="M151.5 25q-60.5 35 -91 94t-30.5 132q0 69 28.5 126.5t83 91.5t129.5 34q98 0 156 -57.5t58 -153.5q0 -26 -6 -56h-342q10 -83 55.5 -120t115.5 -37q79 0 145 34l10 -85q-80 -38 -166 -38q-85 0 -145.5 35zM378 307q0 47 -27 77t-81 30q-101 0 -127 -107h235z" />
    <glyph glyph-name="eacute" unicode="&#xe9;" horiz-adv-x="513" 
d="M151.5 25q-60.5 35 -91 94t-30.5 132q0 69 28.5 126.5t83 91.5t129.5 34q98 0 156 -57.5t58 -153.5q0 -26 -6 -56h-342q10 -83 55.5 -120t115.5 -37q79 0 145 34l10 -85q-80 -38 -166 -38q-85 0 -145.5 35zM378 307q0 47 -27 77t-81 30q-101 0 -127 -107h235zM184 642
l191 111v-105l-191 -75v69z" />
    <glyph glyph-name="ebreve" unicode="&#x115;" horiz-adv-x="513" 
d="M151.5 25q-60.5 35 -91 94t-30.5 132q0 69 28.5 126.5t83 91.5t129.5 34q98 0 156 -57.5t58 -153.5q0 -26 -6 -56h-342q10 -83 55.5 -120t115.5 -37q79 0 145 34l10 -85q-80 -38 -166 -38q-85 0 -145.5 35zM378 307q0 47 -27 77t-81 30q-101 0 -127 -107h235zM169.5 619
q-39.5 38 -39.5 94h82q0 -30 18.5 -46.5t48.5 -16.5t48.5 16.5t18.5 46.5h82q0 -56 -39.5 -94t-109.5 -38t-109.5 38z" />
    <glyph glyph-name="ecaron" unicode="&#x11b;" horiz-adv-x="513" 
d="M151.5 25q-60.5 35 -91 94t-30.5 132q0 69 28.5 126.5t83 91.5t129.5 34q98 0 156 -57.5t58 -153.5q0 -26 -6 -56h-342q10 -83 55.5 -120t115.5 -37q79 0 145 34l10 -85q-80 -38 -166 -38q-85 0 -145.5 35zM378 307q0 47 -27 77t-81 30q-101 0 -127 -107h235zM150 669v69
l129 -81l129 81v-69l-129 -111z" />
    <glyph glyph-name="uni1E1D" unicode="&#x1e1d;" horiz-adv-x="513" 
d="M169.5 619q-39.5 38 -39.5 94h82q0 -30 18.5 -46.5t48.5 -16.5t48.5 16.5t18.5 46.5h82q0 -56 -39.5 -94t-109.5 -38t-109.5 38zM479 236h-342q10 -83 55.5 -120t115.5 -37q79 0 145 34l10 -85q-80 -38 -166 -38h-14l-14 -44h6q42 0 66 -22.5t24 -61.5q0 -44 -31 -69
t-78 -25q-46 0 -80 19l17 54q31 -17 64 -17q22 0 34.5 9t12.5 27q0 37 -50 37q-23 0 -47 -7l26 106q-97 18 -150 88t-53 167q0 69 28.5 126.5t83 91.5t129.5 34q98 0 156 -57.5t58 -153.5q0 -26 -6 -56zM378 307q0 47 -27 77t-81 30q-101 0 -127 -107h235z" />
    <glyph glyph-name="ecircumflex" unicode="&#xea;" horiz-adv-x="513" 
d="M151.5 25q-60.5 35 -91 94t-30.5 132q0 69 28.5 126.5t83 91.5t129.5 34q98 0 156 -57.5t58 -153.5q0 -26 -6 -56h-342q10 -83 55.5 -120t115.5 -37q79 0 145 34l10 -85q-80 -38 -166 -38q-85 0 -145.5 35zM378 307q0 47 -27 77t-81 30q-101 0 -127 -107h235zM150 628
l129 111l129 -111v-68l-129 81l-129 -81v68z" />
    <glyph glyph-name="uni1EBF" unicode="&#x1ebf;" horiz-adv-x="513" 
d="M151.5 25q-60.5 35 -91 94t-30.5 132q0 69 28.5 126.5t83 91.5t129.5 34q98 0 156 -57.5t58 -153.5q0 -26 -6 -56h-342q10 -83 55.5 -120t115.5 -37q79 0 145 34l10 -85q-80 -38 -166 -38q-85 0 -145.5 35zM378 307q0 47 -27 77t-81 30q-101 0 -127 -107h235zM420 813
h106l-100 -121h-72zM150 610l129 91l129 -91v-66l-129 68l-129 -68v66z" />
    <glyph glyph-name="uni1EC7" unicode="&#x1ec7;" horiz-adv-x="513" 
d="M151.5 25q-60.5 35 -91 94t-30.5 132q0 69 28.5 126.5t83 91.5t129.5 34q98 0 156 -57.5t58 -153.5q0 -26 -6 -56h-342q10 -83 55.5 -120t115.5 -37q79 0 145 34l10 -85q-80 -38 -166 -38q-85 0 -145.5 35zM378 307q0 47 -27 77t-81 30q-101 0 -127 -107h235zM150 628
l129 111l129 -111v-68l-129 81l-129 -81v68zM207 -81h100v-93h-100v93z" />
    <glyph glyph-name="uni1EC1" unicode="&#x1ec1;" horiz-adv-x="513" 
d="M151.5 25q-60.5 35 -91 94t-30.5 132q0 69 28.5 126.5t83 91.5t129.5 34q98 0 156 -57.5t58 -153.5q0 -26 -6 -56h-342q10 -83 55.5 -120t115.5 -37q79 0 145 34l10 -85q-80 -38 -166 -38q-85 0 -145.5 35zM378 307q0 47 -27 77t-81 30q-101 0 -127 -107h235zM287 813
h100l54 -121h-69zM150 610l129 91l129 -91v-66l-129 68l-129 -68v66z" />
    <glyph glyph-name="uni1EC3" unicode="&#x1ec3;" horiz-adv-x="513" 
d="M151.5 25q-60.5 35 -91 94t-30.5 132q0 69 28.5 126.5t83 91.5t129.5 34q98 0 156 -57.5t58 -153.5q0 -26 -6 -56h-342q10 -83 55.5 -120t115.5 -37q79 0 145 34l10 -85q-80 -38 -166 -38q-85 0 -145.5 35zM378 307q0 47 -27 77t-81 30q-101 0 -127 -107h235zM365 708
q36 11 36 37q0 30 -39 30q-27 0 -62 -19l-17 55q35 19 80 19q43 0 71 -21t28 -58q0 -34 -21 -54.5t-66 -30.5zM150 610l129 91l129 -91v-66l-129 68l-129 -68v66z" />
    <glyph glyph-name="uni1EC5" unicode="&#x1ec5;" horiz-adv-x="513" 
d="M151.5 25q-60.5 35 -91 94t-30.5 132q0 69 28.5 126.5t83 91.5t129.5 34q98 0 156 -57.5t58 -153.5q0 -26 -6 -56h-342q10 -83 55.5 -120t115.5 -37q79 0 145 34l10 -85q-80 -38 -166 -38q-85 0 -145.5 35zM378 307q0 47 -27 77t-81 30q-101 0 -127 -107h235z
M331.5 745.5q-16.5 5.5 -44.5 17.5q-5 2 -26.5 10.5t-36.5 8.5q-16 0 -25 -9.5t-9 -26.5h-70q0 50 19 76t55 26q16 0 34 -5.5t43 -16.5q44 -19 63 -19q16 0 25 9t9 26h70q0 -50 -19 -76t-55 -26q-16 0 -32.5 5.5zM150 610l129 91l129 -91v-66l-129 68l-129 -68v66z" />
    <glyph glyph-name="uni0205" unicode="&#x205;" horiz-adv-x="513" 
d="M151.5 25q-60.5 35 -91 94t-30.5 132q0 69 28.5 126.5t83 91.5t129.5 34q98 0 156 -57.5t58 -153.5q0 -26 -6 -56h-342q10 -83 55.5 -120t115.5 -37q79 0 145 34l10 -85q-80 -38 -166 -38q-85 0 -145.5 35zM378 307q0 47 -27 77t-81 30q-101 0 -127 -107h235zM175 582
l-105 171h105l72 -171h-72zM318 582l-99 171h106l65 -171h-72z" />
    <glyph glyph-name="edieresis" unicode="&#xeb;" horiz-adv-x="513" 
d="M151.5 25q-60.5 35 -91 94t-30.5 132q0 69 28.5 126.5t83 91.5t129.5 34q98 0 156 -57.5t58 -153.5q0 -26 -6 -56h-342q10 -83 55.5 -120t115.5 -37q79 0 145 34l10 -85q-80 -38 -166 -38q-85 0 -145.5 35zM378 307q0 47 -27 77t-81 30q-101 0 -127 -107h235zM136 675h90
v-84h-90v84zM332 675h90v-84h-90v84z" />
    <glyph glyph-name="edotaccent" unicode="&#x117;" horiz-adv-x="513" 
d="M151.5 25q-60.5 35 -91 94t-30.5 132q0 69 28.5 126.5t83 91.5t129.5 34q98 0 156 -57.5t58 -153.5q0 -26 -6 -56h-342q10 -83 55.5 -120t115.5 -37q79 0 145 34l10 -85q-80 -38 -166 -38q-85 0 -145.5 35zM378 307q0 47 -27 77t-81 30q-101 0 -127 -107h235zM229 689
h100v-93h-100v93z" />
    <glyph glyph-name="uni1EB9" unicode="&#x1eb9;" horiz-adv-x="513" 
d="M151.5 25q-60.5 35 -91 94t-30.5 132q0 69 28.5 126.5t83 91.5t129.5 34q98 0 156 -57.5t58 -153.5q0 -26 -6 -56h-342q10 -83 55.5 -120t115.5 -37q79 0 145 34l10 -85q-80 -38 -166 -38q-85 0 -145.5 35zM378 307q0 47 -27 77t-81 30q-101 0 -127 -107h235zM207 -81
h100v-93h-100v93z" />
    <glyph glyph-name="egrave" unicode="&#xe8;" horiz-adv-x="513" 
d="M151.5 25q-60.5 35 -91 94t-30.5 132q0 69 28.5 126.5t83 91.5t129.5 34q98 0 156 -57.5t58 -153.5q0 -26 -6 -56h-342q10 -83 55.5 -120t115.5 -37q79 0 145 34l10 -85q-80 -38 -166 -38q-85 0 -145.5 35zM378 307q0 47 -27 77t-81 30q-101 0 -127 -107h235zM183 648
v105l191 -111v-69z" />
    <glyph glyph-name="uni1EBB" unicode="&#x1ebb;" horiz-adv-x="513" 
d="M151.5 25q-60.5 35 -91 94t-30.5 132q0 69 28.5 126.5t83 91.5t129.5 34q98 0 156 -57.5t58 -153.5q0 -26 -6 -56h-342q10 -83 55.5 -120t115.5 -37q79 0 145 34l10 -85q-80 -38 -166 -38q-85 0 -145.5 35zM378 307q0 47 -27 77t-81 30q-101 0 -127 -107h235zM259 564
q25 23 34 35.5t9 29.5t-10.5 25.5t-28.5 8.5q-27 0 -62 -19l-17 55q36 19 80 19q43 0 71 -22.5t28 -63.5q0 -31 -16 -53.5t-53 -49.5z" />
    <glyph glyph-name="uni0207" unicode="&#x207;" horiz-adv-x="513" 
d="M151.5 25q-60.5 35 -91 94t-30.5 132q0 69 28.5 126.5t83 91.5t129.5 34q98 0 156 -57.5t58 -153.5q0 -26 -6 -56h-342q10 -83 55.5 -120t115.5 -37q79 0 145 34l10 -85q-80 -38 -166 -38q-85 0 -145.5 35zM378 307q0 47 -27 77t-81 30q-101 0 -127 -107h235zM388.5 675
q39.5 -38 39.5 -94h-82q0 30 -18.5 46t-48.5 16t-48.5 -16t-18.5 -46h-82q0 56 39.5 94t109.5 38t109.5 -38z" />
    <glyph glyph-name="emacron" unicode="&#x113;" horiz-adv-x="513" 
d="M151.5 25q-60.5 35 -91 94t-30.5 132q0 69 28.5 126.5t83 91.5t129.5 34q98 0 156 -57.5t58 -153.5q0 -26 -6 -56h-342q10 -83 55.5 -120t115.5 -37q79 0 145 34l10 -85q-80 -38 -166 -38q-85 0 -145.5 35zM378 307q0 47 -27 77t-81 30q-101 0 -127 -107h235zM117 670
h324v-75h-324v75z" />
    <glyph glyph-name="uni1E17" unicode="&#x1e17;" horiz-adv-x="513" 
d="M151.5 25q-60.5 35 -91 94t-30.5 132q0 69 28.5 126.5t83 91.5t129.5 34q98 0 156 -57.5t58 -153.5q0 -26 -6 -56h-342q10 -83 55.5 -120t115.5 -37q79 0 145 34l10 -85q-80 -38 -166 -38q-85 0 -145.5 35zM378 307q0 47 -27 77t-81 30q-101 0 -127 -107h235zM117 659
h324v-72h-324v72zM184 791l191 95v-100l-191 -58v63z" />
    <glyph glyph-name="uni1E15" unicode="&#x1e15;" horiz-adv-x="513" 
d="M151.5 25q-60.5 35 -91 94t-30.5 132q0 69 28.5 126.5t83 91.5t129.5 34q98 0 156 -57.5t58 -153.5q0 -26 -6 -56h-342q10 -83 55.5 -120t115.5 -37q79 0 145 34l10 -85q-80 -38 -166 -38q-85 0 -145.5 35zM378 307q0 47 -27 77t-81 30q-101 0 -127 -107h235zM117 659
h324v-72h-324v72zM183 786v100l191 -95v-63z" />
    <glyph glyph-name="eogonek" unicode="&#x119;" horiz-adv-x="513" 
d="M511 -162q-38 -19 -85 -19q-44 0 -72.5 23t-28.5 64q0 47 42 91q-31 -7 -70 -7q-85 0 -145.5 35t-91 94t-30.5 132q0 69 28.5 126.5t83 91.5t129.5 34q98 0 156 -57.5t58 -153.5q0 -26 -6 -56h-342q10 -83 55.5 -120t115.5 -37q79 0 145 34l10 -85q-38 -29 -58 -54.5
t-20 -50.5q0 -24 13 -36.5t35 -12.5q30 0 62 16zM143 307h235q0 47 -27 77t-81 30q-101 0 -127 -107z" />
    <glyph glyph-name="uni1EBD" unicode="&#x1ebd;" horiz-adv-x="513" 
d="M151.5 25q-60.5 35 -91 94t-30.5 132q0 69 28.5 126.5t83 91.5t129.5 34q98 0 156 -57.5t58 -153.5q0 -26 -6 -56h-342q10 -83 55.5 -120t115.5 -37q79 0 145 34l10 -85q-80 -38 -166 -38q-85 0 -145.5 35zM378 307q0 47 -27 77t-81 30q-101 0 -127 -107h235zM327 585.5
q-17 6.5 -40 18.5q-4 2 -17.5 8.5t-25 9.5t-20.5 3q-16 0 -25 -10.5t-9 -27.5h-79q2 56 24 85.5t62 29.5q17 0 34.5 -6.5t39.5 -17.5q21 -10 35.5 -15.5t27.5 -5.5q16 0 25 10t9 27h79q-2 -56 -24 -85.5t-62 -29.5q-17 0 -34 6.5z" />
    <glyph glyph-name="uni0259" unicode="&#x259;" horiz-adv-x="513" 
d="M361.5 469q60.5 -35 91 -94t30.5 -132q0 -69 -28.5 -126.5t-83 -91.5t-129.5 -34q-98 0 -156 57.5t-58 153.5q0 26 6 56h342q-10 83 -55.5 120t-115.5 37q-79 0 -145 -34l-10 85q80 38 166 38q85 0 145.5 -35zM135 187q0 -47 27 -77t81 -30q101 0 127 107h-235z" />
    <glyph glyph-name="f" unicode="f" horiz-adv-x="335" 
d="M92 411h-79l12 83h67v112q0 67 37.5 105.5t106.5 38.5q41 0 79 -11l-12 -86q-25 7 -46 7q-61 0 -61 -67v-99h123v-83h-123v-411h-104v411z" />
    <glyph glyph-name="g" unicode="g" horiz-adv-x="499" 
d="M89 -212.5q-64 38.5 -64 106.5q0 74 83 116q-46 25 -46 66q0 47 55 71q-40 25 -61 67.5t-21 95.5q0 54 24 98t70 70t109 26q66 0 117 -35q48 26 116 26h18l-10 -67h-32q-24 0 -44 -5q37 -48 37 -113q0 -55 -24 -100t-70 -71t-108 -26q-31 0 -61 8q-18 -6 -18 -22
q0 -12 14.5 -20t46.5 -12l112 -17q82 -12 125 -47t43 -96q0 -75 -64.5 -116.5t-177.5 -41.5q-105 0 -169 38.5zM315.5 224.5q27.5 31.5 27.5 84.5q0 52 -27.5 83.5t-77.5 31.5q-51 0 -78.5 -31.5t-27.5 -83.5q0 -53 27.5 -84.5t78.5 -31.5q50 0 77.5 31.5zM401 -98
q0 27 -22 41.5t-70 23.5l-127 20q-64 -27 -64 -75q0 -39 38.5 -58t107.5 -19q137 0 137 67z" />
    <glyph glyph-name="gbreve" unicode="&#x11f;" horiz-adv-x="499" 
d="M89 -212.5q-64 38.5 -64 106.5q0 74 83 116q-46 25 -46 66q0 47 55 71q-40 25 -61 67.5t-21 95.5q0 54 24 98t70 70t109 26q66 0 117 -35q48 26 116 26h18l-10 -67h-32q-24 0 -44 -5q37 -48 37 -113q0 -55 -24 -100t-70 -71t-108 -26q-31 0 -61 8q-18 -6 -18 -22
q0 -12 14.5 -20t46.5 -12l112 -17q82 -12 125 -47t43 -96q0 -75 -64.5 -116.5t-177.5 -41.5q-105 0 -169 38.5zM315.5 224.5q27.5 31.5 27.5 84.5q0 52 -27.5 83.5t-77.5 31.5q-51 0 -78.5 -31.5t-27.5 -83.5q0 -53 27.5 -84.5t78.5 -31.5q50 0 77.5 31.5zM401 -98
q0 27 -22 41.5t-70 23.5l-127 20q-64 -27 -64 -75q0 -39 38.5 -58t107.5 -19q137 0 137 67zM142.5 619q-39.5 38 -39.5 94h82q0 -30 18.5 -46.5t48.5 -16.5t48.5 16.5t18.5 46.5h82q0 -56 -39.5 -94t-109.5 -38t-109.5 38z" />
    <glyph glyph-name="gcaron" unicode="&#x1e7;" horiz-adv-x="499" 
d="M89 -212.5q-64 38.5 -64 106.5q0 74 83 116q-46 25 -46 66q0 47 55 71q-40 25 -61 67.5t-21 95.5q0 54 24 98t70 70t109 26q66 0 117 -35q48 26 116 26h18l-10 -67h-32q-24 0 -44 -5q37 -48 37 -113q0 -55 -24 -100t-70 -71t-108 -26q-31 0 -61 8q-18 -6 -18 -22
q0 -12 14.5 -20t46.5 -12l112 -17q82 -12 125 -47t43 -96q0 -75 -64.5 -116.5t-177.5 -41.5q-105 0 -169 38.5zM315.5 224.5q27.5 31.5 27.5 84.5q0 52 -27.5 83.5t-77.5 31.5q-51 0 -78.5 -31.5t-27.5 -83.5q0 -53 27.5 -84.5t78.5 -31.5q50 0 77.5 31.5zM401 -98
q0 27 -22 41.5t-70 23.5l-127 20q-64 -27 -64 -75q0 -39 38.5 -58t107.5 -19q137 0 137 67zM123 669v69l129 -81l129 81v-69l-129 -111z" />
    <glyph glyph-name="gcircumflex" unicode="&#x11d;" horiz-adv-x="499" 
d="M89 -212.5q-64 38.5 -64 106.5q0 74 83 116q-46 25 -46 66q0 47 55 71q-40 25 -61 67.5t-21 95.5q0 54 24 98t70 70t109 26q66 0 117 -35q48 26 116 26h18l-10 -67h-32q-24 0 -44 -5q37 -48 37 -113q0 -55 -24 -100t-70 -71t-108 -26q-31 0 -61 8q-18 -6 -18 -22
q0 -12 14.5 -20t46.5 -12l112 -17q82 -12 125 -47t43 -96q0 -75 -64.5 -116.5t-177.5 -41.5q-105 0 -169 38.5zM315.5 224.5q27.5 31.5 27.5 84.5q0 52 -27.5 83.5t-77.5 31.5q-51 0 -78.5 -31.5t-27.5 -83.5q0 -53 27.5 -84.5t78.5 -31.5q50 0 77.5 31.5zM401 -98
q0 27 -22 41.5t-70 23.5l-127 20q-64 -27 -64 -75q0 -39 38.5 -58t107.5 -19q137 0 137 67zM123 628l129 111l129 -111v-68l-129 81l-129 -81v68z" />
    <glyph glyph-name="gcommaaccent" unicode="&#x123;" horiz-adv-x="499" 
d="M89 -212.5q-64 38.5 -64 106.5q0 74 83 116q-46 25 -46 66q0 47 55 71q-40 25 -61 67.5t-21 95.5q0 54 24 98t70 70t109 26q66 0 117 -35q48 26 116 26h18l-10 -67h-32q-24 0 -44 -5q37 -48 37 -113q0 -55 -24 -100t-70 -71t-108 -26q-31 0 -61 8q-18 -6 -18 -22
q0 -12 14.5 -20t46.5 -12l112 -17q82 -12 125 -47t43 -96q0 -75 -64.5 -116.5t-177.5 -41.5q-105 0 -169 38.5zM315.5 224.5q27.5 31.5 27.5 84.5q0 52 -27.5 83.5t-77.5 31.5q-51 0 -78.5 -31.5t-27.5 -83.5q0 -53 27.5 -84.5t78.5 -31.5q50 0 77.5 31.5zM401 -98
q0 27 -22 41.5t-70 23.5l-127 20q-64 -27 -64 -75q0 -39 38.5 -58t107.5 -19q137 0 137 67zM306 798l-37 -108h40v-109h-114v98l56 119h55z" />
    <glyph glyph-name="gdotaccent" unicode="&#x121;" horiz-adv-x="499" 
d="M89 -212.5q-64 38.5 -64 106.5q0 74 83 116q-46 25 -46 66q0 47 55 71q-40 25 -61 67.5t-21 95.5q0 54 24 98t70 70t109 26q66 0 117 -35q48 26 116 26h18l-10 -67h-32q-24 0 -44 -5q37 -48 37 -113q0 -55 -24 -100t-70 -71t-108 -26q-31 0 -61 8q-18 -6 -18 -22
q0 -12 14.5 -20t46.5 -12l112 -17q82 -12 125 -47t43 -96q0 -75 -64.5 -116.5t-177.5 -41.5q-105 0 -169 38.5zM315.5 224.5q27.5 31.5 27.5 84.5q0 52 -27.5 83.5t-77.5 31.5q-51 0 -78.5 -31.5t-27.5 -83.5q0 -53 27.5 -84.5t78.5 -31.5q50 0 77.5 31.5zM401 -98
q0 27 -22 41.5t-70 23.5l-127 20q-64 -27 -64 -75q0 -39 38.5 -58t107.5 -19q137 0 137 67zM202 689h100v-93h-100v93z" />
    <glyph glyph-name="uni1E21" unicode="&#x1e21;" horiz-adv-x="499" 
d="M89 -212.5q-64 38.5 -64 106.5q0 74 83 116q-46 25 -46 66q0 47 55 71q-40 25 -61 67.5t-21 95.5q0 54 24 98t70 70t109 26q66 0 117 -35q48 26 116 26h18l-10 -67h-32q-24 0 -44 -5q37 -48 37 -113q0 -55 -24 -100t-70 -71t-108 -26q-31 0 -61 8q-18 -6 -18 -22
q0 -12 14.5 -20t46.5 -12l112 -17q82 -12 125 -47t43 -96q0 -75 -64.5 -116.5t-177.5 -41.5q-105 0 -169 38.5zM315.5 224.5q27.5 31.5 27.5 84.5q0 52 -27.5 83.5t-77.5 31.5q-51 0 -78.5 -31.5t-27.5 -83.5q0 -53 27.5 -84.5t78.5 -31.5q50 0 77.5 31.5zM401 -98
q0 27 -22 41.5t-70 23.5l-127 20q-64 -27 -64 -75q0 -39 38.5 -58t107.5 -19q137 0 137 67zM90 670h324v-75h-324v75z" />
    <glyph glyph-name="h" unicode="h" horiz-adv-x="546" 
d="M443 442q48 -61 48 -167v-275h-104v265q0 77 -27 113t-84 36q-69 0 -112 -56v-358h-105v750h105v-296q29 24 61.5 36.5t75.5 12.5q94 0 142 -61z" />
    <glyph glyph-name="hbar" unicode="&#x127;" horiz-adv-x="548" 
d="M448 441q45 -62 45 -172v-269h-105v265q0 80 -24.5 114.5t-83.5 34.5q-39 0 -67 -13.5t-48 -41.5v-359h-105v587h-73v76h73v87h105v-87h150v-76h-150v-137q56 53 142 53q96 0 141 -62z" />
    <glyph glyph-name="uni1E2B" unicode="&#x1e2b;" horiz-adv-x="546" 
d="M443 442q48 -61 48 -167v-275h-104v265q0 77 -27 113t-84 36q-69 0 -112 -56v-358h-105v750h105v-296q29 24 61.5 36.5t75.5 12.5q94 0 142 -61zM165.5 -185q-39.5 38 -39.5 94h82q0 -30 18.5 -46.5t48.5 -16.5t48.5 16.5t18.5 46.5h82q0 -56 -39.5 -94t-109.5 -38
t-109.5 38z" />
    <glyph glyph-name="hcircumflex" unicode="&#x125;" horiz-adv-x="546" 
d="M443 442q48 -61 48 -167v-275h-104v265q0 77 -27 113t-84 36q-69 0 -112 -56v-358h-105v750h105v-296q29 24 61.5 36.5t75.5 12.5q94 0 142 -61zM-17 850l129 91l129 -91v-66l-129 68l-129 -68v66z" />
    <glyph glyph-name="uni1E25" unicode="&#x1e25;" horiz-adv-x="546" 
d="M443 442q48 -61 48 -167v-275h-104v265q0 77 -27 113t-84 36q-69 0 -112 -56v-358h-105v750h105v-296q29 24 61.5 36.5t75.5 12.5q94 0 142 -61zM225 -81h100v-93h-100v93z" />
    <glyph glyph-name="i" unicode="i" horiz-adv-x="224" 
d="M60 700h104v-110h-104v110zM60 494h104v-494h-104v494z" />
    <glyph glyph-name="dotlessi" unicode="&#x131;" horiz-adv-x="224" 
d="M60 494h104v-494h-104v494z" />
    <glyph glyph-name="iacute" unicode="&#xed;" horiz-adv-x="224" 
d="M60 494h104v-494h-104v494zM17 642l191 111v-105l-191 -75v69z" />
    <glyph glyph-name="ibreve" unicode="&#x12d;" horiz-adv-x="224" 
d="M60 494h104v-494h-104v494zM2.5 619q-39.5 38 -39.5 94h82q0 -30 18.5 -46.5t48.5 -16.5t48.5 16.5t18.5 46.5h82q0 -56 -39.5 -94t-109.5 -38t-109.5 38z" />
    <glyph glyph-name="icircumflex" unicode="&#xee;" horiz-adv-x="224" 
d="M60 494h104v-494h-104v494zM-17 628l129 111l129 -111v-68l-129 81l-129 -81v68z" />
    <glyph glyph-name="uni0209" unicode="&#x209;" horiz-adv-x="224" 
d="M60 494h104v-494h-104v494zM8 582l-105 171h105l72 -171h-72zM151 582l-99 171h106l65 -171h-72z" />
    <glyph glyph-name="idieresis" unicode="&#xef;" horiz-adv-x="224" 
d="M60 494h104v-494h-104v494zM-31 675h90v-84h-90v84zM165 675h90v-84h-90v84z" />
    <glyph glyph-name="uni1E2F" unicode="&#x1e2f;" horiz-adv-x="224" 
d="M60 494h104v-494h-104v494zM-31 663h90v-79h-90v79zM165 663h90v-79h-90v79zM17 775l191 95v-100l-191 -58v63z" />
    <glyph glyph-name="i.loclTRK" horiz-adv-x="224" 
d="M60 494h104v-494h-104v494zM62 689h100v-93h-100v93z" />
    <glyph glyph-name="uni1ECB" unicode="&#x1ecb;" horiz-adv-x="224" 
d="M60 700h104v-110h-104v110zM60 494h104v-494h-104v494zM62 -81h100v-93h-100v93z" />
    <glyph glyph-name="igrave" unicode="&#xec;" horiz-adv-x="224" 
d="M60 494h104v-494h-104v494zM16 648v105l191 -111v-69z" />
    <glyph glyph-name="uni1EC9" unicode="&#x1ec9;" horiz-adv-x="224" 
d="M60 494h104v-494h-104v494zM92 564q25 23 34 35.5t9 29.5t-10.5 25.5t-28.5 8.5q-27 0 -62 -19l-17 55q36 19 80 19q43 0 71 -22.5t28 -63.5q0 -31 -16 -53.5t-53 -49.5z" />
    <glyph glyph-name="uni020B" unicode="&#x20b;" horiz-adv-x="224" 
d="M60 494h104v-494h-104v494zM221.5 675q39.5 -38 39.5 -94h-82q0 30 -18.5 46t-48.5 16t-48.5 -16t-18.5 -46h-82q0 56 39.5 94t109.5 38t109.5 -38z" />
    <glyph glyph-name="ij" unicode="&#x133;" horiz-adv-x="448" 
d="M60 700h104v-110h-104v110zM60 494h104v-494h-104v494zM284 700h104v-110h-104v110zM216 -159q28 2 42 9.5t20 26.5t6 56v561h104v-603q0 -122 -128 -130l-33 -3z" />
    <glyph glyph-name="imacron" unicode="&#x12b;" horiz-adv-x="224" 
d="M60 494h104v-494h-104v494zM-50 670h324v-75h-324v75z" />
    <glyph glyph-name="iogonek" unicode="&#x12f;" horiz-adv-x="224" 
d="M60 700h104v-110h-104v110zM60 494h104v-494h-104v494zM164 0q-38 -29 -58 -54.5t-20 -50.5q0 -24 13 -36.5t35 -12.5q30 0 62 16l16 -52q-38 -19 -85 -19q-44 0 -72.5 23t-28.5 64q0 37 24 69.5t57 52.5h57z" />
    <glyph glyph-name="itilde" unicode="&#x129;" horiz-adv-x="224" 
d="M60 494h104v-494h-104v494zM160 585.5q-17 6.5 -40 18.5q-4 2 -17.5 8.5t-25 9.5t-20.5 3q-16 0 -25 -10.5t-9 -27.5h-79q2 56 24 85.5t62 29.5q17 0 34.5 -6.5t39.5 -17.5q21 -10 35.5 -15.5t27.5 -5.5q16 0 25 10t9 27h79q-2 -56 -24 -85.5t-62 -29.5q-17 0 -34 6.5z
" />
    <glyph glyph-name="j" unicode="j" horiz-adv-x="224" 
d="M60 700h104v-110h-104v110zM-8 -159q28 2 42 9.5t20 26.5t6 56v561h104v-603q0 -122 -128 -130l-33 -3z" />
    <glyph glyph-name="uni0237" unicode="&#x237;" horiz-adv-x="224" 
d="M-8 -159q30 2 44 8.5t19 24.5t5 59v561h104v-603q0 -60 -35.5 -93.5t-89.5 -36.5l-36 -3z" />
    <glyph glyph-name="jcircumflex" unicode="&#x135;" horiz-adv-x="224" 
d="M-8 -159q30 2 44 8.5t19 24.5t5 59v561h104v-603q0 -60 -35.5 -93.5t-89.5 -36.5l-36 -3zM-17 628l129 111l129 -111v-68l-129 81l-129 -81v68z" />
    <glyph glyph-name="k" unicode="k" horiz-adv-x="464" 
d="M59 750h104v-470l170 214h122l-189 -233l194 -261h-123l-174 238v-238h-104v750z" />
    <glyph glyph-name="kcommaaccent" unicode="&#x137;" horiz-adv-x="464" 
d="M59 750h104v-470l170 214h122l-189 -233l194 -261h-123l-174 238v-238h-104v750zM198 -308l37 108h-40v109h114v-98l-56 -119h-55z" />
    <glyph glyph-name="kgreenlandic" unicode="&#x138;" horiz-adv-x="508" 
d="M60 494h104v-219l213 219h122l-242 -237l245 -257h-122l-216 232v-232h-104v494z" />
    <glyph glyph-name="l" unicode="l" horiz-adv-x="247" 
d="M90.5 25q-31.5 35 -31.5 89v636h105v-585q0 -42 5 -60.5t19 -24t47 -5.5l-13 -85h-35q-65 0 -96.5 35z" />
    <glyph glyph-name="lacute" unicode="&#x13a;" horiz-adv-x="247" 
d="M90.5 25q-31.5 35 -31.5 89v636h105v-585q0 -42 5 -60.5t19 -24t47 -5.5l-13 -85h-35q-65 0 -96.5 35zM16 875l191 95v-100l-191 -58v63z" />
    <glyph glyph-name="lcaron" unicode="&#x13e;" horiz-adv-x="292" 
d="M90.5 25q-31.5 35 -31.5 89v636h105v-585q0 -42 5 -60.5t19 -24t47 -5.5l-13 -85h-35q-65 0 -96.5 35zM211 750h96l-28 -171h-68v171z" />
    <glyph glyph-name="lcommaaccent" unicode="&#x13c;" horiz-adv-x="247" 
d="M90.5 25q-31.5 35 -31.5 89v636h105v-585q0 -42 5 -60.5t19 -24t47 -5.5l-13 -85h-35q-65 0 -96.5 35zM102 -308l37 108h-40v109h114v-98l-56 -119h-55z" />
    <glyph glyph-name="ldot" unicode="&#x140;" horiz-adv-x="299" 
d="M90.5 25q-31.5 35 -31.5 89v636h105v-585q0 -42 5 -60.5t19 -24t47 -5.5l-13 -85h-35q-65 0 -96.5 35zM213 466h96v-102h-96v102z" />
    <glyph glyph-name="uni1E37" unicode="&#x1e37;" horiz-adv-x="247" 
d="M90.5 25q-31.5 35 -31.5 89v636h105v-585q0 -42 5 -60.5t19 -24t47 -5.5l-13 -85h-35q-65 0 -96.5 35zM105 -81h100v-93h-100v93z" />
    <glyph glyph-name="uni01C9" unicode="&#x1c9;" horiz-adv-x="471" 
d="M90.5 25q-31.5 35 -31.5 89v636h105v-585q0 -42 5 -60.5t19 -24t47 -5.5l-13 -85h-35q-65 0 -96.5 35zM307 700h104v-110h-104v110zM239 -159q28 2 42 9.5t20 26.5t6 56v561h104v-603q0 -122 -128 -130l-33 -3z" />
    <glyph glyph-name="uni1E3B" unicode="&#x1e3b;" horiz-adv-x="247" 
d="M90.5 25q-31.5 35 -31.5 89v636h105v-585q0 -42 5 -60.5t19 -24t47 -5.5l-13 -85h-35q-65 0 -96.5 35zM-7 -91h324v-75h-324v75z" />
    <glyph glyph-name="lslash" unicode="&#x142;" horiz-adv-x="245" 
d="M158 434v-269q0 -42 5 -60.5t19 -24t47 -5.5l-13 -85h-35q-65 0 -96.5 35t-31.5 89v293l-67 -18v76l67 18v267h105v-240l79 21v-76z" />
    <glyph glyph-name="m" unicode="m" horiz-adv-x="874" 
d="M771 447q48 -56 48 -163v-284h-105v280q0 70 -25 102t-81 32q-116 0 -116 -133v-281h-105v270q0 78 -27 111t-80 33q-77 0 -116 -54v-360h-104v494h85l8 -47q68 56 151 56q106 0 152 -85q54 85 171 85q96 0 144 -56z" />
    <glyph glyph-name="uni1E43" unicode="&#x1e43;" horiz-adv-x="874" 
d="M771 447q48 -56 48 -163v-284h-105v280q0 70 -25 102t-81 32q-116 0 -116 -133v-281h-105v270q0 78 -27 111t-80 33q-77 0 -116 -54v-360h-104v494h85l8 -47q68 56 151 56q106 0 152 -85q54 85 171 85q96 0 144 -56zM389 -81h100v-93h-100v93z" />
    <glyph glyph-name="n" unicode="n" horiz-adv-x="556" 
d="M453 442.5q48 -60.5 48 -168.5v-274h-104v270q0 75 -27 109.5t-89 34.5q-38 0 -68 -14t-49 -41v-359h-104v494h89l6 -45q67 54 151 54q99 0 147 -60.5z" />
    <glyph glyph-name="nacute" unicode="&#x144;" horiz-adv-x="556" 
d="M453 442.5q48 -60.5 48 -168.5v-274h-104v270q0 75 -27 109.5t-89 34.5q-38 0 -68 -14t-49 -41v-359h-104v494h89l6 -45q67 54 151 54q99 0 147 -60.5zM199 638l191 111v-105l-191 -75v69z" />
    <glyph glyph-name="napostrophe" unicode="&#x149;" horiz-adv-x="696" 
d="M52 483l37 108h-40v109h114v-98l-56 -119h-55zM593 442.5q48 -60.5 48 -168.5v-274h-104v270q0 75 -27 109.5t-89 34.5q-38 0 -68 -14t-49 -41v-359h-104v494h89l6 -45q67 54 151 54q99 0 147 -60.5z" />
    <glyph glyph-name="ncaron" unicode="&#x148;" horiz-adv-x="556" 
d="M453 442.5q48 -60.5 48 -168.5v-274h-104v270q0 75 -27 109.5t-89 34.5q-38 0 -68 -14t-49 -41v-359h-104v494h89l6 -45q67 54 151 54q99 0 147 -60.5zM165 665v69l129 -81l129 81v-69l-129 -111z" />
    <glyph glyph-name="ncommaaccent" unicode="&#x146;" horiz-adv-x="556" 
d="M453 442.5q48 -60.5 48 -168.5v-274h-104v270q0 75 -27 109.5t-89 34.5q-38 0 -68 -14t-49 -41v-359h-104v494h89l6 -45q67 54 151 54q99 0 147 -60.5zM228 -308l37 108h-40v109h114v-98l-56 -119h-55z" />
    <glyph glyph-name="uni1E45" unicode="&#x1e45;" horiz-adv-x="556" 
d="M453 442.5q48 -60.5 48 -168.5v-274h-104v270q0 75 -27 109.5t-89 34.5q-38 0 -68 -14t-49 -41v-359h-104v494h89l6 -45q67 54 151 54q99 0 147 -60.5zM244 685h100v-93h-100v93z" />
    <glyph glyph-name="uni1E47" unicode="&#x1e47;" horiz-adv-x="556" 
d="M453 442.5q48 -60.5 48 -168.5v-274h-104v270q0 75 -27 109.5t-89 34.5q-38 0 -68 -14t-49 -41v-359h-104v494h89l6 -45q67 54 151 54q99 0 147 -60.5zM231 -81h100v-93h-100v93z" />
    <glyph glyph-name="eng" unicode="&#x14b;" horiz-adv-x="556" 
d="M445 -128q-56 -51 -149 -51q-42 0 -81 11l13 87q35 -9 71 -9q45 0 71.5 26t26.5 75v259q0 75 -27 109.5t-89 34.5q-38 0 -68.5 -14t-48.5 -41v-359h-104v494h89l7 -45q65 54 150 54q99 0 147 -60.5t48 -168.5v-253q0 -98 -56 -149z" />
    <glyph glyph-name="uni01CC" unicode="&#x1cc;" horiz-adv-x="780" 
d="M453 442.5q48 -60.5 48 -168.5v-274h-104v270q0 75 -27 109.5t-89 34.5q-38 0 -68 -14t-49 -41v-359h-104v494h89l6 -45q67 54 151 54q99 0 147 -60.5zM616 700h104v-110h-104v110zM548 -159q28 2 42 9.5t20 26.5t6 56v561h104v-603q0 -122 -128 -130l-33 -3z" />
    <glyph glyph-name="uni1E49" unicode="&#x1e49;" horiz-adv-x="556" 
d="M453 442.5q48 -60.5 48 -168.5v-274h-104v270q0 75 -27 109.5t-89 34.5q-38 0 -68 -14t-49 -41v-359h-104v494h89l6 -45q67 54 151 54q99 0 147 -60.5zM119 -91h324v-75h-324v75z" />
    <glyph glyph-name="ntilde" unicode="&#xf1;" horiz-adv-x="556" 
d="M453 442.5q48 -60.5 48 -168.5v-274h-104v270q0 75 -27 109.5t-89 34.5q-38 0 -68 -14t-49 -41v-359h-104v494h89l6 -45q67 54 151 54q99 0 147 -60.5zM342 581.5q-17 6.5 -40 18.5q-4 2 -17.5 8.5t-25 9.5t-20.5 3q-16 0 -25 -10.5t-9 -27.5h-79q2 56 24 85.5t62 29.5
q17 0 34.5 -6.5t39.5 -17.5q21 -10 35.5 -15.5t27.5 -5.5q16 0 25 10t9 27h79q-2 -56 -24 -85.5t-62 -29.5q-17 0 -34 6.5z" />
    <glyph glyph-name="o" unicode="o" horiz-adv-x="558" 
d="M145.5 24.5q-56.5 34.5 -86 93t-29.5 129.5t29.5 129.5t86 93t133.5 34.5q76 0 132.5 -34.5t86.5 -93t30 -129.5t-30 -129.5t-86.5 -93t-132.5 -34.5q-77 0 -133.5 34.5zM384 124q37 45 37 123t-37 123t-105 45t-105 -45t-37 -123t37 -123t105 -45t105 45z" />
    <glyph glyph-name="oacute" unicode="&#xf3;" horiz-adv-x="558" 
d="M145.5 24.5q-56.5 34.5 -86 93t-29.5 129.5t29.5 129.5t86 93t133.5 34.5q76 0 132.5 -34.5t86.5 -93t30 -129.5t-30 -129.5t-86.5 -93t-132.5 -34.5q-77 0 -133.5 34.5zM384 124q37 45 37 123t-37 123t-105 45t-105 -45t-37 -123t37 -123t105 -45t105 45zM184 642
l191 111v-105l-191 -75v69z" />
    <glyph glyph-name="obreve" unicode="&#x14f;" horiz-adv-x="558" 
d="M145.5 24.5q-56.5 34.5 -86 93t-29.5 129.5t29.5 129.5t86 93t133.5 34.5q76 0 132.5 -34.5t86.5 -93t30 -129.5t-30 -129.5t-86.5 -93t-132.5 -34.5q-77 0 -133.5 34.5zM384 124q37 45 37 123t-37 123t-105 45t-105 -45t-37 -123t37 -123t105 -45t105 45zM169.5 619
q-39.5 38 -39.5 94h82q0 -30 18.5 -46.5t48.5 -16.5t48.5 16.5t18.5 46.5h82q0 -56 -39.5 -94t-109.5 -38t-109.5 38z" />
    <glyph glyph-name="ocircumflex" unicode="&#xf4;" horiz-adv-x="558" 
d="M145.5 24.5q-56.5 34.5 -86 93t-29.5 129.5t29.5 129.5t86 93t133.5 34.5q76 0 132.5 -34.5t86.5 -93t30 -129.5t-30 -129.5t-86.5 -93t-132.5 -34.5q-77 0 -133.5 34.5zM384 124q37 45 37 123t-37 123t-105 45t-105 -45t-37 -123t37 -123t105 -45t105 45zM150 628
l129 111l129 -111v-68l-129 81l-129 -81v68z" />
    <glyph glyph-name="uni1ED1" unicode="&#x1ed1;" horiz-adv-x="558" 
d="M145.5 24.5q-56.5 34.5 -86 93t-29.5 129.5t29.5 129.5t86 93t133.5 34.5q76 0 132.5 -34.5t86.5 -93t30 -129.5t-30 -129.5t-86.5 -93t-132.5 -34.5q-77 0 -133.5 34.5zM384 124q37 45 37 123t-37 123t-105 45t-105 -45t-37 -123t37 -123t105 -45t105 45zM420 813h106
l-100 -121h-72zM150 610l129 91l129 -91v-66l-129 68l-129 -68v66z" />
    <glyph glyph-name="uni1ED9" unicode="&#x1ed9;" horiz-adv-x="558" 
d="M145.5 24.5q-56.5 34.5 -86 93t-29.5 129.5t29.5 129.5t86 93t133.5 34.5q76 0 132.5 -34.5t86.5 -93t30 -129.5t-30 -129.5t-86.5 -93t-132.5 -34.5q-77 0 -133.5 34.5zM384 124q37 45 37 123t-37 123t-105 45t-105 -45t-37 -123t37 -123t105 -45t105 45zM150 628
l129 111l129 -111v-68l-129 81l-129 -81v68zM229 -81h100v-93h-100v93z" />
    <glyph glyph-name="uni1ED3" unicode="&#x1ed3;" horiz-adv-x="558" 
d="M145.5 24.5q-56.5 34.5 -86 93t-29.5 129.5t29.5 129.5t86 93t133.5 34.5q76 0 132.5 -34.5t86.5 -93t30 -129.5t-30 -129.5t-86.5 -93t-132.5 -34.5q-77 0 -133.5 34.5zM384 124q37 45 37 123t-37 123t-105 45t-105 -45t-37 -123t37 -123t105 -45t105 45zM287 813h100
l54 -121h-69zM150 610l129 91l129 -91v-66l-129 68l-129 -68v66z" />
    <glyph glyph-name="uni1ED5" unicode="&#x1ed5;" horiz-adv-x="558" 
d="M145.5 24.5q-56.5 34.5 -86 93t-29.5 129.5t29.5 129.5t86 93t133.5 34.5q76 0 132.5 -34.5t86.5 -93t30 -129.5t-30 -129.5t-86.5 -93t-132.5 -34.5q-77 0 -133.5 34.5zM384 124q37 45 37 123t-37 123t-105 45t-105 -45t-37 -123t37 -123t105 -45t105 45zM365 708
q36 11 36 37q0 30 -39 30q-27 0 -62 -19l-17 55q35 19 80 19q43 0 71 -21t28 -58q0 -34 -21 -54.5t-66 -30.5zM150 610l129 91l129 -91v-66l-129 68l-129 -68v66z" />
    <glyph glyph-name="uni1ED7" unicode="&#x1ed7;" horiz-adv-x="558" 
d="M145.5 24.5q-56.5 34.5 -86 93t-29.5 129.5t29.5 129.5t86 93t133.5 34.5q76 0 132.5 -34.5t86.5 -93t30 -129.5t-30 -129.5t-86.5 -93t-132.5 -34.5q-77 0 -133.5 34.5zM384 124q37 45 37 123t-37 123t-105 45t-105 -45t-37 -123t37 -123t105 -45t105 45zM331.5 745.5
q-16.5 5.5 -44.5 17.5q-5 2 -26.5 10.5t-36.5 8.5q-16 0 -25 -9.5t-9 -26.5h-70q0 50 19 76t55 26q16 0 34 -5.5t43 -16.5q44 -19 63 -19q16 0 25 9t9 26h70q0 -50 -19 -76t-55 -26q-16 0 -32.5 5.5zM150 610l129 91l129 -91v-66l-129 68l-129 -68v66z" />
    <glyph glyph-name="uni020D" unicode="&#x20d;" horiz-adv-x="558" 
d="M145.5 24.5q-56.5 34.5 -86 93t-29.5 129.5t29.5 129.5t86 93t133.5 34.5q76 0 132.5 -34.5t86.5 -93t30 -129.5t-30 -129.5t-86.5 -93t-132.5 -34.5q-77 0 -133.5 34.5zM384 124q37 45 37 123t-37 123t-105 45t-105 -45t-37 -123t37 -123t105 -45t105 45zM175 582
l-105 171h105l72 -171h-72zM318 582l-99 171h106l65 -171h-72z" />
    <glyph glyph-name="odieresis" unicode="&#xf6;" horiz-adv-x="558" 
d="M145.5 24.5q-56.5 34.5 -86 93t-29.5 129.5t29.5 129.5t86 93t133.5 34.5q76 0 132.5 -34.5t86.5 -93t30 -129.5t-30 -129.5t-86.5 -93t-132.5 -34.5q-77 0 -133.5 34.5zM384 124q37 45 37 123t-37 123t-105 45t-105 -45t-37 -123t37 -123t105 -45t105 45zM136 675h90
v-84h-90v84zM332 675h90v-84h-90v84z" />
    <glyph glyph-name="uni022B" unicode="&#x22b;" horiz-adv-x="558" 
d="M145.5 24.5q-56.5 34.5 -86 93t-29.5 129.5t29.5 129.5t86 93t133.5 34.5q76 0 132.5 -34.5t86.5 -93t30 -129.5t-30 -129.5t-86.5 -93t-132.5 -34.5q-77 0 -133.5 34.5zM384 124q37 45 37 123t-37 123t-105 45t-105 -45t-37 -123t37 -123t105 -45t105 45zM136 663h90
v-79h-90v79zM332 663h90v-79h-90v79zM117 815h324v-72h-324v72z" />
    <glyph glyph-name="uni0231" unicode="&#x231;" horiz-adv-x="558" 
d="M145.5 24.5q-56.5 34.5 -86 93t-29.5 129.5t29.5 129.5t86 93t133.5 34.5q76 0 132.5 -34.5t86.5 -93t30 -129.5t-30 -129.5t-86.5 -93t-132.5 -34.5q-77 0 -133.5 34.5zM384 124q37 45 37 123t-37 123t-105 45t-105 -45t-37 -123t37 -123t105 -45t105 45zM229 679h100
v-93h-100v93zM117 831h324v-72h-324v72z" />
    <glyph glyph-name="uni1ECD" unicode="&#x1ecd;" horiz-adv-x="558" 
d="M145.5 24.5q-56.5 34.5 -86 93t-29.5 129.5t29.5 129.5t86 93t133.5 34.5q76 0 132.5 -34.5t86.5 -93t30 -129.5t-30 -129.5t-86.5 -93t-132.5 -34.5q-77 0 -133.5 34.5zM384 124q37 45 37 123t-37 123t-105 45t-105 -45t-37 -123t37 -123t105 -45t105 45zM229 -81h100
v-93h-100v93z" />
    <glyph glyph-name="ograve" unicode="&#xf2;" horiz-adv-x="558" 
d="M145.5 24.5q-56.5 34.5 -86 93t-29.5 129.5t29.5 129.5t86 93t133.5 34.5q76 0 132.5 -34.5t86.5 -93t30 -129.5t-30 -129.5t-86.5 -93t-132.5 -34.5q-77 0 -133.5 34.5zM384 124q37 45 37 123t-37 123t-105 45t-105 -45t-37 -123t37 -123t105 -45t105 45zM183 648v105
l191 -111v-69z" />
    <glyph glyph-name="uni1ECF" unicode="&#x1ecf;" horiz-adv-x="558" 
d="M145.5 24.5q-56.5 34.5 -86 93t-29.5 129.5t29.5 129.5t86 93t133.5 34.5q76 0 132.5 -34.5t86.5 -93t30 -129.5t-30 -129.5t-86.5 -93t-132.5 -34.5q-77 0 -133.5 34.5zM384 124q37 45 37 123t-37 123t-105 45t-105 -45t-37 -123t37 -123t105 -45t105 45zM259 564
q25 23 34 35.5t9 29.5t-10.5 25.5t-28.5 8.5q-27 0 -62 -19l-17 55q36 19 80 19q43 0 71 -22.5t28 -63.5q0 -31 -16 -53.5t-53 -49.5z" />
    <glyph glyph-name="ohorn" unicode="&#x1a1;" horiz-adv-x="558" 
d="M506.5 359q21.5 -52 21.5 -112q0 -71 -30 -129.5t-86.5 -93t-132.5 -34.5q-77 0 -133.5 34.5t-86 93t-29.5 129.5t29.5 129.5t86 93t133.5 34.5q42 0 75 -10q35 2 53 20t18 54h94q0 -37 -20 -69.5t-54 -52.5q40 -35 61.5 -87zM384 124q37 45 37 123t-37 123t-105 45
t-105 -45t-37 -123t37 -123t105 -45t105 45z" />
    <glyph glyph-name="uni1EDB" unicode="&#x1edb;" horiz-adv-x="558" 
d="M506.5 359q21.5 -52 21.5 -112q0 -71 -30 -129.5t-86.5 -93t-132.5 -34.5q-77 0 -133.5 34.5t-86 93t-29.5 129.5t29.5 129.5t86 93t133.5 34.5q42 0 75 -10q35 2 53 20t18 54h94q0 -37 -20 -69.5t-54 -52.5q40 -35 61.5 -87zM384 124q37 45 37 123t-37 123t-105 45
t-105 -45t-37 -123t37 -123t105 -45t105 45zM184 642l191 111v-105l-191 -75v69z" />
    <glyph glyph-name="uni1EE3" unicode="&#x1ee3;" horiz-adv-x="558" 
d="M506.5 359q21.5 -52 21.5 -112q0 -71 -30 -129.5t-86.5 -93t-132.5 -34.5q-77 0 -133.5 34.5t-86 93t-29.5 129.5t29.5 129.5t86 93t133.5 34.5q42 0 75 -10q35 2 53 20t18 54h94q0 -37 -20 -69.5t-54 -52.5q40 -35 61.5 -87zM384 124q37 45 37 123t-37 123t-105 45
t-105 -45t-37 -123t37 -123t105 -45t105 45zM229 -81h100v-93h-100v93z" />
    <glyph glyph-name="uni1EDD" unicode="&#x1edd;" horiz-adv-x="558" 
d="M506.5 359q21.5 -52 21.5 -112q0 -71 -30 -129.5t-86.5 -93t-132.5 -34.5q-77 0 -133.5 34.5t-86 93t-29.5 129.5t29.5 129.5t86 93t133.5 34.5q42 0 75 -10q35 2 53 20t18 54h94q0 -37 -20 -69.5t-54 -52.5q40 -35 61.5 -87zM384 124q37 45 37 123t-37 123t-105 45
t-105 -45t-37 -123t37 -123t105 -45t105 45zM183 648v105l191 -111v-69z" />
    <glyph glyph-name="uni1EDF" unicode="&#x1edf;" horiz-adv-x="558" 
d="M506.5 359q21.5 -52 21.5 -112q0 -71 -30 -129.5t-86.5 -93t-132.5 -34.5q-77 0 -133.5 34.5t-86 93t-29.5 129.5t29.5 129.5t86 93t133.5 34.5q42 0 75 -10q35 2 53 20t18 54h94q0 -37 -20 -69.5t-54 -52.5q40 -35 61.5 -87zM384 124q37 45 37 123t-37 123t-105 45
t-105 -45t-37 -123t37 -123t105 -45t105 45zM259 564q25 23 34 35.5t9 29.5t-10.5 25.5t-28.5 8.5q-27 0 -62 -19l-17 55q36 19 80 19q43 0 71 -22.5t28 -63.5q0 -31 -16 -53.5t-53 -49.5z" />
    <glyph glyph-name="uni1EE1" unicode="&#x1ee1;" horiz-adv-x="558" 
d="M506.5 359q21.5 -52 21.5 -112q0 -71 -30 -129.5t-86.5 -93t-132.5 -34.5q-77 0 -133.5 34.5t-86 93t-29.5 129.5t29.5 129.5t86 93t133.5 34.5q42 0 75 -10q35 2 53 20t18 54h94q0 -37 -20 -69.5t-54 -52.5q40 -35 61.5 -87zM384 124q37 45 37 123t-37 123t-105 45
t-105 -45t-37 -123t37 -123t105 -45t105 45zM327 585.5q-17 6.5 -40 18.5q-4 2 -17.5 8.5t-25 9.5t-20.5 3q-16 0 -25 -10.5t-9 -27.5h-79q2 56 24 85.5t62 29.5q17 0 34.5 -6.5t39.5 -17.5q21 -10 35.5 -15.5t27.5 -5.5q16 0 25 10t9 27h79q-2 -56 -24 -85.5t-62 -29.5
q-17 0 -34 6.5z" />
    <glyph glyph-name="ohungarumlaut" unicode="&#x151;" horiz-adv-x="558" 
d="M145.5 24.5q-56.5 34.5 -86 93t-29.5 129.5t29.5 129.5t86 93t133.5 34.5q76 0 132.5 -34.5t86.5 -93t30 -129.5t-30 -129.5t-86.5 -93t-132.5 -34.5q-77 0 -133.5 34.5zM384 124q37 45 37 123t-37 123t-105 45t-105 -45t-37 -123t37 -123t105 -45t105 45zM247 753h105
l-111 -171h-71zM396 753h106l-118 -171h-71z" />
    <glyph glyph-name="uni020F" unicode="&#x20f;" horiz-adv-x="558" 
d="M145.5 24.5q-56.5 34.5 -86 93t-29.5 129.5t29.5 129.5t86 93t133.5 34.5q76 0 132.5 -34.5t86.5 -93t30 -129.5t-30 -129.5t-86.5 -93t-132.5 -34.5q-77 0 -133.5 34.5zM384 124q37 45 37 123t-37 123t-105 45t-105 -45t-37 -123t37 -123t105 -45t105 45zM388.5 675
q39.5 -38 39.5 -94h-82q0 30 -18.5 46t-48.5 16t-48.5 -16t-18.5 -46h-82q0 56 39.5 94t109.5 38t109.5 -38z" />
    <glyph glyph-name="omacron" unicode="&#x14d;" horiz-adv-x="558" 
d="M145.5 24.5q-56.5 34.5 -86 93t-29.5 129.5t29.5 129.5t86 93t133.5 34.5q76 0 132.5 -34.5t86.5 -93t30 -129.5t-30 -129.5t-86.5 -93t-132.5 -34.5q-77 0 -133.5 34.5zM384 124q37 45 37 123t-37 123t-105 45t-105 -45t-37 -123t37 -123t105 -45t105 45zM117 670h324
v-75h-324v75z" />
    <glyph glyph-name="uni1E53" unicode="&#x1e53;" horiz-adv-x="558" 
d="M145.5 24.5q-56.5 34.5 -86 93t-29.5 129.5t29.5 129.5t86 93t133.5 34.5q76 0 132.5 -34.5t86.5 -93t30 -129.5t-30 -129.5t-86.5 -93t-132.5 -34.5q-77 0 -133.5 34.5zM384 124q37 45 37 123t-37 123t-105 45t-105 -45t-37 -123t37 -123t105 -45t105 45zM117 659h324
v-72h-324v72zM184 791l191 95v-100l-191 -58v63z" />
    <glyph glyph-name="uni1E51" unicode="&#x1e51;" horiz-adv-x="558" 
d="M145.5 24.5q-56.5 34.5 -86 93t-29.5 129.5t29.5 129.5t86 93t133.5 34.5q76 0 132.5 -34.5t86.5 -93t30 -129.5t-30 -129.5t-86.5 -93t-132.5 -34.5q-77 0 -133.5 34.5zM384 124q37 45 37 123t-37 123t-105 45t-105 -45t-37 -123t37 -123t105 -45t105 45zM117 659h324
v-72h-324v72zM183 786v100l191 -95v-63z" />
    <glyph glyph-name="uni01EB" unicode="&#x1eb;" horiz-adv-x="558" 
d="M293.5 -55q-19.5 -25 -19.5 -50q0 -24 13 -36.5t35 -12.5q30 0 62 16l16 -52q-38 -19 -85 -19q-44 0 -72.5 23t-28.5 64q0 32 19 61.5t47 50.5h-1q-77 0 -133.5 34.5t-86 93t-29.5 129.5t29.5 129.5t86 93t133.5 34.5q76 0 132.5 -34.5t86.5 -93t30 -129.5
q0 -90 -47 -158t-130 -90q-38 -29 -57.5 -54zM174 124q37 -45 105 -45t105 45t37 123t-37 123t-105 45t-105 -45t-37 -123t37 -123z" />
    <glyph glyph-name="oslash" unicode="&#xf8;" horiz-adv-x="558" 
d="M507.5 357q20.5 -51 20.5 -110q0 -71 -30 -129.5t-86.5 -93t-132.5 -34.5q-57 0 -107 21l-33 -51h-84l57 89q-40 35 -61 86.5t-21 111.5q0 71 29.5 129.5t86 93t133.5 34.5q60 0 110 -22l31 48h83l-55 -87q39 -35 59.5 -86zM167 134l172 269q-26 12 -60 12
q-68 0 -105 -45t-37 -123q0 -70 30 -113zM384 124q37 45 37 123q0 66 -28 111l-171 -269q27 -10 57 -10q68 0 105 45z" />
    <glyph glyph-name="oslashacute" unicode="&#x1ff;" horiz-adv-x="558" 
d="M507.5 357q20.5 -51 20.5 -110q0 -71 -30 -129.5t-86.5 -93t-132.5 -34.5q-57 0 -107 21l-33 -51h-84l57 89q-40 35 -61 86.5t-21 111.5q0 71 29.5 129.5t86 93t133.5 34.5q60 0 110 -22l31 48h83l-55 -87q39 -35 59.5 -86zM167 134l172 269q-26 12 -60 12
q-68 0 -105 -45t-37 -123q0 -70 30 -113zM384 124q37 45 37 123q0 66 -28 111l-171 -269q27 -10 57 -10q68 0 105 45zM184 642l191 111v-105l-191 -75v69z" />
    <glyph glyph-name="otilde" unicode="&#xf5;" horiz-adv-x="558" 
d="M145.5 24.5q-56.5 34.5 -86 93t-29.5 129.5t29.5 129.5t86 93t133.5 34.5q76 0 132.5 -34.5t86.5 -93t30 -129.5t-30 -129.5t-86.5 -93t-132.5 -34.5q-77 0 -133.5 34.5zM384 124q37 45 37 123t-37 123t-105 45t-105 -45t-37 -123t37 -123t105 -45t105 45zM327 585.5
q-17 6.5 -40 18.5q-4 2 -17.5 8.5t-25 9.5t-20.5 3q-16 0 -25 -10.5t-9 -27.5h-79q2 56 24 85.5t62 29.5q17 0 34.5 -6.5t39.5 -17.5q21 -10 35.5 -15.5t27.5 -5.5q16 0 25 10t9 27h79q-2 -56 -24 -85.5t-62 -29.5q-17 0 -34 6.5z" />
    <glyph glyph-name="uni1E4D" unicode="&#x1e4d;" horiz-adv-x="558" 
d="M145.5 24.5q-56.5 34.5 -86 93t-29.5 129.5t29.5 129.5t86 93t133.5 34.5q76 0 132.5 -34.5t86.5 -93t30 -129.5t-30 -129.5t-86.5 -93t-132.5 -34.5q-77 0 -133.5 34.5zM384 124q37 45 37 123t-37 123t-105 45t-105 -45t-37 -123t37 -123t105 -45t105 45zM330 583.5
q-18 5.5 -43 16.5q-44 19 -63 19q-16 0 -25 -9.5t-9 -26.5h-70q0 50 19 76.5t55 26.5q16 0 32.5 -5.5t44.5 -17.5q5 -2 26.5 -10.5t36.5 -8.5q16 0 25 9.5t9 26.5h70q0 -50 -19 -76t-55 -26q-16 0 -34 5.5zM184 790l191 95v-100l-191 -58v63z" />
    <glyph glyph-name="uni1E4F" unicode="&#x1e4f;" horiz-adv-x="558" 
d="M145.5 24.5q-56.5 34.5 -86 93t-29.5 129.5t29.5 129.5t86 93t133.5 34.5q76 0 132.5 -34.5t86.5 -93t30 -129.5t-30 -129.5t-86.5 -93t-132.5 -34.5q-77 0 -133.5 34.5zM384 124q37 45 37 123t-37 123t-105 45t-105 -45t-37 -123t37 -123t105 -45t105 45zM330 583.5
q-18 5.5 -43 16.5q-44 19 -63 19q-16 0 -25 -9.5t-9 -26.5h-70q0 50 19 76.5t55 26.5q16 0 32.5 -5.5t44.5 -17.5q5 -2 26.5 -10.5t36.5 -8.5q16 0 25 9.5t9 26.5h70q0 -50 -19 -76t-55 -26q-16 0 -34 5.5zM136 834h90v-79h-90v79zM332 834h90v-79h-90v79z" />
    <glyph glyph-name="uni022D" unicode="&#x22d;" horiz-adv-x="558" 
d="M145.5 24.5q-56.5 34.5 -86 93t-29.5 129.5t29.5 129.5t86 93t133.5 34.5q76 0 132.5 -34.5t86.5 -93t30 -129.5t-30 -129.5t-86.5 -93t-132.5 -34.5q-77 0 -133.5 34.5zM384 124q37 45 37 123t-37 123t-105 45t-105 -45t-37 -123t37 -123t105 -45t105 45zM330 583.5
q-18 5.5 -43 16.5q-44 19 -63 19q-16 0 -25 -9.5t-9 -26.5h-70q0 50 19 76.5t55 26.5q16 0 32.5 -5.5t44.5 -17.5q5 -2 26.5 -10.5t36.5 -8.5q16 0 25 9.5t9 26.5h70q0 -50 -19 -76t-55 -26q-16 0 -34 5.5zM117 830h324v-72h-324v72z" />
    <glyph glyph-name="oe" unicode="&#x153;" horiz-adv-x="899" 
d="M865 236h-342q10 -83 56 -120t113 -37q34 0 74 9.5t73 24.5l9 -85q-80 -38 -165 -38q-70 0 -123 26.5t-87 74.5q-32 -48 -81 -74.5t-113 -26.5q-77 0 -133.5 34.5t-86 93t-29.5 129.5t29.5 129.5t86 93t133.5 34.5q63 0 111.5 -25.5t79.5 -71.5q31 45 79 70.5t108 25.5
q98 0 155.5 -57.5t57.5 -153.5q0 -23 -5 -56zM384 124q37 45 37 123t-37 123t-105 45t-105 -45t-37 -123t37 -123t105 -45t105 45zM763 307q0 48 -26.5 77.5t-80.5 29.5q-101 0 -127 -107h234z" />
    <glyph glyph-name="p" unicode="p" horiz-adv-x="563" 
d="M430.5 469q49.5 -34 75.5 -92.5t26 -129.5q0 -72 -25 -130.5t-74 -92.5t-119 -34q-97 0 -150 56v-288h-104v736h82l12 -58q62 67 160 67q67 0 116.5 -34zM391.5 124q34.5 45 34.5 123q0 77 -35 122t-95 45q-63 0 -100 -44t-37 -123q0 -82 36.5 -125t100.5 -43
q61 0 95.5 45z" />
    <glyph glyph-name="thorn" unicode="&#xfe;" horiz-adv-x="581" 
d="M443.5 468.5q52.5 -34.5 80 -93t27.5 -128.5q0 -71 -27 -129.5t-79.5 -93t-125.5 -34.5q-51 0 -88.5 14.5t-66.5 43.5v-289h-105v991h105v-304q33 29 70.5 43t84.5 14q72 0 124.5 -34.5zM407 122.5q37 47.5 37 124.5q0 76 -36.5 121.5t-104.5 45.5q-70 0 -108 -44.5
t-38 -122.5q0 -79 38.5 -125.5t107.5 -46.5q67 0 104 47.5z" />
    <glyph glyph-name="q" unicode="q" horiz-adv-x="563" 
d="M504 494v-736h-105v287q-52 -55 -144 -55q-72 0 -122.5 34t-76 92.5t-25.5 130.5q0 69 26.5 127.5t77 93.5t119.5 35q52 0 89.5 -16.5t67.5 -49.5l12 57h81zM368.5 122.5q36.5 43.5 36.5 124.5q0 79 -36.5 123t-98.5 44t-97 -45t-35 -122q0 -78 35 -123t97 -45t98.5 43.5
z" />
    <glyph glyph-name="r" unicode="r" horiz-adv-x="322" 
d="M60 494h92l7 -69q66 79 138 79q11 0 23 -2l-9 -109q-16 4 -36 4q-34 0 -64 -16t-43 -37v-344h-108v494z" />
    <glyph glyph-name="racute" unicode="&#x155;" horiz-adv-x="322" 
d="M60 494h92l7 -69q66 79 138 79q11 0 23 -2l-9 -109q-16 4 -36 4q-34 0 -64 -16t-43 -37v-344h-108v494zM119 642l191 111v-105l-191 -75v69z" />
    <glyph glyph-name="rcaron" unicode="&#x159;" horiz-adv-x="322" 
d="M60 494h92l7 -69q66 79 138 79q11 0 23 -2l-9 -109q-16 4 -36 4q-34 0 -64 -16t-43 -37v-344h-108v494zM85 669v69l129 -81l129 81v-69l-129 -111z" />
    <glyph glyph-name="rcommaaccent" unicode="&#x157;" horiz-adv-x="322" 
d="M60 494h92l7 -69q66 79 138 79q11 0 23 -2l-9 -109q-16 4 -36 4q-34 0 -64 -16t-43 -37v-344h-108v494zM61 -308l37 108h-40v109h114v-98l-56 -119h-55z" />
    <glyph glyph-name="uni0211" unicode="&#x211;" horiz-adv-x="322" 
d="M60 494h92l7 -69q66 79 138 79q11 0 23 -2l-9 -109q-16 4 -36 4q-34 0 -64 -16t-43 -37v-344h-108v494zM110 582l-105 171h105l72 -171h-72zM253 582l-99 171h106l65 -171h-72z" />
    <glyph glyph-name="uni1E5B" unicode="&#x1e5b;" horiz-adv-x="322" 
d="M60 494h92l7 -69q66 79 138 79q11 0 23 -2l-9 -109q-16 4 -36 4q-34 0 -64 -16t-43 -37v-344h-108v494zM64 -81h100v-93h-100v93z" />
    <glyph glyph-name="uni0213" unicode="&#x213;" horiz-adv-x="322" 
d="M60 494h92l7 -69q66 79 138 79q11 0 23 -2l-9 -109q-16 4 -36 4q-34 0 -64 -16t-43 -37v-344h-108v494zM323.5 675q39.5 -38 39.5 -94h-82q0 30 -18.5 46t-48.5 16t-48.5 -16t-18.5 -46h-82q0 56 39.5 94t109.5 38t109.5 -38z" />
    <glyph glyph-name="uni1E5F" unicode="&#x1e5f;" horiz-adv-x="322" 
d="M60 494h92l7 -69q66 79 138 79q11 0 23 -2l-9 -109q-16 4 -36 4q-34 0 -64 -16t-43 -37v-344h-108v494zM-48 -91h324v-75h-324v75z" />
    <glyph glyph-name="s" unicode="s" horiz-adv-x="418" 
d="M32 30l11 96q29 -21 68 -35.5t85 -14.5q43 0 66 14t23 42q0 31 -24.5 47.5t-71.5 31.5q-48 16 -79 31.5t-51 43.5t-20 72q0 63 47.5 104.5t137.5 41.5q78 0 142 -35l-11 -92q-31 23 -61.5 35.5t-67.5 12.5q-39 0 -61 -15t-22 -44q0 -21 11 -34t32 -22t66 -25
q64 -22 101.5 -54t37.5 -94q0 -64 -46.5 -105.5t-144.5 -41.5q-94 0 -168 40z" />
    <glyph glyph-name="sacute" unicode="&#x15b;" horiz-adv-x="418" 
d="M32 30l11 96q29 -21 68 -35.5t85 -14.5q43 0 66 14t23 42q0 31 -24.5 47.5t-71.5 31.5q-48 16 -79 31.5t-51 43.5t-20 72q0 63 47.5 104.5t137.5 41.5q78 0 142 -35l-11 -92q-31 23 -61.5 35.5t-67.5 12.5q-39 0 -61 -15t-22 -44q0 -21 11 -34t32 -22t66 -25
q64 -22 101.5 -54t37.5 -94q0 -64 -46.5 -105.5t-144.5 -41.5q-94 0 -168 40zM126 642l191 111v-105l-191 -75v69z" />
    <glyph glyph-name="uni1E65" unicode="&#x1e65;" horiz-adv-x="418" 
d="M32 30l11 96q29 -21 68 -35.5t85 -14.5q43 0 66 14t23 42q0 31 -24.5 47.5t-71.5 31.5q-48 16 -79 31.5t-51 43.5t-20 72q0 63 47.5 104.5t137.5 41.5q78 0 142 -35l-11 -92q-31 23 -61.5 35.5t-67.5 12.5q-39 0 -61 -15t-22 -44q0 -21 11 -34t32 -22t66 -25
q64 -22 101.5 -54t37.5 -94q0 -64 -46.5 -105.5t-144.5 -41.5q-94 0 -168 40zM126 619l191 95v-100l-191 -58v63zM171 851h100v-93h-100v93z" />
    <glyph glyph-name="scaron" unicode="&#x161;" horiz-adv-x="418" 
d="M32 30l11 96q29 -21 68 -35.5t85 -14.5q43 0 66 14t23 42q0 31 -24.5 47.5t-71.5 31.5q-48 16 -79 31.5t-51 43.5t-20 72q0 63 47.5 104.5t137.5 41.5q78 0 142 -35l-11 -92q-31 23 -61.5 35.5t-67.5 12.5q-39 0 -61 -15t-22 -44q0 -21 11 -34t32 -22t66 -25
q64 -22 101.5 -54t37.5 -94q0 -64 -46.5 -105.5t-144.5 -41.5q-94 0 -168 40zM92 669v69l129 -81l129 81v-69l-129 -111z" />
    <glyph glyph-name="uni1E67" unicode="&#x1e67;" horiz-adv-x="418" 
d="M32 30l11 96q29 -21 68 -35.5t85 -14.5q43 0 66 14t23 42q0 31 -24.5 47.5t-71.5 31.5q-48 16 -79 31.5t-51 43.5t-20 72q0 63 47.5 104.5t137.5 41.5q78 0 142 -35l-11 -92q-31 23 -61.5 35.5t-67.5 12.5q-39 0 -61 -15t-22 -44q0 -21 11 -34t32 -22t66 -25
q64 -22 101.5 -54t37.5 -94q0 -64 -46.5 -105.5t-144.5 -41.5q-94 0 -168 40zM221 660l129 68v-66l-129 -91l-129 91v66zM171 864h100v-93h-100v93z" />
    <glyph glyph-name="scedilla" unicode="&#x15f;" horiz-adv-x="418" 
d="M352.5 39.5q-38.5 -40.5 -118.5 -47.5l-14 -46h6q42 0 66 -22.5t24 -61.5q0 -44 -31 -69t-78 -25q-46 0 -80 19l17 54q31 -17 64 -17q22 0 34.5 9t12.5 27q0 37 -50 37q-23 0 -47 -7l25 100q-87 4 -151 40l11 96q29 -21 68 -35.5t85 -14.5q43 0 66 14t23 42
q0 31 -24.5 47.5t-71.5 31.5q-48 16 -79 31.5t-51 43.5t-20 72q0 63 47.5 104.5t137.5 41.5q78 0 142 -35l-11 -92q-31 23 -61.5 35.5t-67.5 12.5q-39 0 -61 -15t-22 -44q0 -21 11 -34t32 -22t66 -25q64 -22 101.5 -54t37.5 -94q0 -57 -38.5 -97.5z" />
    <glyph glyph-name="scircumflex" unicode="&#x15d;" horiz-adv-x="418" 
d="M32 30l11 96q29 -21 68 -35.5t85 -14.5q43 0 66 14t23 42q0 31 -24.5 47.5t-71.5 31.5q-48 16 -79 31.5t-51 43.5t-20 72q0 63 47.5 104.5t137.5 41.5q78 0 142 -35l-11 -92q-31 23 -61.5 35.5t-67.5 12.5q-39 0 -61 -15t-22 -44q0 -21 11 -34t32 -22t66 -25
q64 -22 101.5 -54t37.5 -94q0 -64 -46.5 -105.5t-144.5 -41.5q-94 0 -168 40zM92 628l129 111l129 -111v-68l-129 81l-129 -81v68z" />
    <glyph glyph-name="scommaaccent" unicode="&#x219;" horiz-adv-x="418" 
d="M32 30l11 96q29 -21 68 -35.5t85 -14.5q43 0 66 14t23 42q0 31 -24.5 47.5t-71.5 31.5q-48 16 -79 31.5t-51 43.5t-20 72q0 63 47.5 104.5t137.5 41.5q78 0 142 -35l-11 -92q-31 23 -61.5 35.5t-67.5 12.5q-39 0 -61 -15t-22 -44q0 -21 11 -34t32 -22t66 -25
q64 -22 101.5 -54t37.5 -94q0 -64 -46.5 -105.5t-144.5 -41.5q-94 0 -168 40zM155 -308l37 108h-40v109h114v-98l-56 -119h-55z" />
    <glyph glyph-name="uni1E61" unicode="&#x1e61;" horiz-adv-x="418" 
d="M32 30l11 96q29 -21 68 -35.5t85 -14.5q43 0 66 14t23 42q0 31 -24.5 47.5t-71.5 31.5q-48 16 -79 31.5t-51 43.5t-20 72q0 63 47.5 104.5t137.5 41.5q78 0 142 -35l-11 -92q-31 23 -61.5 35.5t-67.5 12.5q-39 0 -61 -15t-22 -44q0 -21 11 -34t32 -22t66 -25
q64 -22 101.5 -54t37.5 -94q0 -64 -46.5 -105.5t-144.5 -41.5q-94 0 -168 40zM171 689h100v-93h-100v93z" />
    <glyph glyph-name="uni1E63" unicode="&#x1e63;" horiz-adv-x="418" 
d="M32 30l11 96q29 -21 68 -35.5t85 -14.5q43 0 66 14t23 42q0 31 -24.5 47.5t-71.5 31.5q-48 16 -79 31.5t-51 43.5t-20 72q0 63 47.5 104.5t137.5 41.5q78 0 142 -35l-11 -92q-31 23 -61.5 35.5t-67.5 12.5q-39 0 -61 -15t-22 -44q0 -21 11 -34t32 -22t66 -25
q64 -22 101.5 -54t37.5 -94q0 -64 -46.5 -105.5t-144.5 -41.5q-94 0 -168 40zM158 -81h100v-93h-100v93z" />
    <glyph glyph-name="uni1E69" unicode="&#x1e69;" horiz-adv-x="418" 
d="M32 30l11 96q29 -21 68 -35.5t85 -14.5q43 0 66 14t23 42q0 31 -24.5 47.5t-71.5 31.5q-48 16 -79 31.5t-51 43.5t-20 72q0 63 47.5 104.5t137.5 41.5q78 0 142 -35l-11 -92q-31 23 -61.5 35.5t-67.5 12.5q-39 0 -61 -15t-22 -44q0 -21 11 -34t32 -22t66 -25
q64 -22 101.5 -54t37.5 -94q0 -64 -46.5 -105.5t-144.5 -41.5q-94 0 -168 40zM171 689h100v-93h-100v93zM158 -81h100v-93h-100v93z" />
    <glyph glyph-name="germandbls" unicode="&#xdf;" horiz-adv-x="599" 
d="M256 -2v83q53 -11 103 -11q51 0 81 22.5t30 61.5q0 38 -23 62.5t-68 51.5q-44 28 -67 52t-23 61q0 32 16 56.5t58 66.5q28 28 39 46.5t11 44.5q0 37 -26 58.5t-74 21.5q-59 0 -89.5 -34.5t-30.5 -96.5v-544h-103v411h-73l9 83h64v48q0 109 61 165.5t164 56.5
q92 0 146.5 -42t54.5 -113q0 -45 -16 -72.5t-50 -61.5q-33 -36 -44 -51t-11 -33q0 -21 16 -36.5t52 -39.5q53 -33 83 -67t30 -91q0 -56 -30 -94.5t-79.5 -57.5t-108.5 -19q-50 0 -102 12z" />
    <glyph glyph-name="t" unicode="t" horiz-adv-x="340" 
d="M128.5 25.5q-32.5 35.5 -32.5 87.5v298h-79l9 83h70v117l104 10v-127h121v-83h-121v-245q0 -46 5.5 -63.5t22.5 -22.5t64 -5h27l-8 -85h-85q-65 0 -97.5 35.5z" />
    <glyph glyph-name="tbar" unicode="&#x167;" horiz-adv-x="340" 
d="M200 411v-105h116v-72h-116v-68q0 -46 5.5 -63.5t22.5 -22.5t64 -5h27l-8 -85h-85q-65 0 -97.5 35.5t-32.5 87.5v121h-79v72h79v105h-79l9 83h70v117l104 10v-127h121v-83h-121z" />
    <glyph glyph-name="tcaron" unicode="&#x165;" horiz-adv-x="340" 
d="M128.5 25.5q-32.5 35.5 -32.5 87.5v298h-79l9 83h70v117l104 10v-127h121v-83h-121v-245q0 -46 5.5 -63.5t22.5 -22.5t64 -5h27l-8 -85h-85q-65 0 -97.5 35.5zM248 714h96l-28 -171h-68v171z" />
    <glyph glyph-name="uni0163" unicode="&#x163;" horiz-adv-x="340" 
d="M312 -76.5q24 -22.5 24 -61.5q0 -44 -31 -69t-78 -25q-46 0 -80 19l17 54q31 -17 64 -17q22 0 34.5 9t12.5 27q0 37 -50 37q-23 0 -47 -7l25 101q-54 7 -80.5 41t-26.5 81v298h-79l9 83h70v117l104 10v-127h121v-83h-121v-245q0 -46 5.5 -63.5t22.5 -22.5t64 -5h27
l-8 -85h-57l-14 -44h6q42 0 66 -22.5z" />
    <glyph glyph-name="uni021B" unicode="&#x21b;" horiz-adv-x="340" 
d="M128.5 25.5q-32.5 35.5 -32.5 87.5v298h-79l9 83h70v117l104 10v-127h121v-83h-121v-245q0 -46 5.5 -63.5t22.5 -22.5t64 -5h27l-8 -85h-85q-65 0 -97.5 35.5zM175 -308l37 108h-40v109h114v-98l-56 -119h-55z" />
    <glyph glyph-name="uni1E97" unicode="&#x1e97;" horiz-adv-x="340" 
d="M128.5 25.5q-32.5 35.5 -32.5 87.5v298h-79l9 83h70v117l104 10v-127h121v-83h-121v-245q0 -46 5.5 -63.5t22.5 -22.5t64 -5h27l-8 -85h-85q-65 0 -97.5 35.5zM5 793h90v-84h-90v84zM201 793h90v-84h-90v84z" />
    <glyph glyph-name="uni1E6D" unicode="&#x1e6d;" horiz-adv-x="340" 
d="M128.5 25.5q-32.5 35.5 -32.5 87.5v298h-79l9 83h70v117l104 10v-127h121v-83h-121v-245q0 -46 5.5 -63.5t22.5 -22.5t64 -5h27l-8 -85h-85q-65 0 -97.5 35.5zM178 -81h100v-93h-100v93z" />
    <glyph glyph-name="uni1E6F" unicode="&#x1e6f;" horiz-adv-x="340" 
d="M128.5 25.5q-32.5 35.5 -32.5 87.5v298h-79l9 83h70v117l104 10v-127h121v-83h-121v-245q0 -46 5.5 -63.5t22.5 -22.5t64 -5h27l-8 -85h-85q-65 0 -97.5 35.5zM66 -91h324v-75h-324v75z" />
    <glyph glyph-name="u" unicode="u" horiz-adv-x="536" 
d="M476 494v-494h-95l-6 43q-48 -53 -126 -53q-98 0 -146 58t-48 168v278h104v-264q0 -76 25.5 -113t82.5 -37q33 0 60 12.5t45 36.5v365h104z" />
    <glyph glyph-name="uacute" unicode="&#xfa;" horiz-adv-x="536" 
d="M476 494v-494h-95l-6 43q-48 -53 -126 -53q-98 0 -146 58t-48 168v278h104v-264q0 -76 25.5 -113t82.5 -37q33 0 60 12.5t45 36.5v365h104zM173 642l191 111v-105l-191 -75v69z" />
    <glyph glyph-name="ubreve" unicode="&#x16d;" horiz-adv-x="536" 
d="M476 494v-494h-95l-6 43q-48 -53 -126 -53q-98 0 -146 58t-48 168v278h104v-264q0 -76 25.5 -113t82.5 -37q33 0 60 12.5t45 36.5v365h104zM158.5 619q-39.5 38 -39.5 94h82q0 -30 18.5 -46.5t48.5 -16.5t48.5 16.5t18.5 46.5h82q0 -56 -39.5 -94t-109.5 -38t-109.5 38z
" />
    <glyph glyph-name="ucircumflex" unicode="&#xfb;" horiz-adv-x="536" 
d="M476 494v-494h-95l-6 43q-48 -53 -126 -53q-98 0 -146 58t-48 168v278h104v-264q0 -76 25.5 -113t82.5 -37q33 0 60 12.5t45 36.5v365h104zM139 628l129 111l129 -111v-68l-129 81l-129 -81v68z" />
    <glyph glyph-name="uni0215" unicode="&#x215;" horiz-adv-x="536" 
d="M476 494v-494h-95l-6 43q-48 -53 -126 -53q-98 0 -146 58t-48 168v278h104v-264q0 -76 25.5 -113t82.5 -37q33 0 60 12.5t45 36.5v365h104zM164 582l-105 171h105l72 -171h-72zM307 582l-99 171h106l65 -171h-72z" />
    <glyph glyph-name="udieresis" unicode="&#xfc;" horiz-adv-x="536" 
d="M476 494v-494h-95l-6 43q-48 -53 -126 -53q-98 0 -146 58t-48 168v278h104v-264q0 -76 25.5 -113t82.5 -37q33 0 60 12.5t45 36.5v365h104zM125 675h90v-84h-90v84zM321 675h90v-84h-90v84z" />
    <glyph glyph-name="uni1EE5" unicode="&#x1ee5;" horiz-adv-x="536" 
d="M476 494v-494h-95l-6 43q-48 -53 -126 -53q-98 0 -146 58t-48 168v278h104v-264q0 -76 25.5 -113t82.5 -37q33 0 60 12.5t45 36.5v365h104zM218 -81h100v-93h-100v93z" />
    <glyph glyph-name="ugrave" unicode="&#xf9;" horiz-adv-x="536" 
d="M476 494v-494h-95l-6 43q-48 -53 -126 -53q-98 0 -146 58t-48 168v278h104v-264q0 -76 25.5 -113t82.5 -37q33 0 60 12.5t45 36.5v365h104zM172 648v105l191 -111v-69z" />
    <glyph glyph-name="uni1EE7" unicode="&#x1ee7;" horiz-adv-x="536" 
d="M476 494v-494h-95l-6 43q-48 -53 -126 -53q-98 0 -146 58t-48 168v278h104v-264q0 -76 25.5 -113t82.5 -37q33 0 60 12.5t45 36.5v365h104zM248 564q25 23 34 35.5t9 29.5t-10.5 25.5t-28.5 8.5q-27 0 -62 -19l-17 55q36 19 80 19q43 0 71 -22.5t28 -63.5
q0 -31 -16 -53.5t-53 -49.5z" />
    <glyph glyph-name="uhorn" unicode="&#x1b0;" horiz-adv-x="536" 
d="M560 480.5q-33 -38.5 -84 -53.5v-427h-95l-6 43q-48 -53 -126 -53q-98 0 -146 58t-48 168v278h104v-264q0 -76 25.5 -113t82.5 -37q33 0 60 12.5t45 36.5v365h47q80 0 80 74h94q0 -49 -33 -87.5z" />
    <glyph glyph-name="uni1EE9" unicode="&#x1ee9;" horiz-adv-x="536" 
d="M560 480.5q-33 -38.5 -84 -53.5v-427h-95l-6 43q-48 -53 -126 -53q-98 0 -146 58t-48 168v278h104v-264q0 -76 25.5 -113t82.5 -37q33 0 60 12.5t45 36.5v365h47q80 0 80 74h94q0 -49 -33 -87.5zM173 642l191 111v-105l-191 -75v69z" />
    <glyph glyph-name="uni1EF1" unicode="&#x1ef1;" horiz-adv-x="536" 
d="M560 480.5q-33 -38.5 -84 -53.5v-427h-95l-6 43q-48 -53 -126 -53q-98 0 -146 58t-48 168v278h104v-264q0 -76 25.5 -113t82.5 -37q33 0 60 12.5t45 36.5v365h47q80 0 80 74h94q0 -49 -33 -87.5zM218 -81h100v-93h-100v93z" />
    <glyph glyph-name="uni1EEB" unicode="&#x1eeb;" horiz-adv-x="536" 
d="M560 480.5q-33 -38.5 -84 -53.5v-427h-95l-6 43q-48 -53 -126 -53q-98 0 -146 58t-48 168v278h104v-264q0 -76 25.5 -113t82.5 -37q33 0 60 12.5t45 36.5v365h47q80 0 80 74h94q0 -49 -33 -87.5zM172 648v105l191 -111v-69z" />
    <glyph glyph-name="uni1EED" unicode="&#x1eed;" horiz-adv-x="536" 
d="M560 480.5q-33 -38.5 -84 -53.5v-427h-95l-6 43q-48 -53 -126 -53q-98 0 -146 58t-48 168v278h104v-264q0 -76 25.5 -113t82.5 -37q33 0 60 12.5t45 36.5v365h47q80 0 80 74h94q0 -49 -33 -87.5zM248 564q25 23 34 35.5t9 29.5t-10.5 25.5t-28.5 8.5q-27 0 -62 -19
l-17 55q36 19 80 19q43 0 71 -22.5t28 -63.5q0 -31 -16 -53.5t-53 -49.5z" />
    <glyph glyph-name="uni1EEF" unicode="&#x1eef;" horiz-adv-x="536" 
d="M560 480.5q-33 -38.5 -84 -53.5v-427h-95l-6 43q-48 -53 -126 -53q-98 0 -146 58t-48 168v278h104v-264q0 -76 25.5 -113t82.5 -37q33 0 60 12.5t45 36.5v365h47q80 0 80 74h94q0 -49 -33 -87.5zM316 585.5q-17 6.5 -40 18.5q-4 2 -17.5 8.5t-25 9.5t-20.5 3
q-16 0 -25 -10.5t-9 -27.5h-79q2 56 24 85.5t62 29.5q17 0 34.5 -6.5t39.5 -17.5q21 -10 35.5 -15.5t27.5 -5.5q16 0 25 10t9 27h79q-2 -56 -24 -85.5t-62 -29.5q-17 0 -34 6.5z" />
    <glyph glyph-name="uhungarumlaut" unicode="&#x171;" horiz-adv-x="536" 
d="M476 494v-494h-95l-6 43q-48 -53 -126 -53q-98 0 -146 58t-48 168v278h104v-264q0 -76 25.5 -113t82.5 -37q33 0 60 12.5t45 36.5v365h104zM236 753h105l-111 -171h-71zM385 753h106l-118 -171h-71z" />
    <glyph glyph-name="uni0217" unicode="&#x217;" horiz-adv-x="536" 
d="M476 494v-494h-95l-6 43q-48 -53 -126 -53q-98 0 -146 58t-48 168v278h104v-264q0 -76 25.5 -113t82.5 -37q33 0 60 12.5t45 36.5v365h104zM377.5 675q39.5 -38 39.5 -94h-82q0 30 -18.5 46t-48.5 16t-48.5 -16t-18.5 -46h-82q0 56 39.5 94t109.5 38t109.5 -38z" />
    <glyph glyph-name="umacron" unicode="&#x16b;" horiz-adv-x="536" 
d="M476 494v-494h-95l-6 43q-48 -53 -126 -53q-98 0 -146 58t-48 168v278h104v-264q0 -76 25.5 -113t82.5 -37q33 0 60 12.5t45 36.5v365h104zM106 670h324v-75h-324v75z" />
    <glyph glyph-name="uni1E7B" unicode="&#x1e7b;" horiz-adv-x="536" 
d="M476 494v-494h-95l-6 43q-48 -53 -126 -53q-98 0 -146 58t-48 168v278h104v-264q0 -76 25.5 -113t82.5 -37q33 0 60 12.5t45 36.5v365h104zM106 659h324v-72h-324v72zM125 835h90v-79h-90v79zM321 835h90v-79h-90v79z" />
    <glyph glyph-name="uogonek" unicode="&#x173;" horiz-adv-x="536" 
d="M524 -190q-38 -19 -85 -19q-44 0 -72.5 23t-28.5 64q0 37 24 69.5t57 52.5h-38l-6 43q-48 -53 -126 -53q-98 0 -146 58t-48 168v278h104v-264q0 -76 25.5 -113t82.5 -37q33 0 60 12.5t45 36.5v365h104v-494q-38 -29 -58 -54.5t-20 -50.5q0 -24 13 -36.5t35 -12.5
q30 0 62 16z" />
    <glyph glyph-name="uring" unicode="&#x16f;" horiz-adv-x="536" 
d="M476 494v-494h-95l-6 43q-48 -53 -126 -53q-98 0 -146 58t-48 168v278h104v-264q0 -76 25.5 -113t82.5 -37q33 0 60 12.5t45 36.5v365h104zM192 597.5q-28 28.5 -28 70.5q0 40 28.5 69.5t75.5 29.5q48 0 76 -29t28 -70q0 -42 -27.5 -70.5t-76.5 -28.5q-48 0 -76 28.5z
M304 630.5q15 14.5 15 37.5q0 22 -15 36.5t-36 14.5t-36 -14.5t-15 -36.5q0 -23 15 -37.5t36 -14.5t36 14.5z" />
    <glyph glyph-name="utilde" unicode="&#x169;" horiz-adv-x="536" 
d="M476 494v-494h-95l-6 43q-48 -53 -126 -53q-98 0 -146 58t-48 168v278h104v-264q0 -76 25.5 -113t82.5 -37q33 0 60 12.5t45 36.5v365h104zM316 585.5q-17 6.5 -40 18.5q-4 2 -17.5 8.5t-25 9.5t-20.5 3q-16 0 -25 -10.5t-9 -27.5h-79q2 56 24 85.5t62 29.5
q17 0 34.5 -6.5t39.5 -17.5q21 -10 35.5 -15.5t27.5 -5.5q16 0 25 10t9 27h79q-2 -56 -24 -85.5t-62 -29.5q-17 0 -34 6.5z" />
    <glyph glyph-name="uni1E79" unicode="&#x1e79;" horiz-adv-x="536" 
d="M476 494v-494h-95l-6 43q-48 -53 -126 -53q-98 0 -146 58t-48 168v278h104v-264q0 -76 25.5 -113t82.5 -37q33 0 60 12.5t45 36.5v365h104zM319 583.5q-18 5.5 -43 16.5q-44 19 -63 19q-16 0 -25 -9.5t-9 -26.5h-70q0 50 19 76.5t55 26.5q16 0 32.5 -5.5t44.5 -17.5
q5 -2 26.5 -10.5t36.5 -8.5q16 0 25 9.5t9 26.5h70q0 -50 -19 -76t-55 -26q-16 0 -34 5.5zM173 790l191 95v-100l-191 -58v63z" />
    <glyph glyph-name="v" unicode="v" horiz-adv-x="494" 
d="M6 494h110l131 -372l130 372h110l-188 -494h-103z" />
    <glyph glyph-name="w" unicode="w" horiz-adv-x="725" 
d="M11 494h113l90 -373l100 360h98l99 -360l91 373h113l-147 -494h-103l-102 347l-103 -347h-102z" />
    <glyph glyph-name="wacute" unicode="&#x1e83;" horiz-adv-x="725" 
d="M11 494h113l90 -373l100 360h98l99 -360l91 373h113l-147 -494h-103l-102 347l-103 -347h-102zM268 642l191 111v-105l-191 -75v69z" />
    <glyph glyph-name="wcircumflex" unicode="&#x175;" horiz-adv-x="725" 
d="M11 494h113l90 -373l100 360h98l99 -360l91 373h113l-147 -494h-103l-102 347l-103 -347h-102zM234 628l129 111l129 -111v-68l-129 81l-129 -81v68z" />
    <glyph glyph-name="wdieresis" unicode="&#x1e85;" horiz-adv-x="725" 
d="M11 494h113l90 -373l100 360h98l99 -360l91 373h113l-147 -494h-103l-102 347l-103 -347h-102zM220 675h90v-84h-90v84zM416 675h90v-84h-90v84z" />
    <glyph glyph-name="wgrave" unicode="&#x1e81;" horiz-adv-x="725" 
d="M11 494h113l90 -373l100 360h98l99 -360l91 373h113l-147 -494h-103l-102 347l-103 -347h-102zM267 648v105l191 -111v-69z" />
    <glyph glyph-name="x" unicode="x" horiz-adv-x="481" 
d="M179 247l-166 247h121l109 -173l101 173h123l-163 -243l167 -251h-121l-110 173l-108 -173h-121z" />
    <glyph glyph-name="y" unicode="y" horiz-adv-x="519" 
d="M210 27l-206 467h117l142 -346l135 346h116l-306 -736h-110z" />
    <glyph glyph-name="yacute" unicode="&#xfd;" horiz-adv-x="519" 
d="M210 27l-206 467h117l142 -346l135 346h116l-306 -736h-110zM164 642l191 111v-105l-191 -75v69z" />
    <glyph glyph-name="ycircumflex" unicode="&#x177;" horiz-adv-x="519" 
d="M210 27l-206 467h117l142 -346l135 346h116l-306 -736h-110zM130 628l129 111l129 -111v-68l-129 81l-129 -81v68z" />
    <glyph glyph-name="ydieresis" unicode="&#xff;" horiz-adv-x="519" 
d="M210 27l-206 467h117l142 -346l135 346h116l-306 -736h-110zM116 675h90v-84h-90v84zM312 675h90v-84h-90v84z" />
    <glyph glyph-name="uni1E8F" unicode="&#x1e8f;" horiz-adv-x="519" 
d="M210 27l-206 467h117l142 -346l135 346h116l-306 -736h-110zM209 689h100v-93h-100v93z" />
    <glyph glyph-name="uni1EF5" unicode="&#x1ef5;" horiz-adv-x="519" 
d="M210 27l-206 467h117l142 -346l135 346h116l-306 -736h-110zM319 -81h100v-93h-100v93z" />
    <glyph glyph-name="ygrave" unicode="&#x1ef3;" horiz-adv-x="519" 
d="M210 27l-206 467h117l142 -346l135 346h116l-306 -736h-110zM163 648v105l191 -111v-69z" />
    <glyph glyph-name="uni1EF7" unicode="&#x1ef7;" horiz-adv-x="519" 
d="M210 27l-206 467h117l142 -346l135 346h116l-306 -736h-110zM239 564q25 23 34 35.5t9 29.5t-10.5 25.5t-28.5 8.5q-27 0 -62 -19l-17 55q36 19 80 19q43 0 71 -22.5t28 -63.5q0 -31 -16 -53.5t-53 -49.5z" />
    <glyph glyph-name="uni0233" unicode="&#x233;" horiz-adv-x="519" 
d="M210 27l-206 467h117l142 -346l135 346h116l-306 -736h-110zM97 670h324v-75h-324v75z" />
    <glyph glyph-name="uni1EF9" unicode="&#x1ef9;" horiz-adv-x="519" 
d="M210 27l-206 467h117l142 -346l135 346h116l-306 -736h-110zM307 585.5q-17 6.5 -40 18.5q-4 2 -17.5 8.5t-25 9.5t-20.5 3q-16 0 -25 -10.5t-9 -27.5h-79q2 56 24 85.5t62 29.5q17 0 34.5 -6.5t39.5 -17.5q21 -10 35.5 -15.5t27.5 -5.5q16 0 25 10t9 27h79
q-2 -56 -24 -85.5t-62 -29.5q-17 0 -34 6.5z" />
    <glyph glyph-name="z" unicode="z" horiz-adv-x="471" 
d="M189 90h259v-90h-428l261 404h-242v90h411z" />
    <glyph glyph-name="zacute" unicode="&#x17a;" horiz-adv-x="471" 
d="M189 90h259v-90h-428l261 404h-242v90h411zM147 648l191 111v-105l-191 -75v69z" />
    <glyph glyph-name="zcaron" unicode="&#x17e;" horiz-adv-x="471" 
d="M189 90h259v-90h-428l261 404h-242v90h411zM113 675v69l129 -81l129 81v-69l-129 -111z" />
    <glyph glyph-name="zdotaccent" unicode="&#x17c;" horiz-adv-x="471" 
d="M189 90h259v-90h-428l261 404h-242v90h411zM192 695h100v-93h-100v93z" />
    <glyph glyph-name="uni1E93" unicode="&#x1e93;" horiz-adv-x="471" 
d="M189 90h259v-90h-428l261 404h-242v90h411zM187 -81h100v-93h-100v93z" />
    <glyph glyph-name="iacute_j.loclNLD" horiz-adv-x="448" 
d="M39 642l148 109v-105l-148 -73v69zM262 642l148 109v-105l-148 -73v69zM60 494h104v-494h-104v494zM216 -159q30 2 44 8.5t19 24.5t5 59v561h104v-603q0 -60 -35.5 -93.5t-89.5 -36.5l-36 -3z" />
    <glyph glyph-name="ordfeminine" unicode="&#xaa;" horiz-adv-x="354" 
d="M56.5 456.5q-24.5 22.5 -24.5 61.5q0 52 48.5 76t115.5 30q-1 16 -11.5 24t-36.5 8q-36 0 -85 -18l-6 69q58 21 114 21q53 0 83 -27t30 -79v-82q0 -24 4 -29.5t18 -5.5h12l-6 -71h-36q-46 0 -67 31q-15 -15 -39 -23t-50 -8q-39 0 -63.5 22.5zM197 510v57q-73 -7 -73 -43
q0 -14 8 -21t22 -7q21 0 43 14z" />
    <glyph glyph-name="ordmasculine" unicode="&#xba;" horiz-adv-x="373" 
d="M103.5 454.5q-35.5 20.5 -54 54t-18.5 72.5q0 40 18.5 73.5t54 53.5t82.5 20q48 0 83.5 -20t54 -53.5t18.5 -73.5q0 -39 -18.5 -72.5t-54 -54t-83.5 -20.5q-47 0 -82.5 20.5zM235 524q18 23 18 57q0 35 -18 57.5t-49 22.5t-48.5 -22.5t-17.5 -57.5q0 -34 17.5 -57
t48.5 -23t49 23z" />
    <glyph glyph-name="pi" unicode="&#x3c0;" horiz-adv-x="649" 
d="M623 89v-80q-15 -8 -38.5 -13.5t-49.5 -5.5q-61 0 -91.5 34.5t-30.5 101.5v285h-179v-411h-104v411h-111v83h608v-83h-110v-272q0 -61 51 -61q29 0 55 11z" />
    <glyph glyph-name="zero" unicode="0" horiz-adv-x="701" 
d="M194.5 32.5q-66.5 46.5 -102.5 130.5t-36 193q0 106 37 187t104 126t154 45q88 0 155 -45t103.5 -126t36.5 -187q0 -109 -36 -193t-102.5 -130.5t-156.5 -46.5t-156.5 46.5zM484.5 153q48.5 69 48.5 203q0 128 -49 194.5t-133 66.5q-82 0 -132.5 -67t-50.5 -194
q0 -133 48.5 -202.5t134.5 -69.5q85 0 133.5 69z" />
    <glyph glyph-name="one" unicode="1" horiz-adv-x="344" 
d="M150 544q-51 -38 -97 -50l-14 97q38 11 79.5 43t59.5 66h79v-700h-107v544z" />
    <glyph glyph-name="two" unicode="2" horiz-adv-x="526" 
d="M240 288q54 83 77 131t23 89q0 48 -27.5 76t-74.5 28q-90 0 -169 -81l-14 112q89 72 200 72q92 0 142.5 -54t50.5 -137q0 -63 -25.5 -123.5t-87.5 -154.5l-96 -145h235v-100h-423z" />
    <glyph glyph-name="three" unicode="3" horiz-adv-x="540" 
d="M448 304q33 -44 33 -109t-31.5 -112t-87 -72t-126.5 -25q-105 0 -199 50l27 96q43 -24 84.5 -37t88.5 -13q61 0 96 29.5t35 81.5q0 57 -37.5 88t-112.5 31h-55v100h55q60 0 94 28t34 78q0 49 -28 74.5t-80 25.5q-40 0 -76.5 -14t-76.5 -39l-18 104q82 45 184 45
q97 0 151.5 -50t54.5 -132q0 -57 -27 -99.5t-76 -64.5q61 -20 94 -64z" />
    <glyph glyph-name="four" unicode="4" horiz-adv-x="596" 
d="M559 263v-91h-90v-172h-108v172h-347l378 528h77v-437h90zM361 263v241l-171 -241h171z" />
    <glyph glyph-name="five" unicode="5" horiz-adv-x="539" 
d="M383.5 413q52.5 -28 80.5 -78.5t28 -117.5q0 -70 -32 -122t-88.5 -80.5t-127.5 -28.5q-55 0 -105 14.5t-89 40.5l26 100q42 -25 80.5 -38t83.5 -13q63 0 101 34.5t38 92.5q0 65 -41.5 100t-114.5 35q-62 0 -137 -18l44 366h330l-6 -104h-238l-19 -159q27 4 63 4
q71 0 123.5 -28z" />
    <glyph glyph-name="six" unicode="6" horiz-adv-x="565" 
d="M422.5 392.5q47.5 -27.5 74 -75.5t26.5 -108q0 -65 -28.5 -115.5t-81 -79t-120.5 -28.5q-72 0 -126 32.5t-82.5 91.5t-28.5 136q0 105 46.5 198t118 161.5t149.5 108.5l75 -65q-81 -41 -155 -111t-107 -156q55 38 133 38q59 0 106.5 -27.5zM382.5 114.5
q34.5 36.5 34.5 90.5q0 53 -34.5 88t-88.5 35q-55 0 -89.5 -35t-34.5 -89q0 -55 34.5 -90.5t89.5 -35.5q54 0 88.5 36.5z" />
    <glyph glyph-name="seven" unicode="7" horiz-adv-x="506" 
d="M497 700l-298 -700h-115l254 597h-297v103h456z" />
    <glyph glyph-name="eight" unicode="8" horiz-adv-x="605" 
d="M519 308q28 -47 28 -108q0 -63 -30 -111.5t-85.5 -75.5t-128.5 -27q-74 0 -129.5 27t-85.5 75.5t-30 111.5q0 61 28 108.5t79 74.5q-35 25 -55 61.5t-20 80.5q0 49 22.5 92t70.5 70t120 27q71 0 118 -27t68.5 -70t21.5 -92q0 -45 -18 -81.5t-52 -61.5q50 -27 78 -74z
M222 595.5q-29 -26.5 -29 -70.5q0 -42 29.5 -70.5t80.5 -28.5q50 0 78 28t28 71q0 44 -27.5 70.5t-78.5 26.5q-52 0 -81 -26.5zM403.5 115q36.5 33 36.5 89t-36.5 91t-100.5 35q-65 0 -101.5 -35t-36.5 -91t36.5 -89t101.5 -33q64 0 100.5 33z" />
    <glyph glyph-name="nine" unicode="9" horiz-adv-x="565" 
d="M401 681.5q54 -32.5 82.5 -91.5t28.5 -136q0 -102 -45 -192t-114 -156.5t-145 -105.5l-75 65q76 39 146.5 105t103.5 147q-52 -37 -131 -37q-59 0 -106.5 27.5t-74 75.5t-26.5 108q0 65 28.5 115.5t81 79t120.5 28.5q72 0 126 -32.5zM363 408q35 35 35 88q0 54 -35 89
t-89 35t-88 -36t-34 -89q0 -52 34 -87t88 -35t89 35z" />
    <glyph glyph-name="uni2080" unicode="&#x2080;" horiz-adv-x="404" 
d="M79 -15.5q-45 56.5 -45 146.5q0 89 46.5 143t121.5 54q76 0 122 -54t46 -143q0 -90 -45 -146.5t-123 -56.5t-123 56.5zM259.5 38.5q20.5 32.5 20.5 92.5q0 59 -21 89t-57 30t-57 -30.5t-21 -88.5q0 -60 20 -92.5t58 -32.5q37 0 57.5 32.5z" />
    <glyph glyph-name="uni2081" unicode="&#x2081;" horiz-adv-x="242" 
d="M101 215q-29 -25 -62 -33l-6 72q24 8 49 25t39 35h63v-372h-83v273z" />
    <glyph glyph-name="uni2082" unicode="&#x2082;" horiz-adv-x="329" 
d="M297 18v-76h-263l111 158q25 36 34 56.5t9 41.5q0 23 -14 37.5t-39 14.5t-47.5 -11.5t-46.5 -31.5l-7 83q57 38 119 38q56 0 90.5 -32.5t34.5 -83.5q0 -34 -12.5 -64.5t-46.5 -78.5l-36 -51h114z" />
    <glyph glyph-name="uni2083" unicode="&#x2083;" horiz-adv-x="345" 
d="M284.5 101q17.5 -24 17.5 -59q0 -52 -38.5 -83t-99.5 -31q-70 0 -129 31l19 76q26 -16 48 -24.5t48 -8.5q29 0 45 12t16 34q0 50 -64 50h-29v71h30q25 0 39.5 11t14.5 32q0 19 -13.5 30.5t-39.5 11.5q-43 0 -86 -30l-7 78q52 26 113 26q56 0 88.5 -28t32.5 -73
q0 -62 -54 -90q31 -12 48.5 -36z" />
    <glyph glyph-name="uni2084" unicode="&#x2084;" horiz-adv-x="378" 
d="M340 86v-65h-49v-79h-74v79h-202l209 293h67v-228h49zM217 198l-27 -40l-51 -72h78v112z" />
    <glyph glyph-name="uni2085" unicode="&#x2085;" horiz-adv-x="333" 
d="M264 147q33 -32 33 -88q0 -62 -40 -96.5t-104 -34.5q-59 0 -113 26l18 76q48 -28 91 -28q28 0 44.5 13t16.5 37q0 26 -19 40t-53 14q-36 0 -77 -9l23 217h199l-5 -74h-133l-7 -63q20 2 31 2q62 0 95 -32z" />
    <glyph glyph-name="uni2086" unicode="&#x2086;" horiz-adv-x="347" 
d="M281 137q34 -34 34 -87q0 -54 -37.5 -88t-95.5 -34q-68 0 -104.5 39t-36.5 107q0 82 53.5 148t136.5 106l49 -54q-45 -19 -83.5 -49t-60.5 -66q24 12 56 12q55 0 89 -34zM218.5 13.5q14.5 14.5 14.5 36.5t-14.5 36.5t-37.5 14.5t-37.5 -14.5t-14.5 -36.5q0 -23 14.5 -37
t37.5 -14t37.5 14.5z" />
    <glyph glyph-name="uni2087" unicode="&#x2087;" horiz-adv-x="331" 
d="M311 320l-166 -378h-81l133 304h-155v74h269z" />
    <glyph glyph-name="uni2088" unicode="&#x2088;" horiz-adv-x="323" 
d="M284 105q16 -27 16 -61q0 -52 -37.5 -84t-100.5 -32q-64 0 -101.5 32t-37.5 84q0 34 16.5 61t45.5 42q-38 29 -38 78q0 43 30.5 73t86.5 30q55 0 84 -30t29 -73q0 -25 -10 -45t-28 -33q29 -15 45 -42zM132.5 250.5q-10.5 -11.5 -10.5 -30.5q0 -18 10.5 -29.5t29.5 -11.5
t29.5 11.5t10.5 29.5q0 19 -10.5 30.5t-29.5 11.5t-29.5 -11.5zM201.5 10.5q14.5 15.5 14.5 41.5q0 24 -14.5 39.5t-39.5 15.5q-26 0 -40.5 -15t-14.5 -40q0 -26 14.5 -41.5t40.5 -15.5q25 0 39.5 15.5z" />
    <glyph glyph-name="uni2089" unicode="&#x2089;" horiz-adv-x="347" 
d="M269 289q36 -39 36 -107q0 -82 -53.5 -148t-136.5 -106l-49 54q45 19 83.5 49t60.5 66q-24 -12 -56 -12q-55 0 -89 34.5t-34 86.5q0 54 37.5 88t95.5 34q69 0 105 -39zM203 169.5q15 14.5 15 36.5t-14.5 36.5t-37.5 14.5q-24 0 -38 -14.5t-14 -36.5t14 -36.5t38 -14.5
q22 0 37 14.5z" />
    <glyph glyph-name="zero.dnom" horiz-adv-x="404" 
d="M79 42.5q-45 56.5 -45 146.5q0 89 46.5 143t121.5 54q76 0 122 -54t46 -143q0 -90 -45 -146.5t-123 -56.5t-123 56.5zM259.5 96.5q20.5 32.5 20.5 92.5q0 59 -21 89t-57 30t-57 -30.5t-21 -88.5q0 -60 20 -92.5t58 -32.5q37 0 57.5 32.5z" />
    <glyph glyph-name="one.dnom" horiz-adv-x="242" 
d="M101 273q-29 -25 -62 -33l-6 72q24 8 49 25t39 35h63v-372h-83v273z" />
    <glyph glyph-name="two.dnom" horiz-adv-x="329" 
d="M297 76v-76h-263l111 158q25 36 34 56.5t9 41.5q0 23 -14 37.5t-39 14.5t-47.5 -11.5t-46.5 -31.5l-7 83q57 38 119 38q56 0 90.5 -32.5t34.5 -83.5q0 -34 -12.5 -64.5t-46.5 -78.5l-36 -51h114z" />
    <glyph glyph-name="three.dnom" horiz-adv-x="345" 
d="M284.5 159q17.5 -24 17.5 -59q0 -52 -38.5 -83t-99.5 -31q-70 0 -129 31l19 76q26 -16 48 -24.5t48 -8.5q29 0 45 12t16 34q0 50 -64 50h-29v71h30q25 0 39.5 11t14.5 32q0 19 -13.5 30.5t-39.5 11.5q-43 0 -86 -30l-7 78q52 26 113 26q56 0 88.5 -28t32.5 -73
q0 -62 -54 -90q31 -12 48.5 -36z" />
    <glyph glyph-name="four.dnom" horiz-adv-x="378" 
d="M340 144v-65h-49v-79h-74v79h-202l209 293h67v-228h49zM217 256l-27 -40l-51 -72h78v112z" />
    <glyph glyph-name="five.dnom" horiz-adv-x="333" 
d="M264 205q33 -32 33 -88q0 -62 -40 -96.5t-104 -34.5q-59 0 -113 26l18 76q48 -28 91 -28q28 0 44.5 13t16.5 37q0 26 -19 40t-53 14q-36 0 -77 -9l23 217h199l-5 -74h-133l-7 -63q20 2 31 2q62 0 95 -32z" />
    <glyph glyph-name="six.dnom" horiz-adv-x="347" 
d="M281 195q34 -34 34 -87q0 -54 -37.5 -88t-95.5 -34q-68 0 -104.5 39t-36.5 107q0 82 53.5 148t136.5 106l49 -54q-45 -19 -83.5 -49t-60.5 -66q24 12 56 12q55 0 89 -34zM218.5 71.5q14.5 14.5 14.5 36.5t-14.5 36.5t-37.5 14.5t-37.5 -14.5t-14.5 -36.5q0 -23 14.5 -37
t37.5 -14t37.5 14.5z" />
    <glyph glyph-name="seven.dnom" horiz-adv-x="331" 
d="M311 378l-166 -378h-81l133 304h-155v74h269z" />
    <glyph glyph-name="eight.dnom" horiz-adv-x="323" 
d="M284 163q16 -27 16 -61q0 -52 -37.5 -84t-100.5 -32q-64 0 -101.5 32t-37.5 84q0 34 16.5 61t45.5 42q-38 29 -38 78q0 43 30.5 73t86.5 30q55 0 84 -30t29 -73q0 -25 -10 -45t-28 -33q29 -15 45 -42zM132.5 308.5q-10.5 -11.5 -10.5 -30.5q0 -18 10.5 -29.5t29.5 -11.5
t29.5 11.5t10.5 29.5q0 19 -10.5 30.5t-29.5 11.5t-29.5 -11.5zM201.5 68.5q14.5 15.5 14.5 41.5q0 24 -14.5 39.5t-39.5 15.5q-26 0 -40.5 -15t-14.5 -40q0 -26 14.5 -41.5t40.5 -15.5q25 0 39.5 15.5z" />
    <glyph glyph-name="nine.dnom" horiz-adv-x="347" 
d="M269 347q36 -39 36 -107q0 -82 -53.5 -148t-136.5 -106l-49 54q45 19 83.5 49t60.5 66q-24 -12 -56 -12q-55 0 -89 34.5t-34 86.5q0 54 37.5 88t95.5 34q69 0 105 -39zM203 227.5q15 14.5 15 36.5t-14.5 36.5t-37.5 14.5q-24 0 -38 -14.5t-14 -36.5t14 -36.5t38 -14.5
q22 0 37 14.5z" />
    <glyph glyph-name="zero.numr" horiz-adv-x="404" 
d="M79 370.5q-45 56.5 -45 146.5q0 89 46.5 143t121.5 54q76 0 122 -54t46 -143q0 -90 -45 -146.5t-123 -56.5t-123 56.5zM259.5 424.5q20.5 32.5 20.5 92.5q0 59 -21 89t-57 30t-57 -30.5t-21 -88.5q0 -60 20 -92.5t58 -32.5q37 0 57.5 32.5z" />
    <glyph glyph-name="one.numr" horiz-adv-x="242" 
d="M101 601q-29 -25 -62 -33l-6 72q24 8 49 25t39 35h63v-372h-83v273z" />
    <glyph glyph-name="two.numr" horiz-adv-x="329" 
d="M297 404v-76h-263l111 158q25 36 34 56.5t9 41.5q0 23 -14 37.5t-39 14.5t-47.5 -11.5t-46.5 -31.5l-7 83q57 38 119 38q56 0 90.5 -32.5t34.5 -83.5q0 -34 -12.5 -64.5t-46.5 -78.5l-36 -51h114z" />
    <glyph glyph-name="three.numr" horiz-adv-x="345" 
d="M284.5 487q17.5 -24 17.5 -59q0 -52 -38.5 -83t-99.5 -31q-70 0 -129 31l19 76q26 -16 48 -24.5t48 -8.5q29 0 45 12t16 34q0 50 -64 50h-29v71h30q25 0 39.5 11t14.5 32q0 19 -13.5 30.5t-39.5 11.5q-43 0 -86 -30l-7 78q52 26 113 26q56 0 88.5 -28t32.5 -73
q0 -62 -54 -90q31 -12 48.5 -36z" />
    <glyph glyph-name="four.numr" horiz-adv-x="378" 
d="M340 472v-65h-49v-79h-74v79h-202l209 293h67v-228h49zM217 584l-27 -40l-51 -72h78v112z" />
    <glyph glyph-name="five.numr" horiz-adv-x="333" 
d="M264 533q33 -32 33 -88q0 -62 -40 -96.5t-104 -34.5q-59 0 -113 26l18 76q48 -28 91 -28q28 0 44.5 13t16.5 37q0 26 -19 40t-53 14q-36 0 -77 -9l23 217h199l-5 -74h-133l-7 -63q20 2 31 2q62 0 95 -32z" />
    <glyph glyph-name="six.numr" horiz-adv-x="347" 
d="M281 523q34 -34 34 -87q0 -54 -37.5 -88t-95.5 -34q-68 0 -104.5 39t-36.5 107q0 82 53.5 148t136.5 106l49 -54q-45 -19 -83.5 -49t-60.5 -66q24 12 56 12q55 0 89 -34zM218.5 399.5q14.5 14.5 14.5 36.5t-14.5 36.5t-37.5 14.5t-37.5 -14.5t-14.5 -36.5q0 -23 14.5 -37
t37.5 -14t37.5 14.5z" />
    <glyph glyph-name="seven.numr" horiz-adv-x="331" 
d="M311 700l-166 -378h-81l133 304h-155v74h269z" />
    <glyph glyph-name="eight.numr" horiz-adv-x="323" 
d="M284 491q16 -27 16 -61q0 -52 -37.5 -84t-100.5 -32q-64 0 -101.5 32t-37.5 84q0 34 16.5 61t45.5 42q-38 29 -38 78q0 43 30.5 73t86.5 30q55 0 84 -30t29 -73q0 -25 -10 -45t-28 -33q29 -15 45 -42zM132.5 636.5q-10.5 -11.5 -10.5 -30.5q0 -18 10.5 -29.5t29.5 -11.5
t29.5 11.5t10.5 29.5q0 19 -10.5 30.5t-29.5 11.5t-29.5 -11.5zM201.5 396.5q14.5 15.5 14.5 41.5q0 24 -14.5 39.5t-39.5 15.5q-26 0 -40.5 -15t-14.5 -40q0 -26 14.5 -41.5t40.5 -15.5q25 0 39.5 15.5z" />
    <glyph glyph-name="nine.numr" horiz-adv-x="347" 
d="M269 675q36 -39 36 -107q0 -82 -53.5 -148t-136.5 -106l-49 54q45 19 83.5 49t60.5 66q-24 -12 -56 -12q-55 0 -89 34.5t-34 86.5q0 54 37.5 88t95.5 34q69 0 105 -39zM203 555.5q15 14.5 15 36.5t-14.5 36.5t-37.5 14.5q-24 0 -38 -14.5t-14 -36.5t14 -36.5t38 -14.5
q22 0 37 14.5z" />
    <glyph glyph-name="uni2070" unicode="&#x2070;" horiz-adv-x="404" 
d="M79 428.5q-45 56.5 -45 146.5q0 89 46.5 143t121.5 54q76 0 122 -54t46 -143q0 -90 -45 -146.5t-123 -56.5t-123 56.5zM259.5 482.5q20.5 32.5 20.5 92.5q0 59 -21 89t-57 30t-57 -30.5t-21 -88.5q0 -60 20 -92.5t58 -32.5q37 0 57.5 32.5z" />
    <glyph glyph-name="uni00B9" unicode="&#xb9;" horiz-adv-x="242" 
d="M101 659q-29 -25 -62 -33l-6 72q24 8 49 25t39 35h63v-372h-83v273z" />
    <glyph glyph-name="uni00B2" unicode="&#xb2;" horiz-adv-x="329" 
d="M297 462v-76h-263l111 158q25 36 34 56.5t9 41.5q0 23 -14 37.5t-39 14.5t-47.5 -11.5t-46.5 -31.5l-7 83q57 38 119 38q56 0 90.5 -32.5t34.5 -83.5q0 -34 -12.5 -64.5t-46.5 -78.5l-36 -51h114z" />
    <glyph glyph-name="uni00B3" unicode="&#xb3;" horiz-adv-x="345" 
d="M284.5 545q17.5 -24 17.5 -59q0 -52 -38.5 -83t-99.5 -31q-70 0 -129 31l19 76q26 -16 48 -24.5t48 -8.5q29 0 45 12t16 34q0 50 -64 50h-29v71h30q25 0 39.5 11t14.5 32q0 19 -13.5 30.5t-39.5 11.5q-43 0 -86 -30l-7 78q52 26 113 26q56 0 88.5 -28t32.5 -73
q0 -62 -54 -90q31 -12 48.5 -36z" />
    <glyph glyph-name="uni2074" unicode="&#x2074;" horiz-adv-x="378" 
d="M340 530v-65h-49v-79h-74v79h-202l209 293h67v-228h49zM217 642l-27 -40l-51 -72h78v112z" />
    <glyph glyph-name="uni2075" unicode="&#x2075;" horiz-adv-x="333" 
d="M264 591q33 -32 33 -88q0 -62 -40 -96.5t-104 -34.5q-59 0 -113 26l18 76q48 -28 91 -28q28 0 44.5 13t16.5 37q0 26 -19 40t-53 14q-36 0 -77 -9l23 217h199l-5 -74h-133l-7 -63q20 2 31 2q62 0 95 -32z" />
    <glyph glyph-name="uni2076" unicode="&#x2076;" horiz-adv-x="347" 
d="M281 581q34 -34 34 -87q0 -54 -37.5 -88t-95.5 -34q-68 0 -104.5 39t-36.5 107q0 82 53.5 148t136.5 106l49 -54q-45 -19 -83.5 -49t-60.5 -66q24 12 56 12q55 0 89 -34zM218.5 457.5q14.5 14.5 14.5 36.5t-14.5 36.5t-37.5 14.5t-37.5 -14.5t-14.5 -36.5q0 -23 14.5 -37
t37.5 -14t37.5 14.5z" />
    <glyph glyph-name="uni2077" unicode="&#x2077;" horiz-adv-x="331" 
d="M311 764l-166 -378h-81l133 304h-155v74h269z" />
    <glyph glyph-name="uni2078" unicode="&#x2078;" horiz-adv-x="323" 
d="M284 549q16 -27 16 -61q0 -52 -37.5 -84t-100.5 -32q-64 0 -101.5 32t-37.5 84q0 34 16.5 61t45.5 42q-38 29 -38 78q0 43 30.5 73t86.5 30q55 0 84 -30t29 -73q0 -25 -10 -45t-28 -33q29 -15 45 -42zM132.5 694.5q-10.5 -11.5 -10.5 -30.5q0 -18 10.5 -29.5t29.5 -11.5
t29.5 11.5t10.5 29.5q0 19 -10.5 30.5t-29.5 11.5t-29.5 -11.5zM201.5 454.5q14.5 15.5 14.5 41.5q0 24 -14.5 39.5t-39.5 15.5q-26 0 -40.5 -15t-14.5 -40q0 -26 14.5 -41.5t40.5 -15.5q25 0 39.5 15.5z" />
    <glyph glyph-name="uni2079" unicode="&#x2079;" horiz-adv-x="347" 
d="M269 733q36 -39 36 -107q0 -82 -53.5 -148t-136.5 -106l-49 54q45 19 83.5 49t60.5 66q-24 -12 -56 -12q-55 0 -89 34.5t-34 86.5q0 54 37.5 88t95.5 34q69 0 105 -39zM203 613.5q15 14.5 15 36.5t-14.5 36.5t-37.5 14.5q-24 0 -38 -14.5t-14 -36.5t14 -36.5t38 -14.5
q22 0 37 14.5z" />
    <glyph glyph-name="fraction" unicode="&#x2044;" horiz-adv-x="91" 
d="M195 700h91l-407 -700h-91z" />
    <glyph glyph-name="onehalf" unicode="&#xbd;" horiz-adv-x="700" 
d="M98 601q-29 -25 -62 -33l-6 72q24 8 49 25t39 35h63v-372h-83v273zM466 700h91l-407 -700h-91zM671 76v-76h-263l111 158q25 36 34 56.5t9 41.5q0 23 -14 37.5t-39 14.5t-47.5 -11.5t-46.5 -31.5l-7 83q57 38 119 38q56 0 90.5 -32.5t34.5 -83.5q0 -34 -12.5 -64.5
t-46.5 -78.5l-36 -51h114z" />
    <glyph glyph-name="onequarter" unicode="&#xbc;" horiz-adv-x="659" 
d="M98 601q-29 -25 -62 -33l-6 72q24 8 49 25t39 35h63v-372h-83v273zM475 700h91l-407 -700h-91zM621 144v-65h-49v-79h-74v79h-202l209 293h67v-228h49zM498 256l-27 -40l-51 -72h78v112z" />
    <glyph glyph-name="threequarters" unicode="&#xbe;" horiz-adv-x="724" 
d="M284.5 487q17.5 -24 17.5 -59q0 -52 -38.5 -83t-99.5 -31q-70 0 -129 31l19 76q26 -16 48 -24.5t48 -8.5q29 0 45 12t16 34q0 50 -64 50h-29v71h30q25 0 39.5 11t14.5 32q0 19 -13.5 30.5t-39.5 11.5q-43 0 -86 -30l-7 78q52 26 113 26q56 0 88.5 -28t32.5 -73
q0 -62 -54 -90q31 -12 48.5 -36zM545 700h91l-407 -700h-91zM687 144v-65h-49v-79h-74v79h-202l209 293h67v-228h49zM564 256l-27 -40l-51 -72h78v112z" />
    <glyph glyph-name="asterisk" unicode="*" horiz-adv-x="430" 
d="M166 560l-134 78l34 54l122 -84l-5 144h64l-5 -144l123 84l33 -54l-133 -78l133 -79l-33 -54l-123 84l5 -146h-64l5 146l-122 -84l-34 54z" />
    <glyph glyph-name="backslash" unicode="\" horiz-adv-x="318" 
d="M-9 700h108l248 -785h-108z" />
    <glyph glyph-name="periodcentered" unicode="&#xb7;" horiz-adv-x="235" 
d="M56 343h124v-130h-124v130z" />
    <glyph glyph-name="bullet" unicode="&#x2022;" horiz-adv-x="303" 
d="M74 201q-32 32 -32 77t32 77t77 32t77 -32t32 -77t-32 -77t-77 -32t-77 32z" />
    <glyph glyph-name="colon" unicode=":" horiz-adv-x="214" 
d="M48 495h118v-119h-118v119zM48 119h118v-119h-118v119z" />
    <glyph glyph-name="comma" unicode="," horiz-adv-x="223" 
d="M59 -113l39 113h-42v119h118v-108l-57 -124h-58z" />
    <glyph glyph-name="ellipsis" unicode="&#x2026;" horiz-adv-x="616" 
d="M48 119h118v-119h-118v119zM249 119h118v-119h-118v119zM450 119h118v-119h-118v119z" />
    <glyph glyph-name="exclam" unicode="!" horiz-adv-x="245" 
d="M77 214l-16 486h124l-16 -486v-27h-92v27zM64 119h117v-119h-117v119z" />
    <glyph glyph-name="exclamdown" unicode="&#xa1;" horiz-adv-x="237" 
d="M181 500v-119h-117v119h117zM169 313v-27l16 -486h-124l16 486v27h92z" />
    <glyph glyph-name="numbersign" unicode="#" horiz-adv-x="707" 
d="M151 214h-119l43 96h113l42 109h-124l30 90h128l74 191h87l-74 -191h125l74 191h86l-74 -191h113l-32 -90h-115l-41 -109h126l-44 -96h-119l-86 -225h-87l86 225h-124l-87 -225h-86zM399 310l43 109h-125l-42 -109h124z" />
    <glyph glyph-name="period" unicode="." horiz-adv-x="214" 
d="M48 119h118v-119h-118v119z" />
    <glyph glyph-name="question" unicode="?" horiz-adv-x="464" 
d="M142 205q0 56 20.5 94t61.5 84q43 48 59 74.5t16 63.5q0 44 -29 67.5t-72 23.5q-66 0 -135 -38l-11 97q37 21 78 32t94 11q61 0 104.5 -23.5t66.5 -64t23 -89.5q0 -50 -21.5 -87t-67.5 -89q-40 -45 -58.5 -77t-18.5 -73v-24h-110v18zM138 119h117v-119h-117v119z" />
    <glyph glyph-name="questiondown" unicode="&#xbf;" horiz-adv-x="411" 
d="M317 381h-117v119h117v-119zM313 295q0 -56 -20.5 -94t-61.5 -84q-43 -48 -59 -74.5t-16 -63.5q0 -44 29 -67.5t72 -23.5q66 0 135 38l11 -97q-37 -21 -78 -32t-94 -11q-61 0 -104.5 23.5t-66.5 64t-23 89.5q0 50 21.5 87t67.5 89q40 45 58.5 77t18.5 73v24h110v-18z" />
    <glyph glyph-name="quotedbl" unicode="&#x22;" horiz-adv-x="336" 
d="M33 700h111l-19 -206h-73zM191 700h111l-19 -206h-73z" />
    <glyph glyph-name="quotesingle" unicode="'" horiz-adv-x="177" 
d="M33 700h111l-19 -206h-73z" />
    <glyph glyph-name="semicolon" unicode=";" horiz-adv-x="222" 
d="M59 -113l39 113h-42v119h118v-108l-57 -124h-58zM56 495h118v-119h-118v119z" />
    <glyph glyph-name="slash" unicode="/" horiz-adv-x="338" 
d="M259 700h108l-268 -785h-108z" />
    <glyph glyph-name="underscore" unicode="_" horiz-adv-x="563" 
d="M1 -36h560v-89h-560v89z" />
    <glyph glyph-name="periodcentered.loclCAT.case" horiz-adv-x="232" 
d="M60 335h112v-114h-112v114z" />
    <glyph glyph-name="periodcentered.loclCAT" horiz-adv-x="232" 
d="M68 329h96v-102h-96v102z" />
    <glyph glyph-name="braceleft" unicode="{" horiz-adv-x="321" 
d="M208.5 641q-26.5 -23 -26.5 -75q0 -23 4 -75t4 -73q0 -45 -19 -71t-56 -40q37 -14 56 -40t19 -71q0 -21 -4 -73t-4 -75q0 -52 26.5 -75t78.5 -23h27v-86h-37q-91 0 -134.5 41.5t-43.5 112.5q0 21 4 71q4 52 4 77q0 56 -18.5 81.5t-64.5 25.5v68q46 0 64.5 25.5t18.5 81.5
q0 25 -4 77q-4 50 -4 71q0 71 43.5 112.5t134.5 41.5h37v-86h-27q-52 0 -78.5 -23z" />
    <glyph glyph-name="braceright" unicode="}" horiz-adv-x="321" 
d="M232 366.5q18 -25.5 64 -25.5v-68q-46 0 -64 -25.5t-18 -81.5q0 -25 4 -77q4 -50 4 -71q0 -71 -44 -112.5t-135 -41.5h-37v86h27q53 0 79.5 23t26.5 75q0 23 -4 75t-4 73q0 45 19 71t56 40q-37 14 -56 40t-19 71q0 21 4 73t4 75q0 52 -26.5 75t-79.5 23h-27v86h37
q91 0 135 -41.5t44 -112.5q0 -21 -4 -71q-4 -52 -4 -77q0 -56 18 -81.5z" />
    <glyph glyph-name="bracketleft" unicode="[" horiz-adv-x="330" 
d="M69 750h257v-85h-162v-715h162v-85h-257v885z" />
    <glyph glyph-name="bracketright" unicode="]" horiz-adv-x="330" 
d="M5 -50h161v715h-161v85h257v-885h-257v85z" />
    <glyph glyph-name="parenleft" unicode="(" horiz-adv-x="319" 
d="M102 62q-36 106 -36 245t36 245t98 198h90q-56 -94 -88 -201.5t-32 -241.5t32 -241.5t88 -201.5h-90q-62 92 -98 198z" />
    <glyph glyph-name="parenright" unicode=")" horiz-adv-x="319" 
d="M117 66q32 107 32 241t-32 241t-88 202h91q62 -93 98 -199t36 -244t-36 -244t-98 -199h-91q56 95 88 202z" />
    <glyph glyph-name="emdash" unicode="&#x2014;" horiz-adv-x="728" 
d="M0 356h728v-90h-728v90z" />
    <glyph glyph-name="endash" unicode="&#x2013;" horiz-adv-x="548" 
d="M0 356h548v-90h-548v90z" />
    <glyph glyph-name="figuredash" unicode="&#x2012;" horiz-adv-x="701" 
d="M0 356h701v-90h-701v90z" />
    <glyph glyph-name="uni2015" unicode="&#x2015;" horiz-adv-x="728" 
d="M0 356h728v-90h-728v90z" />
    <glyph glyph-name="hyphen" unicode="-" horiz-adv-x="421" 
d="M56 356h310v-90h-310v90z" />
    <glyph glyph-name="uni2010" unicode="&#x2010;" horiz-adv-x="421" 
d="M56 356h310v-90h-310v90z" />
    <glyph glyph-name="uni00AD" unicode="&#xad;" horiz-adv-x="444" 
d="M67 356h310v-90h-310v90z" />
    <glyph glyph-name="guillemotleft" unicode="&#xab;" horiz-adv-x="593" 
d="M13 284l156 206h125l-156 -206l156 -206h-125zM273 284l156 206h125l-156 -206l156 -206h-125z" />
    <glyph glyph-name="guillemotright" unicode="&#xbb;" horiz-adv-x="593" 
d="M455 284l-156 206h125l156 -206l-156 -206h-125zM195 284l-156 206h125l156 -206l-156 -206h-125z" />
    <glyph glyph-name="guilsinglleft" unicode="&#x2039;" horiz-adv-x="333" 
d="M13 284l156 206h125l-156 -206l156 -206h-125z" />
    <glyph glyph-name="guilsinglright" unicode="&#x203a;" horiz-adv-x="333" 
d="M195 284l-156 206h125l156 -206l-156 -206h-125z" />
    <glyph glyph-name="quotedblbase" unicode="&#x201e;" horiz-adv-x="377" 
d="M41 -113l39 113h-42v119h118v-108l-57 -124h-58zM214 -113l39 113h-42v119h118v-108l-57 -124h-58z" />
    <glyph glyph-name="quotedblleft" unicode="&#x201c;" horiz-adv-x="384" 
d="M170 706l-39 -113h42v-119h-118v108l57 124h58zM343 706l-39 -113h42v-119h-118v108l57 124h58z" />
    <glyph glyph-name="quotedblright" unicode="&#x201d;" horiz-adv-x="377" 
d="M41 468l39 113h-42v119h118v-108l-57 -124h-58zM214 468l39 113h-42v119h118v-108l-57 -124h-58z" />
    <glyph glyph-name="quoteleft" unicode="&#x2018;" horiz-adv-x="211" 
d="M170 700l-39 -113h42v-119h-118v108l57 124h58z" />
    <glyph glyph-name="quoteright" unicode="&#x2019;" horiz-adv-x="205" 
d="M41 468l39 113h-42v119h118v-108l-57 -124h-58z" />
    <glyph glyph-name="quotesinglbase" unicode="&#x201a;" horiz-adv-x="205" 
d="M41 -113l39 113h-42v119h118v-108l-57 -124h-58z" />
    <glyph glyph-name="uni2007" unicode="&#x2007;" horiz-adv-x="701" 
 />
    <glyph glyph-name="uni200A" unicode="&#x200a;" horiz-adv-x="100" 
 />
    <glyph glyph-name="uni2008" unicode="&#x2008;" horiz-adv-x="214" 
 />
    <glyph glyph-name="uni00A0" unicode="&#xa0;" horiz-adv-x="225" 
 />
    <glyph glyph-name="uni2009" unicode="&#x2009;" horiz-adv-x="200" 
 />
    <glyph glyph-name="uni200B" unicode="&#x200b;" 
 />
    <glyph glyph-name="uni20B5" unicode="&#x20b5;" horiz-adv-x="613" 
d="M581 26q-75 -35 -164 -39l7 -131h-86l7 133q-91 10 -160.5 57t-108.5 125.5t-39 178.5q0 99 39 177t109 125.5t161 58.5l-8 133h86l-8 -130q93 -4 165 -41l-11 -102q-91 41 -174 41q-77 0 -130.5 -34t-81 -93t-27.5 -135t27 -135t80 -93t129 -34q49 0 91 10.5t86 30.5z
" />
    <glyph glyph-name="cent" unicode="&#xa2;" horiz-adv-x="454" 
d="M317 -9l8 -135h-87l8 137q-103 12 -159 81.5t-56 170.5q0 104 54.5 173.5t160.5 82.5l-8 133h87l-8 -131q62 -4 110 -29l-12 -88q-56 28 -118 28q-76 0 -117.5 -44.5t-41.5 -122.5q0 -76 41.5 -122t116.5 -46q63 0 120 31l12 -86q-39 -25 -111 -33z" />
    <glyph glyph-name="colonmonetary" unicode="&#x20a1;" horiz-adv-x="613" 
d="M581 26q-72 -31 -145 -38l-14 -102h-72l14 101q-44 3 -79 13l-16 -114h-72l20 141q-85 43 -132.5 127t-47.5 196q0 93 34.5 167.5t96.5 122.5t144 65l15 109h72l-14 -100h12q33 0 68 -5l15 105h72l-17 -122q19 -6 46 -19l-11 -102q-32 14 -49 20l-70 -499q58 8 119 37z
M378 88l73 520q-36 4 -55 4q-17 0 -25 -1l-71 -507q33 -13 78 -16zM176.5 233.5q19.5 -52.5 56.5 -88.5l63 449q-68 -28 -103.5 -92.5t-35.5 -151.5q0 -64 19.5 -116.5z" />
    <glyph glyph-name="currency" unicode="&#xa4;" horiz-adv-x="716" 
d="M604 258.5q-15 -42.5 -42 -75.5l98 -98l-41 -39l-97 98q-69 -52 -164 -52q-96 0 -164 52l-98 -98l-40 39l97 98q-56 68 -56 165t56 165l-97 98l40 39l99 -98q68 52 163 52q94 0 163 -52l98 98l41 -39l-98 -99q27 -33 42 -75t15 -89t-15 -89.5zM472.5 232
q40.5 45 40.5 116t-40.5 116t-114.5 45t-115 -45t-41 -116t41 -116t115 -45t114.5 45z" />
    <glyph glyph-name="dollar" unicode="$" horiz-adv-x="582" 
d="M503 56.5q-49 -53.5 -156 -66.5l8 -134h-87l7 130q-60 1 -124 15t-101 33l14 115q54 -26 115 -43.5t120 -17.5q63 0 98 23t35 70q0 35 -18.5 57.5t-53.5 38.5t-102 38q-66 21 -109.5 44.5t-70 62.5t-26.5 98q0 82 58 134t166 59l-8 131h87l-8 -132q95 -8 179 -45
l-12 -113q-59 30 -110.5 44.5t-105.5 14.5q-61 0 -96 -22t-35 -66q0 -31 17 -51.5t47.5 -34.5t87.5 -32q119 -36 176 -86t57 -136q0 -75 -49 -128.5z" />
    <glyph glyph-name="dong" unicode="&#x20ab;" horiz-adv-x="562" 
d="M554 596h-51v-596h-96l-5 44q-56 -54 -141 -54q-70 0 -122.5 33.5t-80.5 92t-28 130.5q0 69 27.5 128t79 94t120.5 35q85 0 142 -51v144h-141v71h141v83h104v-83h51v-71zM369.5 122.5q37.5 43.5 37.5 123.5q0 77 -38 122.5t-95 45.5q-63 0 -100 -46.5t-37 -121.5
q0 -72 37 -119.5t100 -47.5q58 0 95.5 43.5zM87 -56h416v-82h-416v82z" />
    <glyph glyph-name="Euro" unicode="&#x20ac;" horiz-adv-x="648" 
d="M605 129l12 -103q-90 -40 -189 -40q-125 0 -215.5 65.5t-123.5 178.5h-97v80h83q-2 26 -2 40q0 16 2 46h-83v80h99q35 111 126 174.5t215 63.5q103 0 185 -41l-12 -102q-89 41 -174 41q-79 0 -134 -36t-82 -100h282v-80h-302q-3 -22 -3 -46q0 -14 2 -40h303v-80h-284
q26 -67 81 -104.5t135 -37.5q89 0 176 41z" />
    <glyph glyph-name="florin" unicode="&#x192;" horiz-adv-x="343" 
d="M246 597q-25 -25 -35 -84l-3 -19h131l-9 -83h-135l-58 -358q-16 -101 -65 -149t-131 -48q-45 0 -72 11l8 89q24 -8 50 -8q46 0 70.5 25t34.5 84l58 354h-79l9 83h83l4 23q31 197 196 197q45 0 72 -11l-9 -89q-22 8 -49 8q-46 0 -71 -25z" />
    <glyph glyph-name="franc" unicode="&#x20a3;" horiz-adv-x="535" 
d="M199 598v-181h247v-102h-247v-103h191v-80h-191v-132h-109v132h-76v80h76v488h429v-102h-320z" />
    <glyph glyph-name="uni20B2" unicode="&#x20b2;" horiz-adv-x="669" 
d="M619 39q-34 -19 -82.5 -33t-104.5 -18l7 -132h-87l7 131q-96 5 -168.5 51.5t-113 127t-40.5 185.5q0 101 41 180t114 126t168 55l-8 132h87l-8 -131q91 -6 165 -39l-11 -100q-92 38 -182 38q-122 0 -184 -72t-62 -189q0 -120 62.5 -191.5t182.5 -71.5q60 0 108 15v154
h-104v94h213v-312z" />
    <glyph glyph-name="uni20AD" unicode="&#x20ad;" horiz-adv-x="607" 
d="M238 330h-39v-330h-109v330h-76v79h76v291h109v-291h40l229 291h130l-234 -291h192v-79h-192l236 -330h-132z" />
    <glyph glyph-name="lira" unicode="&#x20a4;" horiz-adv-x="520" 
d="M491 103v-103h-442q25 63 41 115.5t27 112.5h-65v78h76l1 12l6 62h-83v78h92l3 33q23 223 209 223q68 0 130 -35l-10 -114q-30 25 -56.5 36.5t-56.5 11.5q-48 0 -75 -30t-32 -84l-4 -41h185v-78h-193l-6 -54l-2 -20h201v-78h-213q-13 -69 -36 -125h303z" />
    <glyph glyph-name="uni20BA" unicode="&#x20ba;" horiz-adv-x="576" 
d="M536 342v-28q0 -156 -80 -235t-226 -79h-134v312l-76 -23v86l76 23v70l-76 -23v86l76 23v146h109v-113l276 84v-86l-276 -84v-70l276 84v-86l-276 -84v-243h33q189 0 189 212v28h109z" />
    <glyph glyph-name="uni20BC" unicode="&#x20bc;" horiz-adv-x="687" 
d="M587.5 488.5q59.5 -77.5 59.5 -206.5v-282h-109v257q0 90 -27 147t-101 73v-477h-104v477q-74 -14 -102 -72t-28 -148v-257h-109v282q0 129 60 207t179 92v119h104v-119q118 -15 177.5 -92.5z" />
    <glyph glyph-name="uni20A6" unicode="&#x20a6;" horiz-adv-x="770" 
d="M732 333h-74v-333h-91l-222 333h-126v-333h-109v333h-71v74h71v293h113l194 -293h132v293h109v-293h74v-74zM296 407l-77 115v-115h77zM549 333h-83l83 -126v126z" />
    <glyph glyph-name="peseta" unicode="&#x20a7;" horiz-adv-x="1283" 
d="M79 700h222q236 0 236 -227q0 -119 -64 -176.5t-171 -57.5h-111v-239h-112v700zM678.5 25.5q-32.5 35.5 -32.5 87.5v298h-79l9 83h70v117l104 10v-127h121v-83h-121v-245q0 -46 5.5 -63.5t22.5 -22.5t64 -5h27l-8 -85h-85q-65 0 -97.5 35.5zM288 338q137 0 137 134
q0 69 -33.5 101.5t-105.5 32.5h-95v-268h97zM965 2q-44 12 -68 28l11 96q21 -19 64.5 -34.5t89.5 -15.5q44 0 66 16t22 42q0 31 -25.5 47.5t-69.5 29.5q-46 13 -76.5 26.5t-52 41t-21.5 72.5q0 63 44.5 107.5t139.5 44.5q45 0 81.5 -9.5t61.5 -24.5l-11 -92
q-22 21 -55.5 34.5t-71.5 13.5q-41 0 -65.5 -15.5t-24.5 -46.5q0 -22 13 -35t32.5 -20.5t68.5 -22.5q67 -20 102.5 -52.5t35.5 -96.5q0 -60 -41.5 -103t-148.5 -43q-57 0 -101 12z" />
    <glyph glyph-name="uni20B1" unicode="&#x20b1;" horiz-adv-x="662" 
d="M642 477h-67q1 -9 1 -29t-1 -30h67v-72h-80q-23 -77 -82.5 -114.5t-143.5 -37.5h-128v-194h-112v346h-76v72h76v59h-76v71h76v152h238q187 0 230 -152h78v-71zM208 548h241q-34 58 -129 58h-112v-58zM470 477h-262v-59h262q1 9 1 30q0 20 -1 29zM448 346h-240v-58h113
q91 0 127 58z" />
    <glyph glyph-name="uni20BD" unicode="&#x20bd;" horiz-adv-x="599" 
d="M208 244v-67h187v-80h-187v-97h-112v97h-76v80h76v67h-76v94h76v362h238q242 0 242 -227q0 -116 -62.5 -172.5t-177.5 -56.5h-128zM208 338h113q143 0 143 134q0 68 -35 101t-109 33h-112v-268z" />
    <glyph glyph-name="uni20B9" unicode="&#x20b9;" horiz-adv-x="535" 
d="M508 618h-132q42 -42 54 -106h78v-82h-76q-7 -56 -36.5 -96.5t-78.5 -63.5l191 -270h-121l-171 244q-12 -1 -35 -1h-137v81h123q132 0 153 106h-276v82h276q-11 52 -50 79t-103 27h-123v82h464v-82z" />
    <glyph glyph-name="sterling" unicode="&#xa3;" horiz-adv-x="520" 
d="M491 103v-103h-442q34 85 52 153t28 161h-77v80h85l10 97q23 223 209 223q68 0 130 -35l-10 -114q-30 25 -56.5 36.5t-56.5 11.5q-48 0 -75 -30t-32 -84l-11 -105h184v-80h-192q-8 -71 -19 -119t-30 -92h303z" />
    <glyph glyph-name="uni20A9" unicode="&#x20a9;" horiz-adv-x="960" 
d="M942 328h-118l-75 -328h-106l-100 328h-129l-102 -328h-109l-71 328h-114v77h98l-64 295h118l56 -295h122l88 278h87l88 -278h125l54 295h118l-67 -295h101v-77zM519 405l-40 131l-41 -131h81zM324 328h-84l32 -165zM721 328h-85l54 -170z" />
    <glyph glyph-name="yen" unicode="&#xa5;" horiz-adv-x="583" 
d="M384 357h109v-80h-147v-60h147v-80h-147v-137h-109v137h-147v80h147v60h-147v80h109l-209 343h122l179 -304l179 304h122z" />
    <glyph glyph-name="uni2219" unicode="&#x2219;" horiz-adv-x="235" 
d="M56 343h124v-130h-124v130z" />
    <glyph glyph-name="uni2215" unicode="&#x2215;" horiz-adv-x="338" 
d="M259 700h108l-268 -785h-108z" />
    <glyph glyph-name="plus" unicode="+" horiz-adv-x="445" 
d="M178 237h-135v84h135v134h89v-134h135v-84h-135v-133h-89v133z" />
    <glyph glyph-name="minus" unicode="&#x2212;" horiz-adv-x="445" 
d="M43 321h359v-84h-359v84z" />
    <glyph glyph-name="multiply" unicode="&#xd7;" horiz-adv-x="418" 
d="M267 280l118 -121l-59 -58l-117 119l-117 -119l-59 58l118 121l-118 120l59 58l117 -119l117 119l59 -58z" />
    <glyph glyph-name="divide" unicode="&#xf7;" horiz-adv-x="485" 
d="M188 506h110v-111h-110v111zM43 321h399v-84h-399v84zM188 164h110v-111h-110v111z" />
    <glyph glyph-name="equal" unicode="=" horiz-adv-x="445" 
d="M43 398h359v-83h-359v83zM43 239h359v-83h-359v83z" />
    <glyph glyph-name="notequal" unicode="&#x2260;" horiz-adv-x="445" 
d="M289 315l-44 -76h157v-83h-205l-33 -58h-84l33 58h-70v83h118l44 76h-162v83h210l33 58h84l-33 -58h65v-83h-113z" />
    <glyph glyph-name="greater" unicode="&#x3e;" horiz-adv-x="415" 
d="M22 165l266 114l-266 115v93l354 -161v-94l-354 -160v93z" />
    <glyph glyph-name="less" unicode="&#x3c;" horiz-adv-x="414" 
d="M38 232v94l354 161v-93l-266 -115l266 -114v-93z" />
    <glyph glyph-name="greaterequal" unicode="&#x2265;" horiz-adv-x="437" 
d="M29 258l264 90l-264 90v88l370 -133v-90l-370 -132v87zM29 54v80h370v-80h-370z" />
    <glyph glyph-name="lessequal" unicode="&#x2264;" horiz-adv-x="437" 
d="M38 303v90l370 133v-88l-264 -90l264 -90v-87zM38 134h370v-80h-370v80z" />
    <glyph glyph-name="plusminus" unicode="&#xb1;" horiz-adv-x="457" 
d="M188 313h-139v80h139v133h81v-133h139v-80h-139v-133h-81v133zM49 134h359v-80h-359v80z" />
    <glyph glyph-name="approxequal" unicode="&#x2248;" horiz-adv-x="463" 
d="M276 298.5q-18 6.5 -43 18.5t-39 17t-31 5q-18 0 -28.5 -11t-10.5 -31h-81q2 63 28.5 96t75.5 33q23 0 41 -6.5t46 -19.5q23 -11 37 -16.5t30 -5.5q18 0 28.5 11.5t10.5 30.5h80q-2 -62 -28.5 -95t-74.5 -33q-23 0 -41 6.5zM275 142q-19 7 -42 19q-25 12 -39 17t-31 5
q-18 0 -28.5 -11.5t-10.5 -31.5h-81q2 63 28.5 96t75.5 33q23 0 41 -6.5t46 -19.5q23 -11 37 -16.5t30 -5.5q18 0 28.5 11.5t10.5 31.5h80q-2 -63 -28.5 -96t-74.5 -33q-23 0 -42 7z" />
    <glyph glyph-name="asciitilde" unicode="~" horiz-adv-x="463" 
d="M276 298.5q-18 6.5 -43 18.5t-39 17t-31 5q-18 0 -28.5 -11t-10.5 -31h-81q2 63 28.5 96t75.5 33q23 0 41 -6.5t46 -19.5q23 -11 37 -16.5t30 -5.5q18 0 28.5 11.5t10.5 30.5h80q-2 -62 -28.5 -95t-74.5 -33q-23 0 -41 6.5z" />
    <glyph glyph-name="logicalnot" unicode="&#xac;" horiz-adv-x="517" 
d="M384 322h-341v84h430v-255h-89v171z" />
    <glyph glyph-name="infinity" unicode="&#x221e;" horiz-adv-x="728" 
d="M606.5 510q41.5 -24 65.5 -65.5t24 -92.5t-24 -92.5t-65.5 -65.5t-93.5 -24q-46 0 -85 20t-63 54q-24 -34 -63 -54t-85 -20q-52 0 -94.5 24t-66.5 65.5t-24 92.5t24 92.5t66.5 65.5t94.5 24q46 0 85 -20t63 -54q24 34 63 54t85 20q52 0 93.5 -24zM288.5 287
q25.5 25 25.5 65t-25.5 65t-64.5 25t-64.5 -25t-25.5 -65t25.5 -65t64.5 -25t64.5 25zM569 287q25 25 25 65t-25 65t-63 25q-40 0 -65 -25t-25 -65t25 -65t65 -25q38 0 63 25z" />
    <glyph glyph-name="emptyset" unicode="&#x2205;" horiz-adv-x="519" 
d="M434 415q22 -28 34.5 -63t12.5 -73q0 -60 -30 -110.5t-81 -80.5t-111 -30q-73 0 -132 43l-53 -54l-42 42l53 54q-23 28 -35 63t-12 73q0 60 29.5 111t80.5 81t111 30q74 0 132 -44l53 54l42 -42zM149 209l179 184q-30 19 -69 19q-55 0 -91.5 -38t-36.5 -95q0 -37 18 -70z
M370 350l-180 -184q32 -19 69 -19q55 0 92 38t37 94q0 38 -18 71z" />
    <glyph glyph-name="integral" unicode="&#x222b;" horiz-adv-x="401" 
d="M9 -200l7 96q18 -6 42 -6q73 0 76 85l24 577q4 79 45 120.5t110 41.5q43 0 79 -14l-7 -96q-18 6 -41 6q-74 0 -77 -85l-24 -577q-3 -79 -44.5 -120.5t-110.5 -41.5q-43 0 -79 14z" />
    <glyph glyph-name="uni2126" unicode="&#x2126;" horiz-adv-x="827" 
d="M56 98h170q-69 44 -108.5 117t-39.5 172q0 97 41 171t116.5 115t177.5 41q101 0 176.5 -40.5t116.5 -114.5t41 -172q0 -99 -39 -171.5t-109 -117.5h172v-98h-301v95q81 49 119.5 116t38.5 167q0 109 -57.5 172.5t-157.5 63.5t-158 -65t-58 -172q0 -98 40 -165.5
t118 -116.5v-95h-299v98z" />
    <glyph glyph-name="uni2206" unicode="&#x2206;" horiz-adv-x="667" 
d="M644 42v-42h-621v43l254 657h112zM155 98h357l-178 461z" />
    <glyph glyph-name="product" unicode="&#x220f;" horiz-adv-x="725" 
d="M108 597h-95v103h699v-103h-95v-797h-109v797h-291v-797h-109v797z" />
    <glyph glyph-name="summation" unicode="&#x2211;" horiz-adv-x="608" 
d="M598 -97v-103h-578v48l315 399l-315 399v54h568v-103h-401l276 -347l-276 -347h411z" />
    <glyph glyph-name="radical" unicode="&#x221a;" horiz-adv-x="764" 
d="M751 597h-145l-258 -797h-95l-139 402h-101v103h176l111 -321l230 716h221v-103z" />
    <glyph glyph-name="uni00B5" unicode="&#xb5;" horiz-adv-x="608" 
d="M74 494h104v-282q0 -66 26.5 -99t83.5 -33q35 0 61 12.5t48 38.5v363h103v-323q0 -55 9 -75.5t37 -20.5h19l-14 -85h-34q-78 0 -107 64q-27 -31 -58.5 -47.5t-71.5 -16.5q-62 0 -102 29v-261h-104v736z" />
    <glyph glyph-name="partialdiff" unicode="&#x2202;" horiz-adv-x="579" 
d="M477 652q52 -72 52 -201q0 -109 -33 -214.5t-103 -176t-175 -70.5q-91 0 -138 55t-47 147q0 80 30 151.5t87.5 116t135.5 44.5q84 0 136 -59v25q0 165 -128 165q-61 0 -127 -33v94q65 28 139 28q119 0 171 -72zM345 156.5q47 77.5 66 191.5q-39 67 -108 67q-50 0 -87 -32
t-56.5 -82t-19.5 -103q0 -59 23.5 -89t65.5 -30q69 0 116 77.5z" />
    <glyph glyph-name="percent" unicode="%" horiz-adv-x="907" 
d="M88 370.5q-45 56.5 -45 146.5q0 89 46.5 143t121.5 54q76 0 122 -54t46 -143q0 -90 -45 -146.5t-123 -56.5t-123 56.5zM268.5 424.5q20.5 32.5 20.5 92.5q0 59 -21 89t-57 30t-57 -30.5t-21 -88.5q0 -60 20 -92.5t58 -32.5q37 0 57.5 32.5zM613 700h91l-407 -700h-91z
M574 42.5q-45 56.5 -45 146.5q0 89 46.5 143t121.5 54q76 0 122 -54t46 -143q0 -90 -45 -146.5t-123 -56.5t-123 56.5zM754.5 96.5q20.5 32.5 20.5 92.5q0 59 -21 89t-57 30t-57 -30.5t-21 -88.5q0 -60 20 -92.5t58 -32.5q37 0 57.5 32.5z" />
    <glyph glyph-name="perthousand" unicode="&#x2030;" horiz-adv-x="1310" 
d="M88 370.5q-45 56.5 -45 146.5q0 89 46.5 143t121.5 54q76 0 122 -54t46 -143q0 -90 -45 -146.5t-123 -56.5t-123 56.5zM268.5 424.5q20.5 32.5 20.5 92.5q0 59 -21 89t-57 30t-57 -30.5t-21 -88.5q0 -60 20 -92.5t58 -32.5q37 0 57.5 32.5zM613 700h91l-407 -700h-91z
M574 42.5q-45 56.5 -45 146.5q0 89 46.5 143t121.5 54q76 0 122 -54t46 -143q0 -90 -45 -146.5t-123 -56.5t-123 56.5zM754.5 96.5q20.5 32.5 20.5 92.5q0 59 -21 89t-57 30t-57 -30.5t-21 -88.5q0 -60 20 -92.5t58 -32.5q37 0 57.5 32.5zM976 42.5q-45 56.5 -45 146.5
q0 89 46.5 143t121.5 54q76 0 122 -54t46 -143q0 -90 -45 -146.5t-123 -56.5t-123 56.5zM1156.5 96.5q20.5 32.5 20.5 92.5q0 59 -21 89t-57 30t-57 -30.5t-21 -88.5q0 -60 20 -92.5t58 -32.5q37 0 57.5 32.5z" />
    <glyph glyph-name="lozenge" unicode="&#x25ca;" horiz-adv-x="579" 
d="M568 350l-236 -350h-85l-236 350l236 350h85zM443 350l-154 231l-153 -231l153 -231z" />
    <glyph glyph-name="at" unicode="@" horiz-adv-x="724" 
d="M115.5 -19q-66.5 68 -66.5 189q0 106 51.5 194t138.5 138.5t187 50.5q117 0 183 -68t66 -185q0 -85 -35 -145.5t-107 -60.5q-22 0 -32.5 10t-10.5 41q0 25 6 51.5t21 77.5q17 58 28 105q-22 23 -52.5 38t-68.5 15q-61 0 -120.5 -41t-97 -106.5t-37.5 -131.5
q0 -48 22 -80.5t69 -32.5q46 0 97.5 31t82.5 85q-3 -21 -3 -35q0 -30 14 -54.5t44 -24.5q24 0 58.5 16t60.5 38l3 -3q-50 -82 -135.5 -131t-184.5 -49q-115 0 -181.5 68zM260 124.5q-11 18.5 -11 48.5q0 52 29.5 97.5t73 73t81.5 27.5q37 0 45 -22q-9 -52 -41 -109.5
t-72 -95.5t-72 -38q-22 0 -33 18.5z" />
    <glyph glyph-name="ampersand" unicode="&#x26;" horiz-adv-x="618" 
d="M138.5 2q-51.5 25 -78 68t-26.5 95q0 60 31.5 108.5t93.5 92.5q-75 93 -75 171q0 50 25 88t67 58t92 20q81 0 124 -39t43 -102q0 -41 -21 -75t-53 -61t-84 -64l169 -180q21 43 27 169h97q-1 -59 -13.5 -123.5t-44.5 -119.5l94 -108h-114l-38 41q-41 -34 -86.5 -49
t-105.5 -15q-72 0 -123.5 25zM316.5 486q25.5 29 25.5 67q0 33 -20 50.5t-55 17.5q-36 0 -60.5 -22.5t-24.5 -64.5q0 -54 51 -117q58 40 83.5 69zM401 105l-193 202q-32 -26 -50.5 -60.5t-18.5 -73.5q0 -51 31.5 -84t99.5 -33q84 0 131 49z" />
    <glyph glyph-name="paragraph" unicode="&#xb6;" horiz-adv-x="623" 
d="M305 237q-89 5 -150.5 39.5t-91.5 86t-30 108.5q0 59 32.5 111.5t97.5 85t158 32.5h259v-84h-72v-616h-65v616h-85v-616h-53v237z" />
    <glyph glyph-name="section" unicode="&#xa7;" horiz-adv-x="458" 
d="M127 -73q-39 11 -64 28l12 81q32 -20 67.5 -32.5t67.5 -12.5q43 0 67.5 19.5t24.5 55.5q0 35 -27 55t-83 43q-49 21 -79.5 38.5t-52.5 49t-22 79.5q0 98 99 148q-55 39 -55 117q0 67 44 110.5t124 43.5q41 0 80 -12t65 -28l-11 -81q-32 20 -68.5 33t-67.5 13
q-39 0 -63.5 -18t-24.5 -48q0 -33 25.5 -53t79.5 -45q49 -22 80 -42t53 -53.5t22 -83.5q0 -42 -23 -81.5t-74 -63.5q53 -35 53 -112q0 -65 -40.5 -112t-129.5 -47q-40 0 -79 11zM320 260.5q18 25.5 18 57.5q0 40 -36 67.5t-107 57.5q-78 -29 -78 -96q0 -44 36.5 -69.5
t120.5 -53.5q28 11 46 36.5z" />
    <glyph glyph-name="copyright" unicode="&#xa9;" horiz-adv-x="712" 
d="M195.5 78q-70.5 41 -110.5 115.5t-40 171.5t40 171.5t110.5 115t160.5 40.5t160.5 -40.5t110.5 -115t40 -171.5t-40 -171.5t-110.5 -115.5t-160.5 -41t-160.5 41zM492.5 127.5q55.5 35.5 83.5 97t28 140.5t-28 140.5t-83.5 96.5t-136.5 35q-121 0 -184.5 -75t-63.5 -197
t63.5 -197.5t184.5 -75.5q81 0 136.5 35.5zM249 240.5q-45 46.5 -45 122.5q0 77 45 123.5t116 46.5q24 0 49.5 -6t45.5 -15l-8 -70q-48 20 -87 20q-40 0 -62 -27t-22 -72q0 -44 22 -71.5t62 -27.5q41 0 87 22l8 -70q-19 -10 -45 -16t-50 -6q-71 0 -116 46.5z" />
    <glyph glyph-name="registered" unicode="&#xae;" horiz-adv-x="712" 
d="M196 77q-71 41 -111 116t-40 172q0 98 40 172.5t110.5 115t160.5 40.5t160.5 -40.5t110.5 -115t40 -172.5q0 -97 -40 -172t-110.5 -116t-160.5 -41q-89 0 -160 41zM492 126.5q56 35.5 84 97.5t28 141t-28 140.5t-83.5 97t-136.5 35.5t-136.5 -35.5t-83.5 -97t-28 -140.5
t28 -141t84 -97.5t136 -35.5t136 35.5zM236 534h122q54 0 84 -26t30 -77q0 -29 -14 -52t-37 -36l72 -136h-78l-58 115h-48v-115h-73v327zM351 389q23 0 34 11.5t11 31.5t-11 31t-34 11h-42v-85h42z" />
    <glyph glyph-name="trademark" unicode="&#x2122;" horiz-adv-x="732" 
d="M31 700h269l-8 -62h-97v-301h-64v301h-100v62zM609 337l-28 245l-87 -147h-8l-85 146l-30 -244h-65l48 363h38l99 -166l98 166h38l49 -363h-67z" />
    <glyph glyph-name="degree" unicode="&#xb0;" horiz-adv-x="290" 
d="M45.5 521q-36.5 39 -36.5 97t36.5 97.5t99.5 39.5t99.5 -39.5t36.5 -97.5t-36.5 -97t-99.5 -39t-99.5 39zM203.5 556q20.5 25 20.5 62q0 38 -20.5 63t-58.5 25q-37 0 -58 -25.5t-21 -62.5t21.5 -62t57.5 -25q38 0 58.5 25z" />
    <glyph glyph-name="bar" unicode="|" horiz-adv-x="227" 
d="M62 750h103v-959h-103v959z" />
    <glyph glyph-name="brokenbar" unicode="&#xa6;" horiz-adv-x="229" 
d="M63 750h103v-408h-103v408zM63 198h103v-408h-103v408z" />
    <glyph glyph-name="dagger" unicode="&#x2020;" horiz-adv-x="425" 
d="M146 254l36 137l-147 -28v105l146 -30l-32 169h127l-32 -169l145 30v-105l-146 28l36 -137l-31 -254h-71z" />
    <glyph glyph-name="uni2113" unicode="&#x2113;" horiz-adv-x="553" 
d="M477 175q-3 -90 -42.5 -136.5t-132.5 -46.5q-79 0 -120 49t-41 135v89q-33 -10 -92 -25v73q53 14 92 27v211q0 83 40.5 127.5t122.5 44.5q75 0 115 -42t40 -123q0 -93 -54.5 -154.5t-159.5 -103.5v-125q0 -57 18 -83t56 -26q37 0 54 27.5t19 81.5h85zM245 380
q58 28 87.5 71t29.5 111q0 91 -58 91q-59 0 -59 -86v-187z" />
    <glyph glyph-name="daggerdbl" unicode="&#x2021;" horiz-adv-x="465" 
d="M201 108l-145 -29v104l147 -28l-37 119l37 119l-147 -28v104l145 -28l-32 166h127l-32 -166l146 28v-104l-148 28l37 -119l-37 -119l148 28v-104l-146 29l32 -167h-127z" />
    <glyph glyph-name="uni2116" unicode="&#x2116;" horiz-adv-x="1215" 
d="M821 267q-52 32 -79.5 86.5t-27.5 120.5q0 67 27.5 121.5t79.5 86.5t122 32t122 -32t79.5 -86.5t27.5 -121.5q0 -66 -27.5 -120.5t-79.5 -86.5t-122 -32t-122 32zM79 700h112l326 -493v493h110v-700h-92l-347 522v-522h-109v700zM1035 364q33 40 33 110t-33 110.5
t-92 40.5t-92 -40.5t-33 -110.5t33 -110t92 -40t92 40zM798 160h290v-89h-290v89z" />
    <glyph glyph-name="estimated" unicode="&#x212e;" horiz-adv-x="600" 
d="M169 21q-59 38 -89 101t-30 137q0 91 37.5 153.5t97 92.5t124.5 30q74 0 132.5 -34t92.5 -96.5t34 -145.5h-404v-174q23 -25 62.5 -42.5t82.5 -17.5q69 0 113 28t80 86l35 -20q-42 -66 -92.5 -101t-135.5 -35q-81 0 -140 38zM455 436q-22 23 -61 40.5t-86 17.5
q-85 0 -144 -57v-136h291v135z" />
    <glyph glyph-name="asciicircum" unicode="^" horiz-adv-x="512" 
d="M50 545l206 214l206 -214v-114l-206 192l-206 -192v114z" />
    <glyph glyph-name="minute" unicode="&#x2032;" horiz-adv-x="192" 
d="M37 700h96l-28 -191h-68v191z" />
    <glyph glyph-name="second" unicode="&#x2033;" horiz-adv-x="336" 
d="M181 700h96l-28 -191h-68v191zM37 700h96l-28 -191h-68v191z" />
    <glyph glyph-name="at.ss01" horiz-adv-x="1069" 
d="M305.5 -165q-106.5 58 -169 158.5t-62.5 222.5q0 143 66.5 255t183 174.5t260.5 62.5q124 0 217 -50.5t143 -137t50 -191.5q0 -94 -30.5 -173t-88.5 -125.5t-136 -46.5q-51 0 -81.5 18.5t-48.5 53.5q-61 -66 -150 -66q-51 0 -90.5 27.5t-61 75t-21.5 107.5q0 82 34 151.5
t95 110.5t138 41q39 0 67.5 -14t45.5 -38l17 43h95l-58 -338q-4 -21 -4 -39q0 -42 41 -42q39 0 70 32t48.5 89t17.5 129q0 90 -37.5 157t-109 103.5t-171.5 36.5q-113 0 -204.5 -50.5t-143.5 -141t-52 -207.5q0 -103 48.5 -184.5t134 -128t192.5 -46.5q105 0 193 27l-2 -90
q-86 -24 -203 -24q-126 0 -232.5 58zM567.5 102.5q33.5 23.5 53.5 69t20 108.5q0 68 -25.5 101t-70.5 33q-43 0 -77.5 -28t-53.5 -74.5t-19 -100.5q0 -59 24.5 -95.5t73.5 -36.5q41 0 74.5 23.5z" />
    <glyph glyph-name="uni0308" unicode="&#x308;" 
d="M-143 675h90v-84h-90v84zM53 675h90v-84h-90v84z" />
    <glyph glyph-name="uni0307" unicode="&#x307;" 
d="M-50 689h100v-93h-100v93z" />
    <glyph glyph-name="gravecomb" unicode="&#x300;" 
d="M-96 648v105l191 -111v-69z" />
    <glyph glyph-name="acutecomb" unicode="&#x301;" 
d="M-95 642l191 111v-105l-191 -75v69z" />
    <glyph glyph-name="uni030B" unicode="&#x30b;" 
d="M-33 753h105l-111 -171h-71zM116 753h106l-118 -171h-71z" />
    <glyph glyph-name="caroncomb.alt" 
d="M0 695h96l-28 -171h-68v171z" />
    <glyph glyph-name="uni0302" unicode="&#x302;" 
d="M-129 628l129 111l129 -111v-68l-129 81l-129 -81v68z" />
    <glyph glyph-name="uni030C" unicode="&#x30c;" 
d="M-129 669v69l129 -81l129 81v-69l-129 -111z" />
    <glyph glyph-name="uni0306" unicode="&#x306;" 
d="M-109.5 619q-39.5 38 -39.5 94h82q0 -30 18.5 -46.5t48.5 -16.5t48.5 16.5t18.5 46.5h82q0 -56 -39.5 -94t-109.5 -38t-109.5 38z" />
    <glyph glyph-name="uni030A" unicode="&#x30a;" 
d="M-76 597.5q-28 28.5 -28 70.5q0 40 28.5 69.5t75.5 29.5q48 0 76 -29t28 -70q0 -42 -27.5 -70.5t-76.5 -28.5q-48 0 -76 28.5zM36 630.5q15 14.5 15 37.5q0 22 -15 36.5t-36 14.5t-36 -14.5t-15 -36.5q0 -23 15 -37.5t36 -14.5t36 14.5z" />
    <glyph glyph-name="tildecomb" unicode="&#x303;" 
d="M48 585.5q-17 6.5 -40 18.5q-4 2 -17.5 8.5t-25 9.5t-20.5 3q-16 0 -25 -10.5t-9 -27.5h-79q2 56 24 85.5t62 29.5q17 0 34.5 -6.5t39.5 -17.5q21 -10 35.5 -15.5t27.5 -5.5q16 0 25 10t9 27h79q-2 -56 -24 -85.5t-62 -29.5q-17 0 -34 6.5z" />
    <glyph glyph-name="uni0304" unicode="&#x304;" 
d="M-162 666h324v-75h-324v75z" />
    <glyph glyph-name="hookabovecomb" unicode="&#x309;" 
d="M-20 564q25 23 34 35.5t9 29.5t-10.5 25.5t-28.5 8.5q-27 0 -62 -19l-17 55q36 19 80 19q43 0 71 -22.5t28 -63.5q0 -31 -16 -53.5t-53 -49.5z" />
    <glyph glyph-name="uni030F" unicode="&#x30f;" 
d="M-105 582l-105 171h105l72 -171h-72zM38 582l-99 171h106l65 -171h-72z" />
    <glyph glyph-name="uni0311" unicode="&#x311;" 
d="M109.5 675q39.5 -38 39.5 -94h-82q0 30 -18.5 46t-48.5 16t-48.5 -16t-18.5 -46h-82q0 56 39.5 94t109.5 38t109.5 -38z" />
    <glyph glyph-name="uni0312" unicode="&#x312;" 
d="M54 798l-37 -108h40v-109h-114v98l56 119h55z" />
    <glyph glyph-name="uni031B" unicode="&#x31b;" 
d="M0 490q80 0 80 74h94q0 -41 -23.5 -75t-64 -54t-86.5 -20v75z" />
    <glyph glyph-name="dotbelowcomb" unicode="&#x323;" 
d="M-50 -81h100v-93h-100v93z" />
    <glyph glyph-name="uni0324" unicode="&#x324;" 
d="M-143 -91h90v-84h-90v84zM53 -91h90v-84h-90v84z" />
    <glyph glyph-name="uni0326" unicode="&#x326;" 
d="M-53 -308l37 108h-40v109h114v-98l-56 -119h-55z" />
    <glyph glyph-name="uni0327" unicode="&#x327;" 
d="M84 -76.5q24 -22.5 24 -61.5q0 -44 -31 -69t-78 -25q-46 0 -80 19l17 54q31 -17 64 -17q22 0 34.5 9t12.5 27q0 37 -50 37q-23 0 -47 -7l27 110h52l-17 -54h6q42 0 66 -22.5z" />
    <glyph glyph-name="uni0328" unicode="&#x328;" 
d="M30 0q-38 -29 -58 -54.5t-20 -50.5q0 -24 13 -36.5t35 -12.5q30 0 62 16l16 -52q-38 -19 -85 -19q-44 0 -72.5 23t-28.5 64q0 37 24 69.5t57 52.5h57z" />
    <glyph glyph-name="uni032E" unicode="&#x32e;" 
d="M-109.5 -185q-39.5 38 -39.5 94h82q0 -30 18.5 -46.5t48.5 -16.5t48.5 16.5t18.5 46.5h82q0 -56 -39.5 -94t-109.5 -38t-109.5 38z" />
    <glyph glyph-name="uni0331" unicode="&#x331;" 
d="M-162 -91h324v-75h-324v75z" />
    <glyph glyph-name="uni0335" unicode="&#x335;" 
d="M-148 298h296v-71h-296v71z" />
    <glyph glyph-name="uni0308.case" 
d="M-143 663h90v-79h-90v79zM53 663h90v-79h-90v79z" />
    <glyph glyph-name="uni0307.case" 
d="M-50 679h100v-93h-100v93z" />
    <glyph glyph-name="gravecomb.case" 
d="M-96 610v100l191 -95v-63z" />
    <glyph glyph-name="acutecomb.case" 
d="M-95 615l191 95v-100l-191 -58v63z" />
    <glyph glyph-name="uni030B.case" 
d="M-44 733h105l-100 -151h-71zM105 733h105l-106 -151h-71z" />
    <glyph glyph-name="uni0302.case" 
d="M-129 610l129 91l129 -91v-66l-129 68l-129 -68v66z" />
    <glyph glyph-name="uni030C.case" 
d="M0 660l129 68v-66l-129 -91l-129 91v66z" />
    <glyph glyph-name="uni0306.case" 
d="M-109.5 595q-39.5 36 -39.5 89h82q0 -29 18.5 -45t48.5 -16t48.5 16t18.5 45h82q0 -53 -39.5 -89t-109.5 -36t-109.5 36z" />
    <glyph glyph-name="uni030A.case" 
d="M-76.5 577.5q-28.5 28.5 -28.5 69.5q0 40 28.5 69t76.5 29q49 0 77 -28.5t28 -69.5t-28 -69.5t-77 -28.5q-48 0 -76.5 28.5zM36 611q15 14 15 36q0 21 -15 35.5t-36 14.5t-36 -14.5t-15 -35.5q0 -22 15 -36t36 -14t36 14z" />
    <glyph glyph-name="tildecomb.case" 
d="M51 583.5q-18 5.5 -43 16.5q-44 19 -63 19q-16 0 -25 -9.5t-9 -26.5h-70q0 50 19 76.5t55 26.5q16 0 32.5 -5.5t44.5 -17.5q5 -2 26.5 -10.5t36.5 -8.5q16 0 25 9.5t9 26.5h70q0 -50 -19 -76t-55 -26q-16 0 -34 5.5z" />
    <glyph glyph-name="uni0304.case" 
d="M-162 659h324v-72h-324v72z" />
    <glyph glyph-name="hookabovecomb.case" 
d="M-13 596q36 11 36 37q0 30 -39 30q-27 0 -62 -19l-17 55q36 19 80 19q43 0 71 -21t28 -58q0 -34 -21 -54.5t-66 -30.5z" />
    <glyph glyph-name="uni030F.case" 
d="M-108 582l-97 151h105l63 -151h-71zM35 582l-91 151h105l57 -151h-71z" />
    <glyph glyph-name="uni0311.case" 
d="M109.5 663q39.5 -36 39.5 -89h-82q0 29 -18.5 44.5t-48.5 15.5t-48.5 -15.5t-18.5 -44.5h-82q0 53 39.5 89t109.5 36t109.5 -36z" />
    <glyph glyph-name="uni02BC" unicode="&#x2bc;" horiz-adv-x="211" 
d="M52 483l37 108h-40v109h114v-98l-56 -119h-55z" />
    <glyph glyph-name="uni02BB" unicode="&#x2bb;" horiz-adv-x="379" 
d="M243 798l-37 -108h40v-109h-114v98l56 119h55z" />
    <glyph glyph-name="uni02C9" unicode="&#x2c9;" horiz-adv-x="523" 
d="M100 666h324v-75h-324v75z" />
    </font>
</defs>
</svg>
